<svg width="160" height="33" viewBox="0 0 160 33" fill="none" xmlns="http://www.w3.org/2000/svg">
<path d="M64.918 25.538C64.918 26.666 64.795 27.644 64.549 28.472C64.309 29.3 63.976 29.987 63.55 30.533C63.13 31.073 62.632 31.475 62.056 31.739C61.486 32.003 60.871 32.135 60.211 32.135C59.551 32.135 58.933 32.003 58.357 31.739C57.787 31.475 57.292 31.073 56.872 30.533C56.452 29.987 56.122 29.3 55.882 28.472C55.642 27.644 55.522 26.666 55.522 25.538C55.522 24.41 55.642 23.432 55.882 22.604C56.122 21.77 56.452 21.083 56.872 20.543C57.292 19.997 57.787 19.592 58.357 19.328C58.933 19.064 59.551 18.932 60.211 18.932C60.871 18.932 61.486 19.064 62.056 19.328C62.632 19.592 63.13 19.997 63.55 20.543C63.976 21.083 64.309 21.77 64.549 22.604C64.795 23.432 64.918 24.41 64.918 25.538ZM63.1 25.538C63.1 24.566 63.019 23.753 62.857 23.099C62.701 22.445 62.488 21.92 62.218 21.524C61.954 21.122 61.648 20.837 61.3 20.669C60.952 20.501 60.589 20.417 60.211 20.417C59.833 20.417 59.47 20.501 59.122 20.669C58.774 20.837 58.465 21.122 58.195 21.524C57.931 21.92 57.721 22.445 57.565 23.099C57.409 23.753 57.331 24.566 57.331 25.538C57.331 26.51 57.409 27.323 57.565 27.977C57.721 28.631 57.931 29.156 58.195 29.552C58.465 29.948 58.774 30.23 59.122 30.398C59.47 30.566 59.833 30.65 60.211 30.65C60.589 30.65 60.952 30.566 61.3 30.398C61.648 30.23 61.954 29.948 62.218 29.552C62.488 29.156 62.701 28.631 62.857 27.977C63.019 27.323 63.1 26.51 63.1 25.538ZM74.6394 30.659V32H67.6554V30.659H70.3914V22.19C70.3914 21.92 70.4004 21.641 70.4184 21.353L68.2224 23.216C68.1384 23.282 68.0544 23.324 67.9704 23.342C67.8864 23.36 67.8054 23.363 67.7274 23.351C67.6554 23.339 67.5894 23.315 67.5294 23.279C67.4754 23.237 67.4304 23.195 67.3944 23.153L66.8454 22.388L70.7154 19.049H72.1464V30.659H74.6394Z" fill="#222831"/>
<path d="M79.8965 32.7324H78.9648L82.5273 23.4688H83.4531L79.8965 32.7324Z" fill="#0D2C4A"/>
<path d="M95.5813 26.272C95.5813 27.2747 95.4719 28.144 95.2533 28.88C95.0399 29.6107 94.7466 30.216 94.3733 30.696C93.9999 31.176 93.5573 31.5333 93.0453 31.768C92.5386 32.0027 91.9946 32.12 91.4133 32.12C90.8266 32.12 90.2799 32.0027 89.7733 31.768C89.2719 31.5333 88.8346 31.176 88.4613 30.696C88.0879 30.216 87.7946 29.6107 87.5813 28.88C87.3679 28.144 87.2613 27.2747 87.2613 26.272C87.2613 25.2693 87.3679 24.4 87.5813 23.664C87.7946 22.928 88.0879 22.32 88.4613 21.84C88.8346 21.3547 89.2719 20.9947 89.7733 20.76C90.2799 20.5253 90.8266 20.408 91.4133 20.408C91.9946 20.408 92.5386 20.5253 93.0453 20.76C93.5573 20.9947 93.9999 21.3547 94.3733 21.84C94.7466 22.32 95.0399 22.928 95.2533 23.664C95.4719 24.4 95.5813 25.2693 95.5813 26.272ZM94.1013 26.272C94.1013 25.3973 94.0266 24.664 93.8773 24.072C93.7333 23.4747 93.5359 22.9947 93.2853 22.632C93.0399 22.2693 92.7546 22.0107 92.4293 21.856C92.1039 21.696 91.7653 21.616 91.4133 21.616C91.0613 21.616 90.7226 21.696 90.3973 21.856C90.0719 22.0107 89.7866 22.2693 89.5413 22.632C89.2959 22.9947 89.0986 23.4747 88.9493 24.072C88.8053 24.664 88.7333 25.3973 88.7333 26.272C88.7333 27.1467 88.8053 27.88 88.9493 28.472C89.0986 29.064 89.2959 29.5413 89.5413 29.904C89.7866 30.2667 90.0719 30.528 90.3973 30.688C90.7226 30.8427 91.0613 30.92 91.4133 30.92C91.7653 30.92 92.1039 30.8427 92.4293 30.688C92.7546 30.528 93.0399 30.2667 93.2853 29.904C93.5359 29.5413 93.7333 29.064 93.8773 28.472C94.0266 27.88 94.1013 27.1467 94.1013 26.272ZM101.903 27.864V23.136C101.903 22.9973 101.908 22.8453 101.919 22.68C101.929 22.5147 101.945 22.3467 101.967 22.176L97.7905 27.864H101.903ZM104.887 27.864V28.68C104.887 28.7653 104.86 28.8373 104.807 28.896C104.759 28.9547 104.681 28.984 104.575 28.984H103.151V32H101.903V28.984H96.8145C96.7078 28.984 96.6145 28.9547 96.5345 28.896C96.4598 28.832 96.4118 28.7547 96.3905 28.664L96.2465 27.936L101.823 20.536H103.151V27.864H104.887Z" fill="#9A9A9A"/>
<rect width="160" height="4" fill="#DFDFDF"/>
</svg>
