<svg width="89" height="30" viewBox="0 0 89 30" fill="none" xmlns="http://www.w3.org/2000/svg">
<path d="M51.942 18.8755L51.9355 20H46.1505V10.666H51.9355V11.7905H47.5415V14.748H51.0775V15.8335H47.5415V18.8755H51.942ZM58.9314 20H57.7094C57.6098 20 57.5296 19.974 57.4689 19.922C57.4126 19.8657 57.3671 19.8072 57.3324 19.7465L55.7399 17.231C55.7183 17.296 55.6966 17.3588 55.6749 17.4195C55.6533 17.4802 55.6251 17.5365 55.5904 17.5885L54.1279 19.7465C54.0846 19.8072 54.0348 19.8657 53.9784 19.922C53.9221 19.974 53.8484 20 53.7574 20H52.6264L54.9274 16.6005L52.7174 13.396H53.9394C54.0391 13.396 54.1106 13.4112 54.1539 13.4415C54.2016 13.4718 54.2428 13.5173 54.2774 13.578L55.8439 15.9895C55.8656 15.9245 55.8894 15.8617 55.9154 15.801C55.9414 15.736 55.9761 15.6688 56.0194 15.5995L57.3649 13.604C57.4429 13.4653 57.5469 13.396 57.6769 13.396H58.8404L56.6304 16.542L58.9314 20ZM61.2117 18.375C61.4197 18.648 61.6429 18.8387 61.8812 18.947C62.1239 19.0553 62.3947 19.1095 62.6937 19.1095C63.2744 19.1095 63.7229 18.9015 64.0392 18.4855C64.3599 18.0652 64.5202 17.4542 64.5202 16.6525C64.5202 16.2322 64.4834 15.8747 64.4097 15.58C64.3404 15.281 64.2364 15.0383 64.0977 14.852C63.9634 14.6613 63.7965 14.5227 63.5972 14.436C63.3979 14.345 63.1725 14.2995 62.9212 14.2995C62.5529 14.2995 62.2322 14.3818 61.9592 14.5465C61.6905 14.7112 61.4414 14.9452 61.2117 15.2485V18.375ZM61.1467 14.384C61.2854 14.2193 61.4327 14.0698 61.5887 13.9355C61.749 13.7968 61.9202 13.6798 62.1022 13.5845C62.2842 13.4848 62.477 13.409 62.6807 13.357C62.8887 13.3007 63.1097 13.2725 63.3437 13.2725C63.7207 13.2725 64.0609 13.3462 64.3642 13.4935C64.6719 13.6408 64.934 13.8575 65.1507 14.1435C65.3674 14.4295 65.5342 14.7827 65.6512 15.203C65.7725 15.6233 65.8332 16.1065 65.8332 16.6525C65.8332 17.1422 65.766 17.5972 65.6317 18.0175C65.5017 18.4335 65.3132 18.7953 65.0662 19.103C64.8235 19.4107 64.5245 19.6533 64.1692 19.831C63.8182 20.0043 63.4217 20.091 62.9797 20.091C62.5854 20.091 62.2474 20.026 61.9657 19.896C61.684 19.766 61.4327 19.584 61.2117 19.35V22.2165H59.9442V13.396H60.7047C60.8824 13.396 60.9929 13.4805 61.0362 13.6495L61.1467 14.384ZM68.5567 10.406V20H67.2827V10.406H68.5567ZM73.1816 13.292C73.6669 13.292 74.1046 13.3722 74.4946 13.5325C74.8889 13.6885 75.2226 13.916 75.4956 14.215C75.7729 14.5097 75.9852 14.8672 76.1326 15.2875C76.2799 15.7035 76.3536 16.1715 76.3536 16.6915C76.3536 17.2115 76.2799 17.6817 76.1326 18.102C75.9852 18.5223 75.7729 18.8798 75.4956 19.1745C75.2226 19.4692 74.8889 19.6967 74.4946 19.857C74.1046 20.013 73.6669 20.091 73.1816 20.091C72.6919 20.091 72.2499 20.013 71.8556 19.857C71.4656 19.6967 71.1319 19.4692 70.8546 19.1745C70.5772 18.8798 70.3627 18.5223 70.2111 18.102C70.0637 17.6817 69.9901 17.2115 69.9901 16.6915C69.9901 16.1715 70.0637 15.7035 70.2111 15.2875C70.3627 14.8672 70.5772 14.5097 70.8546 14.215C71.1319 13.916 71.4656 13.6885 71.8556 13.5325C72.2499 13.3722 72.6919 13.292 73.1816 13.292ZM73.1816 19.103C73.8056 19.103 74.2714 18.8928 74.5791 18.4725C74.8867 18.0522 75.0406 17.4607 75.0406 16.698C75.0406 15.9353 74.8867 15.3438 74.5791 14.9235C74.2714 14.4988 73.8056 14.2865 73.1816 14.2865C72.5489 14.2865 72.0766 14.4988 71.7646 14.9235C71.4569 15.3438 71.3031 15.9353 71.3031 16.698C71.3031 17.4607 71.4569 18.0522 71.7646 18.4725C72.0766 18.8928 72.5489 19.103 73.1816 19.103ZM78.9644 14.6635C79.1768 14.2302 79.4324 13.89 79.7314 13.643C80.0304 13.396 80.3901 13.2725 80.8104 13.2725C80.9534 13.2725 81.0878 13.2898 81.2134 13.3245C81.3434 13.3548 81.4561 13.4025 81.5514 13.4675L81.4669 14.423C81.4366 14.54 81.3651 14.5985 81.2524 14.5985C81.1918 14.5985 81.1008 14.5877 80.9794 14.566C80.8581 14.54 80.7281 14.527 80.5894 14.527C80.3858 14.527 80.2059 14.5573 80.0499 14.618C79.8939 14.6743 79.7531 14.761 79.6274 14.878C79.5061 14.9907 79.3978 15.1315 79.3024 15.3005C79.2071 15.4652 79.1183 15.6537 79.0359 15.866V20H77.7684V13.396H78.4964C78.6351 13.396 78.7283 13.422 78.7759 13.474C78.8279 13.5217 78.8648 13.6083 78.8864 13.734L78.9644 14.6635ZM86.6625 15.9635C86.6625 15.7122 86.6256 15.4803 86.552 15.268C86.4826 15.0557 86.3786 14.8715 86.24 14.7155C86.1013 14.5595 85.9323 14.4382 85.733 14.3515C85.5336 14.2648 85.304 14.2215 85.044 14.2215C84.511 14.2215 84.0906 14.3753 83.783 14.683C83.4796 14.9907 83.2868 15.4175 83.2045 15.9635H86.6625ZM87.709 19.0575C87.553 19.2395 87.3731 19.3977 87.1695 19.532C86.9658 19.662 86.7491 19.7682 86.5195 19.8505C86.2898 19.9328 86.0515 19.9935 85.8045 20.0325C85.5618 20.0715 85.3213 20.091 85.083 20.091C84.628 20.091 84.2055 20.0152 83.8155 19.8635C83.4298 19.7075 83.094 19.4822 82.808 19.1875C82.5263 18.8885 82.3053 18.5202 82.145 18.0825C81.989 17.6405 81.911 17.1335 81.911 16.5615C81.911 16.1022 81.9825 15.6753 82.1255 15.281C82.2685 14.8823 82.4721 14.5357 82.7365 14.241C83.0051 13.9463 83.3323 13.7145 83.718 13.5455C84.1036 13.3765 84.537 13.292 85.018 13.292C85.421 13.292 85.7915 13.3592 86.1295 13.4935C86.4718 13.6235 86.7665 13.8142 87.0135 14.0655C87.2605 14.3168 87.4533 14.6267 87.592 14.995C87.735 15.3633 87.8065 15.7837 87.8065 16.256C87.8065 16.451 87.7848 16.5832 87.7415 16.6525C87.6981 16.7175 87.618 16.75 87.501 16.75H83.172C83.185 17.1443 83.2413 17.4888 83.341 17.7835C83.4406 18.0738 83.5771 18.3165 83.7505 18.5115C83.9281 18.7065 84.1383 18.8517 84.381 18.947C84.6236 19.0423 84.8945 19.09 85.1935 19.09C85.4751 19.09 85.7178 19.0575 85.9215 18.9925C86.1295 18.9275 86.3071 18.8582 86.4545 18.7845C86.6061 18.7065 86.7318 18.635 86.8315 18.57C86.9355 18.505 87.0265 18.4725 87.1045 18.4725C87.2085 18.4725 87.2886 18.5115 87.345 18.5895L87.709 19.0575Z" fill="#878787"/>
<mask id="mask0" mask-type="alpha" maskUnits="userSpaceOnUse" x="6" y="5" width="18" height="20">
<path fill-rule="evenodd" clip-rule="evenodd" d="M22 7H21V5H19V7H11V5H9V7H8C6.89 7 6.01 7.9 6.01 9L6 23C6 24.1 6.89 25 8 25H22C23.1 25 24 24.1 24 23V9C24 7.9 23.1 7 22 7ZM22 23H8V12H22V23ZM10 14H15V19H10V14Z" fill="white"/>
</mask>
<g mask="url(#mask0)">
</g>
<path d="M14.9997 16.3197C15.7317 16.3197 16.3197 15.7257 16.3197 14.9997C16.3197 14.2737 15.7317 13.6797 14.9997 13.6797C14.2737 13.6797 13.6797 14.2737 13.6797 14.9997C13.6797 15.7257 14.2737 16.3197 14.9997 16.3197Z" fill="#CCCCCC"/>
<path d="M15 3C8.37001 3 3 8.37001 3 15C3 21.624 8.37001 26.9999 15 26.9999C21.6299 26.9999 26.9999 21.624 26.9999 15C27 8.37001 21.63 3 15 3ZM17.628 17.628L7.79998 22.2L12.372 12.372L22.2 7.79998L17.628 17.628Z" fill="#CCCCCC"/>
</svg>
