<svg width="85" height="30" viewBox="0 0 85 30" fill="none" xmlns="http://www.w3.org/2000/svg">
<path d="M51.4935 18.8365V20H46.1505V10.666H47.535V18.8365H51.4935ZM54.9638 13.292C55.4491 13.292 55.8868 13.3722 56.2768 13.5325C56.6711 13.6885 57.0048 13.916 57.2778 14.215C57.5551 14.5097 57.7675 14.8672 57.9148 15.2875C58.0621 15.7035 58.1358 16.1715 58.1358 16.6915C58.1358 17.2115 58.0621 17.6817 57.9148 18.102C57.7675 18.5223 57.5551 18.8798 57.2778 19.1745C57.0048 19.4692 56.6711 19.6967 56.2768 19.857C55.8868 20.013 55.4491 20.091 54.9638 20.091C54.4741 20.091 54.0321 20.013 53.6378 19.857C53.2478 19.6967 52.9141 19.4692 52.6368 19.1745C52.3595 18.8798 52.145 18.5223 51.9933 18.102C51.846 17.6817 51.7723 17.2115 51.7723 16.6915C51.7723 16.1715 51.846 15.7035 51.9933 15.2875C52.145 14.8672 52.3595 14.5097 52.6368 14.215C52.9141 13.916 53.2478 13.6885 53.6378 13.5325C54.0321 13.3722 54.4741 13.292 54.9638 13.292ZM54.9638 19.103C55.5878 19.103 56.0536 18.8928 56.3613 18.4725C56.669 18.0522 56.8228 17.4607 56.8228 16.698C56.8228 15.9353 56.669 15.3438 56.3613 14.9235C56.0536 14.4988 55.5878 14.2865 54.9638 14.2865C54.3311 14.2865 53.8588 14.4988 53.5468 14.9235C53.2391 15.3438 53.0853 15.9353 53.0853 16.698C53.0853 17.4607 53.2391 18.0522 53.5468 18.4725C53.8588 18.8928 54.3311 19.103 54.9638 19.103ZM61.8331 16.7045C62.0584 16.7045 62.2556 16.6742 62.4246 16.6135C62.5979 16.5528 62.7409 16.4683 62.8536 16.36C62.9706 16.2473 63.0572 16.113 63.1136 15.957C63.1742 15.801 63.2046 15.6298 63.2046 15.4435C63.2046 15.0622 63.0876 14.7588 62.8536 14.5335C62.6239 14.3038 62.2837 14.189 61.8331 14.189C61.3867 14.189 61.0466 14.3038 60.8126 14.5335C60.5829 14.7588 60.4681 15.0622 60.4681 15.4435C60.4681 15.6298 60.4962 15.801 60.5526 15.957C60.6132 16.1087 60.6999 16.2408 60.8126 16.3535C60.9296 16.4618 61.0726 16.5485 61.2416 16.6135C61.4149 16.6742 61.6121 16.7045 61.8331 16.7045ZM63.8546 20.3445C63.8546 20.1885 63.8112 20.065 63.7246 19.974C63.6379 19.8787 63.5187 19.805 63.3671 19.753C63.2197 19.6967 63.0464 19.6577 62.8471 19.636C62.6477 19.61 62.4376 19.5905 62.2166 19.5775C61.9999 19.5645 61.7767 19.5537 61.5471 19.545C61.3174 19.532 61.0964 19.5103 60.8841 19.48C60.6587 19.5927 60.4724 19.7292 60.3251 19.8895C60.1821 20.0498 60.1106 20.2383 60.1106 20.455C60.1106 20.5937 60.1452 20.7237 60.2146 20.845C60.2882 20.9663 60.3987 21.0703 60.5461 21.157C60.6977 21.248 60.8862 21.3173 61.1116 21.365C61.3412 21.417 61.6142 21.443 61.9306 21.443C62.2426 21.443 62.5177 21.4148 62.7561 21.3585C62.9944 21.3065 63.1937 21.2307 63.3541 21.131C63.5187 21.0357 63.6422 20.9208 63.7246 20.7865C63.8112 20.6522 63.8546 20.5048 63.8546 20.3445ZM65.1416 13.643V14.1175C65.1416 14.2735 65.0441 14.371 64.8491 14.41L64.1406 14.514C64.2012 14.6483 64.2489 14.7913 64.2836 14.943C64.3182 15.0903 64.3356 15.2463 64.3356 15.411C64.3356 15.736 64.2727 16.0307 64.1471 16.295C64.0214 16.555 63.8481 16.7782 63.6271 16.9645C63.4061 17.1508 63.1417 17.2938 62.8341 17.3935C62.5307 17.4932 62.1971 17.543 61.8331 17.543C61.5341 17.543 61.2546 17.5105 60.9946 17.4455C60.8646 17.5235 60.7649 17.6102 60.6956 17.7055C60.6306 17.7965 60.5981 17.8875 60.5981 17.9785C60.5981 18.1302 60.6609 18.2428 60.7866 18.3165C60.9166 18.3902 61.0834 18.4443 61.2871 18.479C61.4951 18.5093 61.7312 18.5288 61.9956 18.5375C62.2642 18.5462 62.5351 18.5613 62.8081 18.583C63.0854 18.6003 63.3562 18.635 63.6206 18.687C63.8892 18.7347 64.1254 18.8148 64.3291 18.9275C64.5371 19.0358 64.7039 19.1875 64.8296 19.3825C64.9596 19.5732 65.0246 19.8223 65.0246 20.13C65.0246 20.416 64.9531 20.6933 64.8101 20.962C64.6714 21.2307 64.4677 21.469 64.1991 21.677C63.9304 21.885 63.6032 22.0518 63.2176 22.1775C62.8319 22.3032 62.3942 22.366 61.9046 22.366C61.4149 22.366 60.9881 22.3183 60.6241 22.223C60.2644 22.1277 59.9632 21.9998 59.7206 21.8395C59.4822 21.6792 59.3024 21.4928 59.1811 21.2805C59.0641 21.0682 59.0056 20.8472 59.0056 20.6175C59.0056 20.2968 59.1052 20.026 59.3046 19.805C59.5039 19.5797 59.7791 19.4042 60.1301 19.2785C59.9394 19.1918 59.7877 19.0748 59.6751 18.9275C59.5624 18.7758 59.5061 18.5765 59.5061 18.3295C59.5061 18.2342 59.5234 18.1367 59.5581 18.037C59.5927 17.933 59.6447 17.8312 59.7141 17.7315C59.7877 17.6275 59.8766 17.53 59.9806 17.439C60.0889 17.348 60.2124 17.2657 60.3511 17.192C60.0261 17.01 59.7704 16.7695 59.5841 16.4705C59.3977 16.1672 59.3046 15.814 59.3046 15.411C59.3046 15.086 59.3674 14.7935 59.4931 14.5335C59.6187 14.2735 59.7921 14.0503 60.0131 13.864C60.2384 13.6777 60.5049 13.5347 60.8126 13.435C61.1246 13.3353 61.4647 13.2855 61.8331 13.2855C62.4051 13.2855 62.8969 13.4047 63.3086 13.643H65.1416ZM69.0175 13.292C69.5028 13.292 69.9405 13.3722 70.3305 13.5325C70.7248 13.6885 71.0585 13.916 71.3315 14.215C71.6088 14.5097 71.8212 14.8672 71.9685 15.2875C72.1158 15.7035 72.1895 16.1715 72.1895 16.6915C72.1895 17.2115 72.1158 17.6817 71.9685 18.102C71.8212 18.5223 71.6088 18.8798 71.3315 19.1745C71.0585 19.4692 70.7248 19.6967 70.3305 19.857C69.9405 20.013 69.5028 20.091 69.0175 20.091C68.5278 20.091 68.0858 20.013 67.6915 19.857C67.3015 19.6967 66.9678 19.4692 66.6905 19.1745C66.4132 18.8798 66.1987 18.5223 66.047 18.102C65.8997 17.6817 65.826 17.2115 65.826 16.6915C65.826 16.1715 65.8997 15.7035 66.047 15.2875C66.1987 14.8672 66.4132 14.5097 66.6905 14.215C66.9678 13.916 67.3015 13.6885 67.6915 13.5325C68.0858 13.3722 68.5278 13.292 69.0175 13.292ZM69.0175 19.103C69.6415 19.103 70.1073 18.8928 70.415 18.4725C70.7227 18.0522 70.8765 17.4607 70.8765 16.698C70.8765 15.9353 70.7227 15.3438 70.415 14.9235C70.1073 14.4988 69.6415 14.2865 69.0175 14.2865C68.3848 14.2865 67.9125 14.4988 67.6005 14.9235C67.2928 15.3438 67.139 15.9353 67.139 16.698C67.139 17.4607 67.2928 18.0522 67.6005 18.4725C67.9125 18.8928 68.3848 19.103 69.0175 19.103ZM79.0969 13.396V20H78.3364C78.163 20 78.0504 19.9155 77.9984 19.7465L77.9074 19.0835C77.7644 19.2352 77.6149 19.3738 77.4589 19.4995C77.3029 19.6252 77.136 19.7335 76.9584 19.8245C76.7807 19.9112 76.5922 19.9783 76.3929 20.026C76.1935 20.078 75.979 20.104 75.7494 20.104C75.3854 20.104 75.0647 20.0433 74.7874 19.922C74.5144 19.8007 74.2847 19.6317 74.0984 19.415C73.912 19.194 73.7712 18.9297 73.6759 18.622C73.5805 18.3143 73.5329 17.9742 73.5329 17.6015V13.396H74.8069V17.6015C74.8069 18.0738 74.9152 18.4422 75.1319 18.7065C75.3485 18.9665 75.68 19.0965 76.1264 19.0965C76.4514 19.0965 76.7547 19.0207 77.0364 18.869C77.318 18.713 77.5824 18.5007 77.8294 18.232V13.396H79.0969ZM82.9331 20.104C82.4001 20.104 81.9884 19.9545 81.6981 19.6555C81.4121 19.3565 81.2691 18.9297 81.2691 18.375V14.423H80.5021C80.4284 14.423 80.3656 14.4013 80.3136 14.358C80.2659 14.3103 80.2421 14.241 80.2421 14.15V13.6365L81.3146 13.487L81.6006 11.5175C81.6179 11.4438 81.6504 11.3875 81.6981 11.3485C81.7501 11.3052 81.8151 11.2835 81.8931 11.2835H82.5366V13.5H84.4086V14.423H82.5366V18.2905C82.5366 18.5505 82.5994 18.7455 82.7251 18.8755C82.8551 19.0012 83.0198 19.064 83.2191 19.064C83.3361 19.064 83.4358 19.0488 83.5181 19.0185C83.6048 18.9882 83.6784 18.9557 83.7391 18.921C83.7998 18.882 83.8518 18.8473 83.8951 18.817C83.9384 18.7867 83.9774 18.7715 84.0121 18.7715C84.0554 18.7715 84.0879 18.7823 84.1096 18.804C84.1356 18.8213 84.1616 18.8517 84.1876 18.895L84.5646 19.506C84.3566 19.6967 84.1096 19.844 83.8236 19.948C83.5376 20.052 83.2408 20.104 82.9331 20.104Z" fill="#878787"/>
<mask id="mask0" mask-type="alpha" maskUnits="userSpaceOnUse" x="5" y="5" width="20" height="20">
<path fill-rule="evenodd" clip-rule="evenodd" d="M23 11H7V9H23V11ZM21 5H9V7H21V5ZM25 15V23C25 24.1 24.1 25 23 25H7C5.9 25 5 24.1 5 23V15C5 13.9 5.9 13 7 13H23C24.1 13 25 13.9 25 15ZM19 19L13 15.73V22.26L19 19Z" fill="white"/>
</mask>
<g mask="url(#mask0)">
</g>
<g clip-path="url(#clip0)">
<path d="M17.9998 16.0003C17.4469 16.0003 16.9999 16.4484 16.9999 17.0002V21.0003C16.9999 21.5513 16.5519 22.0003 15.9998 22.0003H12.9998V7.00039C12.9998 6.14639 12.4558 5.3834 11.6379 5.09941L11.3418 5.00035H15.9998C16.5519 5.00035 16.9999 5.44932 16.9999 6.00046V9.00043C16.9999 9.55231 17.4469 10.0004 17.9998 10.0004C18.5528 10.0004 18.9998 9.55231 18.9998 9.00043V6.00046C18.9998 4.34648 17.6538 3.00049 15.9998 3.00049H5.24998C5.21189 3.00049 5.18003 3.01752 5.14304 3.02246C5.09489 3.01843 5.04893 3.00049 5.00004 3.00049C3.89702 3.00049 3 3.89733 3 5.00035V23.0002C3 23.8542 3.544 24.6172 4.36192 24.9012L10.38 26.9072C10.584 26.9702 10.7868 27.0003 11 27.0003C12.103 27.0003 12.9998 26.1032 12.9998 25.0002V24.0003H15.9998C17.6538 24.0003 18.9998 22.6543 18.9998 21.0003V17.0002C18.9998 16.4484 18.5528 16.0003 17.9998 16.0003Z" fill="#CCCCCC"/>
<path d="M26.707 12.2932L22.7069 8.29327C22.4211 8.00726 21.991 7.9212 21.6171 8.07611C21.2441 8.2312 21 8.59612 21 9.00023V12.0002H17.0001C16.4481 12.0002 16 12.4481 16 13.0001C16 13.5522 16.4481 14.0001 17.0001 14.0001H21V17C21 17.4041 21.2441 17.7691 21.6171 17.9241C21.991 18.0791 22.4211 17.993 22.7069 17.7072L26.707 13.7071C27.0979 13.3162 27.0979 12.6841 26.707 12.2932Z" fill="#CCCCCC"/>
</g>
<defs>
<clipPath id="clip0">
<rect width="24" height="24" fill="white" transform="translate(3 3)"/>
</clipPath>
</defs>
</svg>
