<svg width="213" height="32" viewBox="0 0 213 32" fill="none" xmlns="http://www.w3.org/2000/svg">
<path d="M51.11 16.5225L49.7255 12.902C49.6258 12.655 49.5262 12.343 49.4265 11.966C49.3788 12.1523 49.329 12.3257 49.277 12.486C49.2293 12.6463 49.1817 12.7893 49.134 12.915L47.756 16.5225H51.11ZM53.8465 20H52.7805C52.6592 20 52.5595 19.9697 52.4815 19.909C52.4035 19.8483 52.3472 19.7703 52.3125 19.675L51.487 17.5105H47.3725L46.547 19.675C46.5167 19.7573 46.4603 19.8332 46.378 19.9025C46.2957 19.9675 46.196 20 46.079 20H45.013L48.731 10.666H50.1285L53.8465 20ZM59.2021 14.631C59.1631 14.6787 59.1241 14.7177 59.0851 14.748C59.0504 14.774 58.9984 14.787 58.9291 14.787C58.8598 14.787 58.7861 14.761 58.7081 14.709C58.6344 14.6527 58.5391 14.5942 58.4221 14.5335C58.3094 14.4685 58.1708 14.41 58.0061 14.358C57.8458 14.3017 57.6464 14.2735 57.4081 14.2735C57.0961 14.2735 56.8209 14.3298 56.5826 14.4425C56.3443 14.5552 56.1449 14.7155 55.9846 14.9235C55.8286 15.1315 55.7094 15.385 55.6271 15.684C55.5448 15.983 55.5036 16.3188 55.5036 16.6915C55.5036 17.0772 55.5469 17.4217 55.6336 17.725C55.7203 18.024 55.8438 18.2775 56.0041 18.4855C56.1644 18.6892 56.3594 18.8452 56.5891 18.9535C56.8188 19.0575 57.0744 19.1095 57.3561 19.1095C57.6291 19.1095 57.8544 19.077 58.0321 19.012C58.2098 18.9427 58.3571 18.869 58.4741 18.791C58.5911 18.713 58.6886 18.6415 58.7666 18.5765C58.8446 18.5072 58.9248 18.4725 59.0071 18.4725C59.1111 18.4725 59.1913 18.5115 59.2476 18.5895L59.6116 19.0575C59.4599 19.2438 59.2888 19.402 59.0981 19.532C58.9118 19.662 58.7124 19.7682 58.5001 19.8505C58.2878 19.9328 58.0646 19.9935 57.8306 20.0325C57.6009 20.0715 57.3669 20.091 57.1286 20.091C56.7169 20.091 56.3313 20.0152 55.9716 19.8635C55.6163 19.7118 55.3064 19.4908 55.0421 19.2005C54.7821 18.9102 54.5763 18.5548 54.4246 18.1345C54.2729 17.7098 54.1971 17.2288 54.1971 16.6915C54.1971 16.2018 54.2643 15.749 54.3986 15.333C54.5373 14.917 54.7388 14.5595 55.0031 14.2605C55.2718 13.9572 55.6011 13.721 55.9911 13.552C56.3811 13.3787 56.8274 13.292 57.3301 13.292C57.8024 13.292 58.2184 13.3678 58.5781 13.5195C58.9378 13.6712 59.2584 13.8857 59.5401 14.163L59.2021 14.631ZM67.0543 20H65.7803V14.423H62.4653V18.2905C62.4653 18.5505 62.5281 18.7455 62.6538 18.8755C62.7838 19.0012 62.9485 19.064 63.1478 19.064C63.2648 19.064 63.3645 19.0488 63.4468 19.0185C63.5335 18.9882 63.6071 18.9557 63.6678 18.921C63.7285 18.882 63.7805 18.8473 63.8238 18.817C63.8671 18.7867 63.9061 18.7715 63.9408 18.7715C63.9841 18.7715 64.0166 18.7823 64.0383 18.804C64.0643 18.8213 64.0903 18.8517 64.1163 18.895L64.4933 19.506C64.2853 19.6967 64.0383 19.844 63.7523 19.948C63.4663 20.052 63.1695 20.104 62.8618 20.104C62.3288 20.104 61.9171 19.9545 61.6268 19.6555C61.3408 19.3565 61.1978 18.9297 61.1978 18.375V14.423H60.4308C60.3571 14.423 60.2943 14.4013 60.2423 14.358C60.1946 14.3103 60.1708 14.241 60.1708 14.15V13.6365L61.2498 13.487L61.5293 11.5175C61.5466 11.4438 61.5791 11.3875 61.6268 11.3485C61.6788 11.3052 61.7438 11.2835 61.8218 11.2835H62.4653V13.5H67.0543V20ZM67.3403 11.316C67.3403 11.433 67.3165 11.5457 67.2688 11.654C67.2211 11.758 67.1561 11.8512 67.0738 11.9335C66.9958 12.0115 66.9026 12.0743 66.7943 12.122C66.686 12.1653 66.5733 12.187 66.4563 12.187C66.3393 12.187 66.2288 12.1653 66.1248 12.122C66.0208 12.0743 65.9276 12.0115 65.8453 11.9335C65.7673 11.8512 65.7045 11.758 65.6568 11.654C65.6135 11.5457 65.5918 11.433 65.5918 11.316C65.5918 11.1947 65.6135 11.0798 65.6568 10.9715C65.7045 10.8632 65.7673 10.77 65.8453 10.692C65.9276 10.6097 66.0208 10.5468 66.1248 10.5035C66.2288 10.4558 66.3393 10.432 66.4563 10.432C66.5733 10.432 66.686 10.4558 66.7943 10.5035C66.9026 10.5468 66.9958 10.6097 67.0738 10.692C67.1561 10.77 67.2211 10.8632 67.2688 10.9715C67.3165 11.0798 67.3403 11.1947 67.3403 11.316ZM74.6274 13.396L71.9494 20H70.8054L68.1274 13.396H69.1739C69.2736 13.396 69.3559 13.4198 69.4209 13.4675C69.4859 13.5152 69.5292 13.5758 69.5509 13.6495L71.1304 17.7055C71.1867 17.8745 71.2344 18.0435 71.2734 18.2125C71.3167 18.3772 71.3557 18.5418 71.3904 18.7065C71.4251 18.5418 71.4641 18.3772 71.5074 18.2125C71.5507 18.0478 71.6027 17.8788 71.6634 17.7055L73.2624 13.6495C73.2884 13.5758 73.3339 13.5152 73.3989 13.4675C73.4639 13.4198 73.5419 13.396 73.6329 13.396H74.6274ZM76.9616 13.396V20H75.6941V13.396H76.9616ZM77.2021 11.355C77.2021 11.472 77.1783 11.5847 77.1306 11.693C77.083 11.797 77.018 11.8902 76.9356 11.9725C76.8576 12.0505 76.7645 12.1133 76.6561 12.161C76.5478 12.2043 76.4351 12.226 76.3181 12.226C76.2011 12.226 76.0906 12.2043 75.9866 12.161C75.8826 12.1133 75.7895 12.0505 75.7071 11.9725C75.6291 11.8902 75.5663 11.797 75.5186 11.693C75.4753 11.5847 75.4536 11.472 75.4536 11.355C75.4536 11.2337 75.4753 11.121 75.5186 11.017C75.5663 10.9087 75.6291 10.8155 75.7071 10.7375C75.7895 10.6552 75.8826 10.5923 75.9866 10.549C76.0906 10.5013 76.2011 10.4775 76.3181 10.4775C76.4351 10.4775 76.5478 10.5013 76.6561 10.549C76.7645 10.5923 76.8576 10.6552 76.9356 10.7375C77.018 10.8155 77.083 10.9087 77.1306 11.017C77.1783 11.121 77.2021 11.2337 77.2021 11.355ZM80.8638 20.104C80.3308 20.104 79.9191 19.9545 79.6288 19.6555C79.3428 19.3565 79.1998 18.9297 79.1998 18.375V14.423H78.4328C78.3591 14.423 78.2963 14.4013 78.2443 14.358C78.1966 14.3103 78.1728 14.241 78.1728 14.15V13.6365L79.2453 13.487L79.5312 11.5175C79.5486 11.4438 79.5811 11.3875 79.6288 11.3485C79.6808 11.3052 79.7458 11.2835 79.8238 11.2835H80.4673V13.5H82.3393V14.423H80.4673V18.2905C80.4673 18.5505 80.5301 18.7455 80.6558 18.8755C80.7858 19.0012 80.9504 19.064 81.1498 19.064C81.2668 19.064 81.3664 19.0488 81.4488 19.0185C81.5354 18.9882 81.6091 18.9557 81.6698 18.921C81.7304 18.882 81.7824 18.8473 81.8258 18.817C81.8691 18.7867 81.9081 18.7715 81.9428 18.7715C81.9861 18.7715 82.0186 18.7823 82.0403 18.804C82.0663 18.8213 82.0923 18.8517 82.1183 18.895L82.4953 19.506C82.2873 19.6967 82.0403 19.844 81.7543 19.948C81.4683 20.052 81.1714 20.104 80.8638 20.104ZM89.2787 13.396L85.6127 21.9175C85.5737 22.0128 85.5217 22.0865 85.4567 22.1385C85.3917 22.1905 85.2964 22.2165 85.1707 22.2165H84.2282L85.4372 19.584L82.7267 13.396H83.8317C83.94 13.396 84.0245 13.422 84.0852 13.474C84.1459 13.526 84.1892 13.5845 84.2152 13.6495L85.8922 17.6145C85.9269 17.7142 85.9594 17.816 85.9897 17.92C86.0244 18.0197 86.0525 18.1193 86.0742 18.219C86.1045 18.115 86.137 18.0132 86.1717 17.9135C86.2064 17.8095 86.2432 17.7077 86.2822 17.608L87.9007 13.6495C87.931 13.5758 87.9787 13.5152 88.0437 13.4675C88.1087 13.4198 88.1824 13.396 88.2647 13.396H89.2787ZM94.8696 11.7905V14.917H98.6136V16.0415H94.8696V20H93.4786V10.666H99.2636V11.7905H94.8696ZM104.372 15.9635C104.372 15.7122 104.336 15.4803 104.262 15.268C104.193 15.0557 104.089 14.8715 103.95 14.7155C103.811 14.5595 103.642 14.4382 103.443 14.3515C103.244 14.2648 103.014 14.2215 102.754 14.2215C102.221 14.2215 101.801 14.3753 101.493 14.683C101.19 14.9907 100.997 15.4175 100.914 15.9635H104.372ZM105.419 19.0575C105.263 19.2395 105.083 19.3977 104.879 19.532C104.676 19.662 104.459 19.7682 104.229 19.8505C104 19.9328 103.761 19.9935 103.514 20.0325C103.272 20.0715 103.031 20.091 102.793 20.091C102.338 20.091 101.915 20.0152 101.525 19.8635C101.14 19.7075 100.804 19.4822 100.518 19.1875C100.236 18.8885 100.015 18.5202 99.8549 18.0825C99.6989 17.6405 99.6209 17.1335 99.6209 16.5615C99.6209 16.1022 99.6924 15.6753 99.8354 15.281C99.9784 14.8823 100.182 14.5357 100.446 14.241C100.715 13.9463 101.042 13.7145 101.428 13.5455C101.814 13.3765 102.247 13.292 102.728 13.292C103.131 13.292 103.501 13.3592 103.839 13.4935C104.182 13.6235 104.476 13.8142 104.723 14.0655C104.97 14.3168 105.163 14.6267 105.302 14.995C105.445 15.3633 105.516 15.7837 105.516 16.256C105.516 16.451 105.495 16.5832 105.451 16.6525C105.408 16.7175 105.328 16.75 105.211 16.75H100.882C100.895 17.1443 100.951 17.4888 101.051 17.7835C101.151 18.0738 101.287 18.3165 101.46 18.5115C101.638 18.7065 101.848 18.8517 102.091 18.947C102.334 19.0423 102.604 19.09 102.903 19.09C103.185 19.09 103.428 19.0575 103.631 18.9925C103.839 18.9275 104.017 18.8582 104.164 18.7845C104.316 18.7065 104.442 18.635 104.541 18.57C104.645 18.505 104.736 18.4725 104.814 18.4725C104.918 18.4725 104.999 18.5115 105.055 18.5895L105.419 19.0575ZM111.253 15.9635C111.253 15.7122 111.216 15.4803 111.143 15.268C111.073 15.0557 110.969 14.8715 110.831 14.7155C110.692 14.5595 110.523 14.4382 110.324 14.3515C110.124 14.2648 109.895 14.2215 109.635 14.2215C109.102 14.2215 108.681 14.3753 108.374 14.683C108.07 14.9907 107.878 15.4175 107.795 15.9635H111.253ZM112.3 19.0575C112.144 19.2395 111.964 19.3977 111.76 19.532C111.557 19.662 111.34 19.7682 111.11 19.8505C110.881 19.9328 110.642 19.9935 110.395 20.0325C110.153 20.0715 109.912 20.091 109.674 20.091C109.219 20.091 108.796 20.0152 108.406 19.8635C108.021 19.7075 107.685 19.4822 107.399 19.1875C107.117 18.8885 106.896 18.5202 106.736 18.0825C106.58 17.6405 106.502 17.1335 106.502 16.5615C106.502 16.1022 106.573 15.6753 106.716 15.281C106.859 14.8823 107.063 14.5357 107.327 14.241C107.596 13.9463 107.923 13.7145 108.309 13.5455C108.694 13.3765 109.128 13.292 109.609 13.292C110.012 13.292 110.382 13.3592 110.72 13.4935C111.063 13.6235 111.357 13.8142 111.604 14.0655C111.851 14.3168 112.044 14.6267 112.183 14.995C112.326 15.3633 112.397 15.7837 112.397 16.256C112.397 16.451 112.376 16.5832 112.332 16.6525C112.289 16.7175 112.209 16.75 112.092 16.75H107.763C107.776 17.1443 107.832 17.4888 107.932 17.7835C108.031 18.0738 108.168 18.3165 108.341 18.5115C108.519 18.7065 108.729 18.8517 108.972 18.947C109.214 19.0423 109.485 19.09 109.784 19.09C110.066 19.09 110.309 19.0575 110.512 18.9925C110.72 18.9275 110.898 18.8582 111.045 18.7845C111.197 18.7065 111.323 18.635 111.422 18.57C111.526 18.505 111.617 18.4725 111.695 18.4725C111.799 18.4725 111.879 18.5115 111.936 18.5895L112.3 19.0575ZM118.017 14.995C117.809 14.722 117.584 14.5313 117.341 14.423C117.103 14.3147 116.834 14.2605 116.535 14.2605C115.954 14.2605 115.504 14.4707 115.183 14.891C114.867 15.307 114.709 15.9158 114.709 16.7175C114.709 17.1378 114.743 17.4975 114.813 17.7965C114.886 18.0912 114.99 18.3338 115.125 18.5245C115.263 18.7108 115.432 18.8495 115.632 18.9405C115.831 19.0272 116.056 19.0705 116.308 19.0705C116.676 19.0705 116.994 18.9882 117.263 18.8235C117.532 18.6588 117.783 18.427 118.017 18.128V14.995ZM119.291 10.406V20H118.524C118.346 20 118.236 19.9155 118.193 19.7465L118.082 18.986C117.8 19.3197 117.48 19.5883 117.12 19.792C116.765 19.9913 116.353 20.091 115.885 20.091C115.508 20.091 115.166 20.0173 114.858 19.87C114.555 19.7227 114.295 19.5082 114.078 19.2265C113.861 18.9405 113.695 18.5873 113.578 18.167C113.461 17.7467 113.402 17.2635 113.402 16.7175C113.402 16.2278 113.467 15.7728 113.597 15.3525C113.727 14.9322 113.916 14.5682 114.163 14.2605C114.41 13.9528 114.709 13.7123 115.06 13.539C115.411 13.3613 115.807 13.2725 116.249 13.2725C116.648 13.2725 116.986 13.3375 117.263 13.4675C117.545 13.5975 117.796 13.7817 118.017 14.02V10.406H119.291Z" fill="#878787"/>
<rect x="170" y="2" width="40" height="30" rx="15" fill="#F2994A"/>
<path d="M188.866 20.89V22H184.066V20.89H185.824V15.832C185.824 15.632 185.83 15.426 185.842 15.214L184.594 16.258C184.522 16.314 184.45 16.35 184.378 16.366C184.31 16.378 184.244 16.378 184.18 16.366C184.12 16.354 184.066 16.334 184.018 16.306C183.97 16.274 183.934 16.24 183.91 16.204L183.442 15.562L186.088 13.312H187.306V20.89H188.866ZM196.277 17.662C196.277 18.418 196.195 19.076 196.031 19.636C195.871 20.192 195.647 20.652 195.359 21.016C195.075 21.38 194.737 21.652 194.345 21.832C193.957 22.008 193.537 22.096 193.085 22.096C192.633 22.096 192.213 22.008 191.825 21.832C191.441 21.652 191.107 21.38 190.823 21.016C190.539 20.652 190.317 20.192 190.157 19.636C189.997 19.076 189.917 18.418 189.917 17.662C189.917 16.902 189.997 16.244 190.157 15.688C190.317 15.132 190.539 14.672 190.823 14.308C191.107 13.944 191.441 13.674 191.825 13.498C192.213 13.318 192.633 13.228 193.085 13.228C193.537 13.228 193.957 13.318 194.345 13.498C194.737 13.674 195.075 13.944 195.359 14.308C195.647 14.672 195.871 15.132 196.031 15.688C196.195 16.244 196.277 16.902 196.277 17.662ZM194.747 17.662C194.747 17.034 194.701 16.514 194.609 16.102C194.517 15.69 194.393 15.362 194.237 15.118C194.085 14.874 193.909 14.704 193.709 14.608C193.509 14.508 193.301 14.458 193.085 14.458C192.873 14.458 192.667 14.508 192.467 14.608C192.271 14.704 192.097 14.874 191.945 15.118C191.793 15.362 191.671 15.69 191.579 16.102C191.491 16.514 191.447 17.034 191.447 17.662C191.447 18.29 191.491 18.81 191.579 19.222C191.671 19.634 191.793 19.962 191.945 20.206C192.097 20.45 192.271 20.622 192.467 20.722C192.667 20.818 192.873 20.866 193.085 20.866C193.301 20.866 193.509 20.818 193.709 20.722C193.909 20.622 194.085 20.45 194.237 20.206C194.393 19.962 194.517 19.634 194.609 19.222C194.701 18.81 194.747 18.29 194.747 17.662Z" fill="white"/>
<mask id="mask0" mask-type="alpha" maskUnits="userSpaceOnUse" x="8" y="6" width="14" height="18">
<path fill-rule="evenodd" clip-rule="evenodd" d="M20 6H10C8.9 6 8.01 6.9 8.01 8L8 24L15 21L22 24V8C22 6.9 21.1 6 20 6Z" fill="white"/>
</mask>
<g mask="url(#mask0)">
<rect x="2" y="2" width="26" height="26" fill="#CCCCCC"/>
</g>
</svg>
