<svg width="251" height="42" viewBox="0 0 251 42" fill="none" xmlns="http://www.w3.org/2000/svg">
<rect width="251" height="42" rx="9" fill="#4B3C99"/>
<path d="M75.9655 17.666V27H74.7565V20.357C74.7565 20.2573 74.7587 20.1512 74.763 20.0385C74.7717 19.9258 74.7803 19.811 74.789 19.694L71.682 25.3945C71.5737 25.6068 71.4068 25.713 71.1815 25.713H70.9865C70.7612 25.713 70.5965 25.6068 70.4925 25.3945L67.327 19.6745C67.353 19.9172 67.366 20.1447 67.366 20.357V27H66.1505V17.666H67.1775C67.2988 17.666 67.392 17.679 67.457 17.705C67.5263 17.7267 67.5913 17.7917 67.652 17.9L70.772 23.49C70.8327 23.6027 70.889 23.7218 70.941 23.8475C70.993 23.9732 71.0428 24.0988 71.0905 24.2245C71.1815 23.9688 71.2877 23.7218 71.409 23.4835L74.4705 17.9C74.5268 17.7917 74.5875 17.7267 74.6525 17.705C74.7218 17.679 74.8172 17.666 74.9385 17.666H75.9655ZM83.6469 20.396L79.9809 28.9175C79.9419 29.0128 79.8899 29.0865 79.8249 29.1385C79.7599 29.1905 79.6645 29.2165 79.5389 29.2165H78.5964L79.8054 26.584L77.0949 20.396H78.1999C78.3082 20.396 78.3927 20.422 78.4534 20.474C78.514 20.526 78.5574 20.5845 78.5834 20.6495L80.2604 24.6145C80.295 24.7142 80.3275 24.816 80.3579 24.92C80.3925 25.0197 80.4207 25.1193 80.4424 25.219C80.4727 25.115 80.5052 25.0132 80.5399 24.9135C80.5745 24.8095 80.6114 24.7077 80.6504 24.608L82.2689 20.6495C82.2992 20.5758 82.3469 20.5152 82.4119 20.4675C82.4769 20.4198 82.5505 20.396 82.6329 20.396H83.6469ZM90.6743 22.4695C91.0253 22.4695 91.333 22.424 91.5973 22.333C91.866 22.242 92.0891 22.1142 92.2668 21.9495C92.4488 21.7805 92.5853 21.5812 92.6763 21.3515C92.7673 21.1175 92.8128 20.8597 92.8128 20.578C92.8128 20.0103 92.6351 19.564 92.2798 19.239C91.9288 18.914 91.3936 18.7515 90.6743 18.7515H89.2313V22.4695H90.6743ZM90.6743 17.666C91.2723 17.666 91.7923 17.7353 92.2343 17.874C92.6763 18.0127 93.0425 18.2098 93.3328 18.4655C93.6231 18.7168 93.8376 19.0223 93.9763 19.382C94.1193 19.7417 94.1908 20.1403 94.1908 20.578C94.1908 21.0157 94.115 21.4187 93.9633 21.787C93.8116 22.151 93.5885 22.4652 93.2938 22.7295C92.9991 22.9938 92.6308 23.1997 92.1888 23.347C91.7511 23.49 91.2463 23.5615 90.6743 23.5615H89.2313V27H87.8468V17.666H90.6743ZM96.7198 17.406V27H95.4458V17.406H96.7198ZM102.079 24.0685C101.563 24.0858 101.126 24.127 100.766 24.192C100.406 24.2527 100.114 24.335 99.8886 24.439C99.6633 24.543 99.5008 24.6665 99.4011 24.8095C99.3015 24.9482 99.2516 25.1042 99.2516 25.2775C99.2516 25.4422 99.2776 25.5852 99.3296 25.7065C99.386 25.8235 99.4596 25.921 99.5506 25.999C99.646 26.0727 99.7565 26.1268 99.8821 26.1615C100.008 26.1962 100.144 26.2135 100.292 26.2135C100.487 26.2135 100.664 26.194 100.825 26.155C100.989 26.116 101.143 26.0618 101.286 25.9925C101.429 25.9188 101.566 25.83 101.696 25.726C101.826 25.622 101.953 25.5028 102.079 25.3685V24.0685ZM98.3611 21.319C98.7295 20.968 99.1281 20.7058 99.5571 20.5325C99.9905 20.3592 100.465 20.2725 100.981 20.2725C101.358 20.2725 101.691 20.3353 101.982 20.461C102.272 20.5823 102.517 20.7535 102.716 20.9745C102.915 21.1955 103.065 21.4598 103.165 21.7675C103.269 22.0752 103.321 22.4153 103.321 22.788V27H102.755C102.629 27 102.534 26.9805 102.469 26.9415C102.404 26.8982 102.352 26.8202 102.313 26.7075L102.177 26.129C102.008 26.285 101.841 26.4237 101.676 26.545C101.511 26.662 101.338 26.7638 101.156 26.8505C100.978 26.9328 100.788 26.9957 100.584 27.039C100.38 27.0823 100.155 27.104 99.9081 27.104C99.6481 27.104 99.4033 27.0693 99.1736 27C98.9483 26.9263 98.7511 26.8158 98.5821 26.6685C98.4131 26.5212 98.2788 26.337 98.1791 26.116C98.0838 25.895 98.0361 25.6372 98.0361 25.3425C98.0361 25.0825 98.1055 24.8333 98.2441 24.595C98.3871 24.3523 98.6168 24.1357 98.9331 23.945C99.2538 23.7543 99.6698 23.5983 100.181 23.477C100.697 23.3557 101.329 23.2863 102.079 23.269V22.788C102.079 22.2897 101.973 21.917 101.761 21.67C101.548 21.423 101.236 21.2995 100.825 21.2995C100.547 21.2995 100.313 21.3342 100.123 21.4035C99.9363 21.4728 99.7738 21.5508 99.6351 21.6375C99.5008 21.7198 99.3816 21.7957 99.2776 21.865C99.178 21.9343 99.074 21.969 98.9656 21.969C98.879 21.969 98.8031 21.9452 98.7381 21.8975C98.6775 21.8498 98.6276 21.7935 98.5886 21.7285L98.3611 21.319ZM110.624 20.396L106.958 28.9175C106.919 29.0128 106.867 29.0865 106.802 29.1385C106.737 29.1905 106.642 29.2165 106.516 29.2165H105.574L106.783 26.584L104.072 20.396H105.177C105.286 20.396 105.37 20.422 105.431 20.474C105.492 20.526 105.535 20.5845 105.561 20.6495L107.238 24.6145C107.273 24.7142 107.305 24.816 107.335 24.92C107.37 25.0197 107.398 25.1193 107.42 25.219C107.45 25.115 107.483 25.0132 107.517 24.9135C107.552 24.8095 107.589 24.7077 107.628 24.608L109.246 20.6495C109.277 20.5758 109.324 20.5152 109.389 20.4675C109.454 20.4198 109.528 20.396 109.61 20.396H110.624ZM117.057 25.8365V27H111.714V17.666H113.098V25.8365H117.057ZM119.47 20.396V27H118.203V20.396H119.47ZM119.711 18.355C119.711 18.472 119.687 18.5847 119.639 18.693C119.592 18.797 119.527 18.8902 119.444 18.9725C119.366 19.0505 119.273 19.1133 119.165 19.161C119.057 19.2043 118.944 19.226 118.827 19.226C118.71 19.226 118.599 19.2043 118.495 19.161C118.391 19.1133 118.298 19.0505 118.216 18.9725C118.138 18.8902 118.075 18.797 118.027 18.693C117.984 18.5847 117.962 18.472 117.962 18.355C117.962 18.2337 117.984 18.121 118.027 18.017C118.075 17.9087 118.138 17.8155 118.216 17.7375C118.298 17.6552 118.391 17.5923 118.495 17.549C118.599 17.5013 118.71 17.4775 118.827 17.4775C118.944 17.4775 119.057 17.5013 119.165 17.549C119.273 17.5923 119.366 17.6552 119.444 17.7375C119.527 17.8155 119.592 17.9087 119.639 18.017C119.687 18.121 119.711 18.2337 119.711 18.355ZM125.199 21.5335C125.164 21.5898 125.128 21.631 125.089 21.657C125.05 21.6787 125 21.6895 124.939 21.6895C124.87 21.6895 124.792 21.6657 124.705 21.618C124.623 21.5703 124.521 21.5183 124.4 21.462C124.283 21.4057 124.144 21.3537 123.984 21.306C123.823 21.2583 123.633 21.2345 123.412 21.2345C123.23 21.2345 123.063 21.2583 122.911 21.306C122.764 21.3493 122.638 21.4122 122.534 21.4945C122.43 21.5725 122.35 21.6678 122.294 21.7805C122.237 21.8888 122.209 22.0058 122.209 22.1315C122.209 22.2962 122.257 22.4327 122.352 22.541C122.452 22.6493 122.58 22.7425 122.736 22.8205C122.896 22.8985 123.076 22.97 123.275 23.035C123.479 23.0957 123.685 23.1607 123.893 23.23C124.105 23.2993 124.311 23.3795 124.51 23.4705C124.714 23.5572 124.894 23.6677 125.05 23.802C125.21 23.932 125.338 24.0902 125.433 24.2765C125.533 24.4628 125.583 24.6903 125.583 24.959C125.583 25.2667 125.526 25.5527 125.414 25.817C125.305 26.077 125.143 26.3023 124.926 26.493C124.714 26.6837 124.449 26.8332 124.133 26.9415C123.817 27.0498 123.455 27.104 123.048 27.104C122.593 27.104 122.172 27.0282 121.787 26.8765C121.401 26.7248 121.078 26.532 120.818 26.298L121.117 25.8105C121.152 25.7498 121.195 25.7043 121.247 25.674C121.299 25.6393 121.368 25.622 121.455 25.622C121.537 25.622 121.622 25.6523 121.709 25.713C121.795 25.7737 121.899 25.8408 122.021 25.9145C122.142 25.9838 122.289 26.0488 122.463 26.1095C122.636 26.1658 122.853 26.194 123.113 26.194C123.329 26.194 123.518 26.168 123.678 26.116C123.838 26.0597 123.971 25.986 124.075 25.895C124.183 25.7997 124.263 25.6913 124.315 25.57C124.367 25.4487 124.393 25.3208 124.393 25.1865C124.393 25.0132 124.343 24.8702 124.244 24.7575C124.148 24.6405 124.02 24.5408 123.86 24.4585C123.704 24.3762 123.524 24.3047 123.321 24.244C123.117 24.1833 122.909 24.1183 122.697 24.049C122.484 23.9797 122.276 23.8995 122.073 23.8085C121.869 23.7175 121.687 23.6027 121.527 23.464C121.371 23.3253 121.243 23.1563 121.143 22.957C121.048 22.7577 121 22.515 121 22.229C121 21.9733 121.052 21.7285 121.156 21.4945C121.264 21.2605 121.418 21.0547 121.618 20.877C121.821 20.6993 122.07 20.5585 122.365 20.4545C122.664 20.3462 123.004 20.292 123.386 20.292C123.823 20.292 124.218 20.3613 124.569 20.5C124.924 20.6387 125.227 20.8293 125.479 21.072L125.199 21.5335ZM129.022 27.104C128.489 27.104 128.077 26.9545 127.787 26.6555C127.501 26.3565 127.358 25.9297 127.358 25.375V21.423H126.591C126.517 21.423 126.454 21.4013 126.402 21.358C126.355 21.3103 126.331 21.241 126.331 21.15V20.6365L127.403 20.487L127.689 18.5175C127.707 18.4438 127.739 18.3875 127.787 18.3485C127.839 18.3052 127.904 18.2835 127.982 18.2835H128.625V20.5H130.497V21.423H128.625V25.2905C128.625 25.5505 128.688 25.7455 128.814 25.8755C128.944 26.0012 129.109 26.064 129.308 26.064C129.425 26.064 129.525 26.0488 129.607 26.0185C129.694 25.9882 129.767 25.9557 129.828 25.921C129.889 25.882 129.941 25.8473 129.984 25.817C130.027 25.7867 130.066 25.7715 130.101 25.7715C130.144 25.7715 130.177 25.7823 130.198 25.804C130.224 25.8213 130.25 25.8517 130.276 25.895L130.653 26.506C130.445 26.6967 130.198 26.844 129.912 26.948C129.626 27.052 129.33 27.104 129.022 27.104Z" fill="white"/>
<mask id="mask0" mask-type="alpha" maskUnits="userSpaceOnUse" x="25" y="12" width="20" height="20">
<path fill-rule="evenodd" clip-rule="evenodd" d="M43 18H27V16H43V18ZM41 12H29V14H41V12ZM45 22V30C45 31.1 44.1 32 43 32H27C25.9 32 25 31.1 25 30V22C25 20.9 25.9 20 27 20H43C44.1 20 45 20.9 45 22ZM39 26L33 22.73V29.26L39 26Z" fill="white"/>
</mask>
<g mask="url(#mask0)">
<rect x="22" y="9" width="26" height="26" fill="white"/>
</g>
</svg>
