<svg width="210" height="30" viewBox="0 0 210 30" fill="none" xmlns="http://www.w3.org/2000/svg">
<path d="M48.978 15.4695C49.329 15.4695 49.6367 15.424 49.901 15.333C50.1697 15.242 50.3928 15.1142 50.5705 14.9495C50.7525 14.7805 50.889 14.5812 50.98 14.3515C51.071 14.1175 51.1165 13.8597 51.1165 13.578C51.1165 13.0103 50.9388 12.564 50.5835 12.239C50.2325 11.914 49.6973 11.7515 48.978 11.7515H47.535V15.4695H48.978ZM48.978 10.666C49.576 10.666 50.096 10.7353 50.538 10.874C50.98 11.0127 51.3462 11.2098 51.6365 11.4655C51.9268 11.7168 52.1413 12.0223 52.28 12.382C52.423 12.7417 52.4945 13.1403 52.4945 13.578C52.4945 14.0157 52.4187 14.4187 52.267 14.787C52.1153 15.151 51.8922 15.4652 51.5975 15.7295C51.3028 15.9938 50.9345 16.1997 50.4925 16.347C50.0548 16.49 49.55 16.5615 48.978 16.5615H47.535V20H46.1505V10.666H48.978ZM63.8366 10.666V20H62.6276V13.357C62.6276 13.2573 62.6298 13.1512 62.6341 13.0385C62.6428 12.9258 62.6514 12.811 62.6601 12.694L59.5531 18.3945C59.4448 18.6068 59.2779 18.713 59.0526 18.713H58.8576C58.6323 18.713 58.4676 18.6068 58.3636 18.3945L55.1981 12.6745C55.2241 12.9172 55.2371 13.1447 55.2371 13.357V20H54.0216V10.666H55.0486C55.1699 10.666 55.2631 10.679 55.3281 10.705C55.3974 10.7267 55.4624 10.7917 55.5231 10.9L58.6431 16.49C58.7038 16.6027 58.7601 16.7218 58.8121 16.8475C58.8641 16.9732 58.9139 17.0988 58.9616 17.2245C59.0526 16.9688 59.1588 16.7218 59.2801 16.4835L62.3416 10.9C62.3979 10.7917 62.4586 10.7267 62.5236 10.705C62.5929 10.679 62.6883 10.666 62.8096 10.666H63.8366ZM74.7767 18.8365V20H69.4337V10.666H70.8182V18.8365H74.7767ZM77.1901 13.396V20H75.9226V13.396H77.1901ZM77.4306 11.355C77.4306 11.472 77.4068 11.5847 77.3591 11.693C77.3115 11.797 77.2465 11.8902 77.1641 11.9725C77.0861 12.0505 76.993 12.1133 76.8846 12.161C76.7763 12.2043 76.6636 12.226 76.5466 12.226C76.4296 12.226 76.3191 12.2043 76.2151 12.161C76.1111 12.1133 76.018 12.0505 75.9356 11.9725C75.8576 11.8902 75.7948 11.797 75.7471 11.693C75.7038 11.5847 75.6821 11.472 75.6821 11.355C75.6821 11.2337 75.7038 11.121 75.7471 11.017C75.7948 10.9087 75.8576 10.8155 75.9356 10.7375C76.018 10.6552 76.1111 10.5923 76.2151 10.549C76.3191 10.5013 76.4296 10.4775 76.5466 10.4775C76.6636 10.4775 76.7763 10.5013 76.8846 10.549C76.993 10.5923 77.0861 10.6552 77.1641 10.7375C77.2465 10.8155 77.3115 10.9087 77.3591 11.017C77.4068 11.121 77.4306 11.2337 77.4306 11.355ZM82.9188 14.5335C82.8841 14.5898 82.8473 14.631 82.8083 14.657C82.7693 14.6787 82.7194 14.6895 82.6588 14.6895C82.5894 14.6895 82.5114 14.6657 82.4248 14.618C82.3424 14.5703 82.2406 14.5183 82.1193 14.462C82.0023 14.4057 81.8636 14.3537 81.7033 14.306C81.5429 14.2583 81.3523 14.2345 81.1313 14.2345C80.9493 14.2345 80.7824 14.2583 80.6308 14.306C80.4834 14.3493 80.3578 14.4122 80.2538 14.4945C80.1498 14.5725 80.0696 14.6678 80.0133 14.7805C79.9569 14.8888 79.9288 15.0058 79.9288 15.1315C79.9288 15.2962 79.9764 15.4327 80.0718 15.541C80.1714 15.6493 80.2993 15.7425 80.4553 15.8205C80.6156 15.8985 80.7954 15.97 80.9948 16.035C81.1984 16.0957 81.4043 16.1607 81.6123 16.23C81.8246 16.2993 82.0304 16.3795 82.2298 16.4705C82.4334 16.5572 82.6133 16.6677 82.7693 16.802C82.9296 16.932 83.0574 17.0902 83.1528 17.2765C83.2524 17.4628 83.3023 17.6903 83.3023 17.959C83.3023 18.2667 83.2459 18.5527 83.1333 18.817C83.0249 19.077 82.8624 19.3023 82.6458 19.493C82.4334 19.6837 82.1691 19.8332 81.8528 19.9415C81.5364 20.0498 81.1746 20.104 80.7673 20.104C80.3123 20.104 79.8919 20.0282 79.5063 19.8765C79.1206 19.7248 78.7978 19.532 78.5378 19.298L78.8368 18.8105C78.8714 18.7498 78.9148 18.7043 78.9668 18.674C79.0188 18.6393 79.0881 18.622 79.1748 18.622C79.2571 18.622 79.3416 18.6523 79.4283 18.713C79.5149 18.7737 79.6189 18.8408 79.7403 18.9145C79.8616 18.9838 80.0089 19.0488 80.1823 19.1095C80.3556 19.1658 80.5723 19.194 80.8323 19.194C81.0489 19.194 81.2374 19.168 81.3978 19.116C81.5581 19.0597 81.6903 18.986 81.7943 18.895C81.9026 18.7997 81.9828 18.6913 82.0348 18.57C82.0868 18.4487 82.1128 18.3208 82.1128 18.1865C82.1128 18.0132 82.0629 17.8702 81.9633 17.7575C81.8679 17.6405 81.7401 17.5408 81.5798 17.4585C81.4238 17.3762 81.2439 17.3047 81.0403 17.244C80.8366 17.1833 80.6286 17.1183 80.4163 17.049C80.2039 16.9797 79.9959 16.8995 79.7923 16.8085C79.5886 16.7175 79.4066 16.6027 79.2463 16.464C79.0903 16.3253 78.9624 16.1563 78.8628 15.957C78.7674 15.7577 78.7198 15.515 78.7198 15.229C78.7198 14.9733 78.7718 14.7285 78.8758 14.4945C78.9841 14.2605 79.1379 14.0547 79.3373 13.877C79.5409 13.6993 79.7901 13.5585 80.0848 13.4545C80.3838 13.3462 80.7239 13.292 81.1053 13.292C81.5429 13.292 81.9373 13.3613 82.2883 13.5C82.6436 13.6387 82.9469 13.8293 83.1983 14.072L82.9188 14.5335ZM86.7417 20.104C86.2087 20.104 85.797 19.9545 85.5067 19.6555C85.2207 19.3565 85.0777 18.9297 85.0777 18.375V14.423H84.3107C84.237 14.423 84.1742 14.4013 84.1222 14.358C84.0745 14.3103 84.0507 14.241 84.0507 14.15V13.6365L85.1232 13.487L85.4092 11.5175C85.4265 11.4438 85.459 11.3875 85.5067 11.3485C85.5587 11.3052 85.6237 11.2835 85.7017 11.2835H86.3452V13.5H88.2172V14.423H86.3452V18.2905C86.3452 18.5505 86.408 18.7455 86.5337 18.8755C86.6637 19.0012 86.8283 19.064 87.0277 19.064C87.1447 19.064 87.2443 19.0488 87.3267 19.0185C87.4133 18.9882 87.487 18.9557 87.5477 18.921C87.6083 18.882 87.6603 18.8473 87.7037 18.817C87.747 18.7867 87.786 18.7715 87.8207 18.7715C87.864 18.7715 87.8965 18.7823 87.9182 18.804C87.9442 18.8213 87.9702 18.8517 87.9962 18.895L88.3732 19.506C88.1652 19.6967 87.9182 19.844 87.6322 19.948C87.3462 20.052 87.0493 20.104 86.7417 20.104Z" fill="#878787"/>
<mask id="mask0" mask-type="alpha" maskUnits="userSpaceOnUse" x="5" y="8" width="20" height="14">
<path fill-rule="evenodd" clip-rule="evenodd" d="M22 12H5V14H22V12ZM22 8H5V10H22V8ZM5 18H18V16H5V18ZM20 16V22L25 19L20 16Z" fill="white"/>
</mask>
<g mask="url(#mask0)">
</g>
<path d="M27 19.4055C27 18.4901 26.4104 17.7169 25.5938 17.4257V10.1416L27 9.56179L15 4.74707L3 9.56179L15 14.3766L24.1875 10.7062V17.4257C23.3708 17.7169 22.7812 18.4901 22.7812 19.4055C22.7812 20.2437 23.2762 20.9631 23.986 21.3031L22.8177 24.8081L24.1511 25.253L24.8906 23.0345L25.6301 25.253L26.9636 24.8081L25.7953 21.3031C26.505 20.9631 27 20.2437 27 19.4055Z" fill="#CCCCCC"/>
<path d="M15 15.8921L8.67188 13.3511V15.1869C8.67188 17.1912 11.3924 18.7025 15 18.7025C18.6076 18.7025 21.3281 17.1912 21.3281 15.1869V13.3511L15 15.8921Z" fill="#CCCCCC"/>
</svg>
