<svg width="107" height="30" viewBox="0 0 107 30" fill="none" xmlns="http://www.w3.org/2000/svg">
<path d="M46.4625 20C46.3455 20 46.2372 19.9783 46.1375 19.935C46.0422 19.8917 45.9577 19.8332 45.884 19.7595C45.8147 19.6815 45.7605 19.5905 45.7215 19.4865C45.6825 19.3825 45.663 19.2698 45.663 19.1485C45.663 19.0445 45.6825 18.947 45.7215 18.856C45.7605 18.7607 45.8147 18.6783 45.884 18.609C45.9577 18.5397 46.0443 18.4855 46.144 18.4465C46.2437 18.4032 46.3542 18.3815 46.4755 18.3815C46.6142 18.3815 46.7355 18.4075 46.8395 18.4595C46.9478 18.5072 47.0367 18.5765 47.106 18.6675C47.1797 18.7542 47.2338 18.856 47.2685 18.973C47.3032 19.09 47.3205 19.2157 47.3205 19.35C47.3205 19.545 47.2923 19.7508 47.236 19.9675C47.1797 20.1842 47.0973 20.3987 46.989 20.611C46.8807 20.8233 46.7463 21.0292 46.586 21.2285C46.4257 21.4278 46.2437 21.612 46.04 21.781L45.8255 21.5795C45.7605 21.5188 45.728 21.4517 45.728 21.378C45.728 21.3477 45.7367 21.3152 45.754 21.2805C45.7757 21.2502 45.8017 21.2198 45.832 21.1895C45.8753 21.1418 45.9317 21.079 46.001 21.001C46.0703 20.923 46.1375 20.832 46.2025 20.728C46.2718 20.6283 46.3347 20.5157 46.391 20.39C46.4517 20.2687 46.495 20.1387 46.521 20H46.4625ZM58.9362 10.666V20H57.7272V13.357C57.7272 13.2573 57.7294 13.1512 57.7337 13.0385C57.7424 12.9258 57.751 12.811 57.7597 12.694L54.6527 18.3945C54.5444 18.6068 54.3775 18.713 54.1522 18.713H53.9572C53.7319 18.713 53.5672 18.6068 53.4632 18.3945L50.2977 12.6745C50.3237 12.9172 50.3367 13.1447 50.3367 13.357V20H49.1212V10.666H50.1482C50.2695 10.666 50.3627 10.679 50.4277 10.705C50.497 10.7267 50.562 10.7917 50.6227 10.9L53.7427 16.49C53.8034 16.6027 53.8597 16.7218 53.9117 16.8475C53.9637 16.9732 54.0135 17.0988 54.0612 17.2245C54.1522 16.9688 54.2584 16.7218 54.3797 16.4835L57.4412 10.9C57.4975 10.7917 57.5582 10.7267 57.6232 10.705C57.6925 10.679 57.7879 10.666 57.9092 10.666H58.9362ZM66.6176 13.396L62.9516 21.9175C62.9126 22.0128 62.8606 22.0865 62.7956 22.1385C62.7306 22.1905 62.6352 22.2165 62.5096 22.2165H61.5671L62.7761 19.584L60.0656 13.396H61.1706C61.2789 13.396 61.3634 13.422 61.4241 13.474C61.4847 13.526 61.5281 13.5845 61.5541 13.6495L63.2311 17.6145C63.2657 17.7142 63.2982 17.816 63.3286 17.92C63.3632 18.0197 63.3914 18.1193 63.4131 18.219C63.4434 18.115 63.4759 18.0132 63.5106 17.9135C63.5452 17.8095 63.5821 17.7077 63.6211 17.608L65.2396 13.6495C65.2699 13.5758 65.3176 13.5152 65.3826 13.4675C65.4476 13.4198 65.5212 13.396 65.6036 13.396H66.6176ZM73.645 15.4695C73.996 15.4695 74.3037 15.424 74.568 15.333C74.8367 15.242 75.0598 15.1142 75.2375 14.9495C75.4195 14.7805 75.556 14.5812 75.647 14.3515C75.738 14.1175 75.7835 13.8597 75.7835 13.578C75.7835 13.0103 75.6058 12.564 75.2505 12.239C74.8995 11.914 74.3643 11.7515 73.645 11.7515H72.202V15.4695H73.645ZM73.645 10.666C74.243 10.666 74.763 10.7353 75.205 10.874C75.647 11.0127 76.0132 11.2098 76.3035 11.4655C76.5938 11.7168 76.8083 12.0223 76.947 12.382C77.09 12.7417 77.1615 13.1403 77.1615 13.578C77.1615 14.0157 77.0857 14.4187 76.934 14.787C76.7823 15.151 76.5592 15.4652 76.2645 15.7295C75.9698 15.9938 75.6015 16.1997 75.1595 16.347C74.7218 16.49 74.217 16.5615 73.645 16.5615H72.202V20H70.8175V10.666H73.645ZM79.5103 14.6635C79.7227 14.2302 79.9783 13.89 80.2773 13.643C80.5763 13.396 80.936 13.2725 81.3563 13.2725C81.4993 13.2725 81.6337 13.2898 81.7593 13.3245C81.8893 13.3548 82.002 13.4025 82.0973 13.4675L82.0128 14.423C81.9825 14.54 81.911 14.5985 81.7983 14.5985C81.7377 14.5985 81.6467 14.5877 81.5253 14.566C81.404 14.54 81.274 14.527 81.1353 14.527C80.9317 14.527 80.7518 14.5573 80.5958 14.618C80.4398 14.6743 80.299 14.761 80.1733 14.878C80.052 14.9907 79.9437 15.1315 79.8483 15.3005C79.753 15.4652 79.6642 15.6537 79.5818 15.866V20H78.3143V13.396H79.0423C79.181 13.396 79.2742 13.422 79.3218 13.474C79.3738 13.5217 79.4107 13.6083 79.4323 13.734L79.5103 14.6635ZM85.6484 13.292C86.1337 13.292 86.5714 13.3722 86.9614 13.5325C87.3557 13.6885 87.6894 13.916 87.9624 14.215C88.2397 14.5097 88.452 14.8672 88.5994 15.2875C88.7467 15.7035 88.8204 16.1715 88.8204 16.6915C88.8204 17.2115 88.7467 17.6817 88.5994 18.102C88.452 18.5223 88.2397 18.8798 87.9624 19.1745C87.6894 19.4692 87.3557 19.6967 86.9614 19.857C86.5714 20.013 86.1337 20.091 85.6484 20.091C85.1587 20.091 84.7167 20.013 84.3224 19.857C83.9324 19.6967 83.5987 19.4692 83.3214 19.1745C83.044 18.8798 82.8295 18.5223 82.6779 18.102C82.5305 17.6817 82.4569 17.2115 82.4569 16.6915C82.4569 16.1715 82.5305 15.7035 82.6779 15.2875C82.8295 14.8672 83.044 14.5097 83.3214 14.215C83.5987 13.916 83.9324 13.6885 84.3224 13.5325C84.7167 13.3722 85.1587 13.292 85.6484 13.292ZM85.6484 19.103C86.2724 19.103 86.7382 18.8928 87.0459 18.4725C87.3535 18.0522 87.5074 17.4607 87.5074 16.698C87.5074 15.9353 87.3535 15.3438 87.0459 14.9235C86.7382 14.4988 86.2724 14.2865 85.6484 14.2865C85.0157 14.2865 84.5434 14.4988 84.2314 14.9235C83.9237 15.3438 83.7699 15.9353 83.7699 16.698C83.7699 17.4607 83.9237 18.0522 84.2314 18.4725C84.5434 18.8928 85.0157 19.103 85.6484 19.103ZM90.5249 20V14.436L89.8359 14.3515C89.7362 14.3298 89.6539 14.2952 89.5889 14.2475C89.5282 14.1955 89.4979 14.1218 89.4979 14.0265V13.5H90.5249V13.1815C90.5249 12.7785 90.5877 12.408 90.7134 12.07C90.8434 11.7277 91.0362 11.433 91.2919 11.186C91.5519 10.939 91.8725 10.7483 92.2539 10.614C92.6395 10.4753 93.0902 10.406 93.6059 10.406C93.7705 10.406 93.9439 10.4168 94.1259 10.4385C94.3079 10.4602 94.4617 10.4927 94.5874 10.536L94.5419 11.199C94.5332 11.2857 94.479 11.3312 94.3794 11.3355C94.2797 11.3398 94.141 11.342 93.9634 11.342C93.569 11.342 93.2332 11.381 92.9559 11.459C92.6785 11.537 92.451 11.654 92.2734 11.81C92.0957 11.966 91.9657 12.1632 91.8834 12.4015C91.801 12.6355 91.7599 12.9085 91.7599 13.2205V13.5H95.7769V20H94.5029V14.423H91.7989V20H90.5249ZM98.9112 10.406V20H97.6372V10.406H98.9112ZM105.096 15.9635C105.096 15.7122 105.059 15.4803 104.986 15.268C104.916 15.0557 104.812 14.8715 104.674 14.7155C104.535 14.5595 104.366 14.4382 104.167 14.3515C103.967 14.2648 103.738 14.2215 103.478 14.2215C102.945 14.2215 102.524 14.3753 102.217 14.683C101.913 14.9907 101.72 15.4175 101.638 15.9635H105.096ZM106.143 19.0575C105.987 19.2395 105.807 19.3977 105.603 19.532C105.399 19.662 105.183 19.7682 104.953 19.8505C104.723 19.9328 104.485 19.9935 104.238 20.0325C103.995 20.0715 103.755 20.091 103.517 20.091C103.062 20.091 102.639 20.0152 102.249 19.8635C101.863 19.7075 101.528 19.4822 101.242 19.1875C100.96 18.8885 100.739 18.5202 100.579 18.0825C100.423 17.6405 100.345 17.1335 100.345 16.5615C100.345 16.1022 100.416 15.6753 100.559 15.281C100.702 14.8823 100.906 14.5357 101.17 14.241C101.439 13.9463 101.766 13.7145 102.152 13.5455C102.537 13.3765 102.971 13.292 103.452 13.292C103.855 13.292 104.225 13.3592 104.563 13.4935C104.905 13.6235 105.2 13.8142 105.447 14.0655C105.694 14.3168 105.887 14.6267 106.026 14.995C106.169 15.3633 106.24 15.7837 106.24 16.256C106.24 16.451 106.218 16.5832 106.175 16.6525C106.132 16.7175 106.052 16.75 105.935 16.75H101.606C101.619 17.1443 101.675 17.4888 101.775 17.7835C101.874 18.0738 102.011 18.3165 102.184 18.5115C102.362 18.7065 102.572 18.8517 102.815 18.947C103.057 19.0423 103.328 19.09 103.627 19.09C103.909 19.09 104.151 19.0575 104.355 18.9925C104.563 18.9275 104.741 18.8582 104.888 18.7845C105.04 18.7065 105.165 18.635 105.265 18.57C105.369 18.505 105.46 18.4725 105.538 18.4725C105.642 18.4725 105.722 18.5115 105.779 18.5895L106.143 19.0575Z" fill="#878787"/>
<mask id="mask0" mask-type="alpha" maskUnits="userSpaceOnUse" x="5" y="5" width="20" height="20">
<path fill-rule="evenodd" clip-rule="evenodd" d="M15 5C9.48 5 5 9.48 5 15C5 20.52 9.48 25 15 25C20.52 25 25 20.52 25 15C25 9.48 20.52 5 15 5ZM15 8C16.66 8 18 9.34 18 11C18 12.66 16.66 14 15 14C13.34 14 12 12.66 12 11C12 9.34 13.34 8 15 8ZM15 22.2C12.5 22.2 10.29 20.92 9 18.98C9.03 16.99 13 15.9 15 15.9C16.99 15.9 20.97 16.99 21 18.98C19.71 20.92 17.5 22.2 15 22.2Z" fill="white"/>
</mask>
<g mask="url(#mask0)">
<rect x="2" y="2" width="26" height="26" fill="#CCCCCC"/>
</g>
</svg>
