<svg width="90" height="30" viewBox="0 0 90 30" fill="none" xmlns="http://www.w3.org/2000/svg">
<path d="M49.98 12.187C49.9367 12.2607 49.8912 12.3148 49.8435 12.3495C49.7958 12.3842 49.7352 12.4015 49.6615 12.4015C49.5835 12.4015 49.4947 12.3668 49.395 12.2975C49.2953 12.2238 49.1697 12.1437 49.018 12.057C48.8707 11.966 48.693 11.8858 48.485 11.8165C48.277 11.7428 48.0278 11.706 47.7375 11.706C47.4645 11.706 47.224 11.7428 47.016 11.8165C46.8123 11.8858 46.6412 11.9833 46.5025 12.109C46.3638 12.2303 46.2577 12.3755 46.184 12.5445C46.1147 12.7092 46.08 12.889 46.08 13.084C46.08 13.3353 46.1428 13.5433 46.2685 13.708C46.3985 13.8727 46.5675 14.0135 46.7755 14.1305C46.9835 14.2475 47.2197 14.3493 47.484 14.436C47.7483 14.5227 48.0192 14.6137 48.2965 14.709C48.5738 14.8 48.8447 14.9062 49.109 15.0275C49.3733 15.1488 49.6095 15.3027 49.8175 15.489C50.0255 15.671 50.1923 15.8963 50.318 16.165C50.448 16.4293 50.513 16.7543 50.513 17.14C50.513 17.5517 50.4415 17.9373 50.2985 18.297C50.1598 18.6567 49.9562 18.9708 49.6875 19.2395C49.4188 19.5082 49.0873 19.7205 48.693 19.8765C48.303 20.0282 47.8588 20.104 47.3605 20.104C47.0615 20.104 46.7712 20.0737 46.4895 20.013C46.2078 19.9567 45.9413 19.8765 45.69 19.7725C45.4387 19.6642 45.2025 19.5363 44.9815 19.389C44.7648 19.2373 44.5698 19.0683 44.3965 18.882L44.793 18.219C44.832 18.167 44.8775 18.1237 44.9295 18.089C44.9858 18.0543 45.0487 18.037 45.118 18.037C45.209 18.037 45.313 18.0847 45.43 18.18C45.5513 18.2753 45.6987 18.3815 45.872 18.4985C46.0497 18.6112 46.2598 18.7152 46.5025 18.8105C46.7495 18.9058 47.0485 18.9535 47.3995 18.9535C47.6855 18.9535 47.9412 18.9167 48.1665 18.843C48.3918 18.765 48.5803 18.6567 48.732 18.518C48.888 18.375 49.0072 18.2038 49.0895 18.0045C49.1718 17.8052 49.213 17.5842 49.213 17.3415C49.213 17.0685 49.1502 16.8453 49.0245 16.672C48.8988 16.4987 48.732 16.3535 48.524 16.2365C48.316 16.1195 48.0798 16.0198 47.8155 15.9375C47.5512 15.8552 47.2803 15.7707 47.003 15.684C46.7257 15.593 46.4548 15.489 46.1905 15.372C45.9262 15.255 45.69 15.1033 45.482 14.917C45.274 14.7263 45.1072 14.4902 44.9815 14.2085C44.8558 13.9225 44.793 13.5715 44.793 13.1555C44.793 12.8218 44.858 12.499 44.988 12.187C45.118 11.875 45.3065 11.5998 45.5535 11.3615C45.8048 11.1188 46.1125 10.926 46.4765 10.783C46.8405 10.6357 47.2565 10.562 47.7245 10.562C48.2488 10.562 48.7298 10.6465 49.1675 10.8155C49.6095 10.9802 49.993 11.2185 50.318 11.5305L49.98 12.187ZM56.2982 15.9635C56.2982 15.7122 56.2614 15.4803 56.1877 15.268C56.1184 15.0557 56.0144 14.8715 55.8757 14.7155C55.737 14.5595 55.568 14.4382 55.3687 14.3515C55.1694 14.2648 54.9397 14.2215 54.6797 14.2215C54.1467 14.2215 53.7264 14.3753 53.4187 14.683C53.1154 14.9907 52.9225 15.4175 52.8402 15.9635H56.2982ZM57.3447 19.0575C57.1887 19.2395 57.0089 19.3977 56.8052 19.532C56.6015 19.662 56.3849 19.7682 56.1552 19.8505C55.9255 19.9328 55.6872 19.9935 55.4402 20.0325C55.1975 20.0715 54.957 20.091 54.7187 20.091C54.2637 20.091 53.8412 20.0152 53.4512 19.8635C53.0655 19.7075 52.7297 19.4822 52.4437 19.1875C52.162 18.8885 51.941 18.5202 51.7807 18.0825C51.6247 17.6405 51.5467 17.1335 51.5467 16.5615C51.5467 16.1022 51.6182 15.6753 51.7612 15.281C51.9042 14.8823 52.1079 14.5357 52.3722 14.241C52.6409 13.9463 52.968 13.7145 53.3537 13.5455C53.7394 13.3765 54.1727 13.292 54.6537 13.292C55.0567 13.292 55.4272 13.3592 55.7652 13.4935C56.1075 13.6235 56.4022 13.8142 56.6492 14.0655C56.8962 14.3168 57.089 14.6267 57.2277 14.995C57.3707 15.3633 57.4422 15.7837 57.4422 16.256C57.4422 16.451 57.4205 16.5832 57.3772 16.6525C57.3339 16.7175 57.2537 16.75 57.1367 16.75H52.8077C52.8207 17.1443 52.877 17.4888 52.9767 17.7835C53.0764 18.0738 53.2129 18.3165 53.3862 18.5115C53.5639 18.7065 53.774 18.8517 54.0167 18.947C54.2594 19.0423 54.5302 19.09 54.8292 19.09C55.1109 19.09 55.3535 19.0575 55.5572 18.9925C55.7652 18.9275 55.9429 18.8582 56.0902 18.7845C56.2419 18.7065 56.3675 18.635 56.4672 18.57C56.5712 18.505 56.6622 18.4725 56.7402 18.4725C56.8442 18.4725 56.9244 18.5115 56.9807 18.5895L57.3447 19.0575ZM69.1278 20H67.8538V14.423H64.6688V18.2905C64.6688 18.5505 64.7316 18.7455 64.8573 18.8755C64.9829 19.0012 65.1476 19.064 65.3513 19.064C65.4683 19.064 65.5679 19.0488 65.6503 19.0185C65.7369 18.9882 65.8106 18.9557 65.8713 18.921C65.9319 18.882 65.9839 18.8473 66.0273 18.817C66.0706 18.7867 66.1096 18.7715 66.1443 18.7715C66.1833 18.7715 66.2158 18.7823 66.2418 18.804C66.2678 18.8213 66.2938 18.8517 66.3198 18.895L66.6968 19.506C66.4888 19.6967 66.2396 19.844 65.9493 19.948C65.6633 20.052 65.3664 20.104 65.0588 20.104C64.5258 20.104 64.1141 19.9545 63.8238 19.6555C63.5378 19.3565 63.3948 18.9297 63.3948 18.375V14.423H60.4243V18.2905C60.4243 18.5505 60.4871 18.7455 60.6128 18.8755C60.7428 19.0012 60.9074 19.064 61.1068 19.064C61.2238 19.064 61.3234 19.0488 61.4058 19.0185C61.4924 18.9882 61.5661 18.9557 61.6268 18.921C61.6874 18.882 61.7394 18.8473 61.7828 18.817C61.8261 18.7867 61.8651 18.7715 61.8998 18.7715C61.9431 18.7715 61.9756 18.7823 61.9973 18.804C62.0233 18.8213 62.0493 18.8517 62.0753 18.895L62.4523 19.506C62.2443 19.6967 61.9973 19.844 61.7113 19.948C61.4253 20.052 61.1284 20.104 60.8208 20.104C60.2878 20.104 59.8761 19.9545 59.5858 19.6555C59.2998 19.3565 59.1568 18.9297 59.1568 18.375V14.423H58.3898C58.3161 14.423 58.2533 14.4013 58.2013 14.358C58.1536 14.3103 58.1298 14.241 58.1298 14.15V13.6365L59.2088 13.487L59.4883 11.5175C59.5056 11.4438 59.5381 11.3875 59.5858 11.3485C59.6378 11.3052 59.7028 11.2835 59.7808 11.2835H60.4243V13.5H63.4403L63.7328 11.5175C63.7458 11.4438 63.7761 11.3875 63.8238 11.3485C63.8758 11.3052 63.9408 11.2835 64.0188 11.2835H64.6688V13.5H69.1278V20ZM69.3878 11.316C69.3878 11.433 69.3639 11.5457 69.3163 11.654C69.2686 11.758 69.2036 11.8512 69.1213 11.9335C69.0433 12.0115 68.9501 12.0743 68.8418 12.122C68.7334 12.1653 68.6208 12.187 68.5038 12.187C68.3868 12.187 68.2763 12.1653 68.1723 12.122C68.0683 12.0743 67.9751 12.0115 67.8928 11.9335C67.8148 11.8512 67.7519 11.758 67.7043 11.654C67.6609 11.5457 67.6393 11.433 67.6393 11.316C67.6393 11.1947 67.6609 11.0798 67.7043 10.9715C67.7519 10.8632 67.8148 10.77 67.8928 10.692C67.9751 10.6097 68.0683 10.5468 68.1723 10.5035C68.2763 10.4558 68.3868 10.432 68.5038 10.432C68.6208 10.432 68.7334 10.4558 68.8418 10.5035C68.9501 10.5468 69.0433 10.6097 69.1213 10.692C69.2036 10.77 69.2686 10.8632 69.3163 10.9715C69.3639 11.0798 69.3878 11.1947 69.3878 11.316ZM72.1562 14.3125C72.2992 14.1608 72.4487 14.0222 72.6047 13.8965C72.7607 13.7708 72.9253 13.6647 73.0987 13.578C73.2763 13.487 73.4648 13.4177 73.6642 13.37C73.8678 13.318 74.0845 13.292 74.3142 13.292C74.6782 13.292 74.9967 13.3527 75.2697 13.474C75.547 13.5953 75.7788 13.7665 75.9652 13.9875C76.1515 14.2042 76.2923 14.4663 76.3877 14.774C76.483 15.0817 76.5307 15.4218 76.5307 15.7945V20H75.2567V15.7945C75.2567 15.3222 75.1483 14.956 74.9317 14.696C74.715 14.4317 74.3835 14.2995 73.9372 14.2995C73.6122 14.2995 73.3067 14.3775 73.0207 14.5335C72.739 14.6852 72.4768 14.8932 72.2342 15.1575V20H70.9667V13.396H71.7272C71.9048 13.396 72.0153 13.4805 72.0587 13.6495L72.1562 14.3125ZM80.5616 16.7045C80.7869 16.7045 80.9841 16.6742 81.1531 16.6135C81.3264 16.5528 81.4694 16.4683 81.5821 16.36C81.6991 16.2473 81.7858 16.113 81.8421 15.957C81.9028 15.801 81.9331 15.6298 81.9331 15.4435C81.9331 15.0622 81.8161 14.7588 81.5821 14.5335C81.3524 14.3038 81.0123 14.189 80.5616 14.189C80.1153 14.189 79.7751 14.3038 79.5411 14.5335C79.3114 14.7588 79.1966 15.0622 79.1966 15.4435C79.1966 15.6298 79.2248 15.801 79.2811 15.957C79.3418 16.1087 79.4284 16.2408 79.5411 16.3535C79.6581 16.4618 79.8011 16.5485 79.9701 16.6135C80.1434 16.6742 80.3406 16.7045 80.5616 16.7045ZM82.5831 20.3445C82.5831 20.1885 82.5398 20.065 82.4531 19.974C82.3664 19.8787 82.2473 19.805 82.0956 19.753C81.9483 19.6967 81.7749 19.6577 81.5756 19.636C81.3763 19.61 81.1661 19.5905 80.9451 19.5775C80.7284 19.5645 80.5053 19.5537 80.2756 19.545C80.0459 19.532 79.8249 19.5103 79.6126 19.48C79.3873 19.5927 79.2009 19.7292 79.0536 19.8895C78.9106 20.0498 78.8391 20.2383 78.8391 20.455C78.8391 20.5937 78.8738 20.7237 78.9431 20.845C79.0168 20.9663 79.1273 21.0703 79.2746 21.157C79.4263 21.248 79.6148 21.3173 79.8401 21.365C80.0698 21.417 80.3428 21.443 80.6591 21.443C80.9711 21.443 81.2463 21.4148 81.4846 21.3585C81.7229 21.3065 81.9223 21.2307 82.0826 21.131C82.2473 21.0357 82.3708 20.9208 82.4531 20.7865C82.5398 20.6522 82.5831 20.5048 82.5831 20.3445ZM83.8701 13.643V14.1175C83.8701 14.2735 83.7726 14.371 83.5776 14.41L82.8691 14.514C82.9298 14.6483 82.9774 14.7913 83.0121 14.943C83.0468 15.0903 83.0641 15.2463 83.0641 15.411C83.0641 15.736 83.0013 16.0307 82.8756 16.295C82.7499 16.555 82.5766 16.7782 82.3556 16.9645C82.1346 17.1508 81.8703 17.2938 81.5626 17.3935C81.2593 17.4932 80.9256 17.543 80.5616 17.543C80.2626 17.543 79.9831 17.5105 79.7231 17.4455C79.5931 17.5235 79.4934 17.6102 79.4241 17.7055C79.3591 17.7965 79.3266 17.8875 79.3266 17.9785C79.3266 18.1302 79.3894 18.2428 79.5151 18.3165C79.6451 18.3902 79.8119 18.4443 80.0156 18.479C80.2236 18.5093 80.4598 18.5288 80.7241 18.5375C80.9928 18.5462 81.2636 18.5613 81.5366 18.583C81.8139 18.6003 82.0848 18.635 82.3491 18.687C82.6178 18.7347 82.8539 18.8148 83.0576 18.9275C83.2656 19.0358 83.4324 19.1875 83.5581 19.3825C83.6881 19.5732 83.7531 19.8223 83.7531 20.13C83.7531 20.416 83.6816 20.6933 83.5386 20.962C83.3999 21.2307 83.1963 21.469 82.9276 21.677C82.6589 21.885 82.3318 22.0518 81.9461 22.1775C81.5604 22.3032 81.1228 22.366 80.6331 22.366C80.1434 22.366 79.7166 22.3183 79.3526 22.223C78.9929 22.1277 78.6918 21.9998 78.4491 21.8395C78.2108 21.6792 78.0309 21.4928 77.9096 21.2805C77.7926 21.0682 77.7341 20.8472 77.7341 20.6175C77.7341 20.2968 77.8338 20.026 78.0331 19.805C78.2324 19.5797 78.5076 19.4042 78.8586 19.2785C78.6679 19.1918 78.5163 19.0748 78.4036 18.9275C78.2909 18.7758 78.2346 18.5765 78.2346 18.3295C78.2346 18.2342 78.2519 18.1367 78.2866 18.037C78.3213 17.933 78.3733 17.8312 78.4426 17.7315C78.5163 17.6275 78.6051 17.53 78.7091 17.439C78.8174 17.348 78.9409 17.2657 79.0796 17.192C78.7546 17.01 78.4989 16.7695 78.3126 16.4705C78.1263 16.1672 78.0331 15.814 78.0331 15.411C78.0331 15.086 78.0959 14.7935 78.2216 14.5335C78.3473 14.2735 78.5206 14.0503 78.7416 13.864C78.9669 13.6777 79.2334 13.5347 79.5411 13.435C79.8531 13.3353 80.1933 13.2855 80.5616 13.2855C81.1336 13.2855 81.6254 13.4047 82.0371 13.643H83.8701ZM88.9266 14.5335C88.8919 14.5898 88.8551 14.631 88.8161 14.657C88.7771 14.6787 88.7272 14.6895 88.6666 14.6895C88.5972 14.6895 88.5192 14.6657 88.4326 14.618C88.3502 14.5703 88.2484 14.5183 88.1271 14.462C88.0101 14.4057 87.8714 14.3537 87.7111 14.306C87.5507 14.2583 87.3601 14.2345 87.1391 14.2345C86.9571 14.2345 86.7902 14.2583 86.6386 14.306C86.4912 14.3493 86.3656 14.4122 86.2616 14.4945C86.1576 14.5725 86.0774 14.6678 86.0211 14.7805C85.9647 14.8888 85.9366 15.0058 85.9366 15.1315C85.9366 15.2962 85.9842 15.4327 86.0796 15.541C86.1792 15.6493 86.3071 15.7425 86.4631 15.8205C86.6234 15.8985 86.8032 15.97 87.0026 16.035C87.2062 16.0957 87.4121 16.1607 87.6201 16.23C87.8324 16.2993 88.0382 16.3795 88.2376 16.4705C88.4412 16.5572 88.6211 16.6677 88.7771 16.802C88.9374 16.932 89.0652 17.0902 89.1606 17.2765C89.2602 17.4628 89.3101 17.6903 89.3101 17.959C89.3101 18.2667 89.2537 18.5527 89.1411 18.817C89.0327 19.077 88.8702 19.3023 88.6536 19.493C88.4412 19.6837 88.1769 19.8332 87.8606 19.9415C87.5442 20.0498 87.1824 20.104 86.7751 20.104C86.3201 20.104 85.8997 20.0282 85.5141 19.8765C85.1284 19.7248 84.8056 19.532 84.5456 19.298L84.8446 18.8105C84.8792 18.7498 84.9226 18.7043 84.9746 18.674C85.0266 18.6393 85.0959 18.622 85.1826 18.622C85.2649 18.622 85.3494 18.6523 85.4361 18.713C85.5227 18.7737 85.6267 18.8408 85.7481 18.9145C85.8694 18.9838 86.0167 19.0488 86.1901 19.1095C86.3634 19.1658 86.5801 19.194 86.8401 19.194C87.0567 19.194 87.2452 19.168 87.4056 19.116C87.5659 19.0597 87.6981 18.986 87.8021 18.895C87.9104 18.7997 87.9906 18.6913 88.0426 18.57C88.0946 18.4487 88.1206 18.3208 88.1206 18.1865C88.1206 18.0132 88.0707 17.8702 87.9711 17.7575C87.8757 17.6405 87.7479 17.5408 87.5876 17.4585C87.4316 17.3762 87.2517 17.3047 87.0481 17.244C86.8444 17.1833 86.6364 17.1183 86.4241 17.049C86.2117 16.9797 86.0037 16.8995 85.8001 16.8085C85.5964 16.7175 85.4144 16.6027 85.2541 16.464C85.0981 16.3253 84.9702 16.1563 84.8706 15.957C84.7752 15.7577 84.7276 15.515 84.7276 15.229C84.7276 14.9733 84.7796 14.7285 84.8836 14.4945C84.9919 14.2605 85.1457 14.0547 85.3451 13.877C85.5487 13.6993 85.7979 13.5585 86.0926 13.4545C86.3916 13.3462 86.7317 13.292 87.1131 13.292C87.5507 13.292 87.9451 13.3613 88.2961 13.5C88.6514 13.6387 88.9547 13.8293 89.2061 14.072L88.9266 14.5335Z" fill="#878787"/>
<mask id="mask0" mask-type="alpha" maskUnits="userSpaceOnUse" x="5" y="5" width="20" height="20">
<path fill-rule="evenodd" clip-rule="evenodd" d="M22.1593 15.98C22.1993 15.66 22.2293 15.34 22.2293 15C22.2293 14.66 22.1993 14.34 22.1593 14.02L24.2693 12.37C24.4593 12.22 24.5093 11.95 24.3893 11.73L22.3893 8.27C22.2693 8.05 21.9993 7.97 21.7793 8.05L19.2893 9.05C18.7693 8.65 18.2093 8.32 17.5993 8.07L17.2193 5.42C17.1893 5.18 16.9793 5 16.7293 5H12.7293C12.4793 5 12.2693 5.18 12.2393 5.42L11.8593 8.07C11.2493 8.32 10.6893 8.66 10.1693 9.05L7.67933 8.05C7.44933 7.96 7.18933 8.05 7.06933 8.27L5.06933 11.73C4.93933 11.95 4.99933 12.22 5.18933 12.37L7.29933 14.02C7.25933 14.34 7.22933 14.67 7.22933 15C7.22933 15.33 7.25933 15.66 7.29933 15.98L5.18933 17.63C4.99933 17.78 4.94933 18.05 5.06933 18.27L7.06933 21.73C7.18933 21.95 7.45933 22.03 7.67933 21.95L10.1693 20.95C10.6893 21.35 11.2493 21.68 11.8593 21.93L12.2393 24.58C12.2693 24.82 12.4793 25 12.7293 25H16.7293C16.9793 25 17.1893 24.82 17.2193 24.58L17.5993 21.93C18.2093 21.68 18.7693 21.34 19.2893 20.95L21.7793 21.95C22.0093 22.04 22.2693 21.95 22.3893 21.73L24.3893 18.27C24.5093 18.05 24.4593 17.78 24.2693 17.63L22.1593 15.98ZM14.7293 18.5C12.7993 18.5 11.2293 16.93 11.2293 15C11.2293 13.07 12.7993 11.5 14.7293 11.5C16.6593 11.5 18.2293 13.07 18.2293 15C18.2293 16.93 16.6593 18.5 14.7293 18.5Z" fill="white"/>
</mask>
<g mask="url(#mask0)">
<rect x="2" y="2" width="26" height="26" fill="#CCCCCC"/>
</g>
</svg>
