<svg width="53" height="20" viewBox="0 0 53 20" fill="none" xmlns="http://www.w3.org/2000/svg">
<path d="M0.448307 10.6503L9.65238 18.7039C9.9481 18.9616 10.3178 19.0905 10.6874 19.0905C11.057 19.0905 11.4267 18.9616 11.7224 18.7039C12.3138 18.1885 12.3138 17.3831 11.7224 16.8677L5.03186 11.0046H26.619C27.4322 11.0046 28.0975 10.4248 28.0975 9.71605C28.0975 9.00732 27.4322 8.42746 26.619 8.42746H5.03186L11.7224 2.5644C12.3138 2.04896 12.3138 1.24359 11.7224 0.728159C11.131 0.212725 10.2069 0.212725 9.61543 0.728159L0.411329 8.78182C-0.143135 9.32947 -0.14312 10.167 0.448307 10.6503Z" fill="#9A9A9A"/>
<rect width="50" height="2.87991" rx="1.43996" transform="matrix(-1 0 0 1 52.6854 8.29059)" fill="#9A9A9A"/>
</svg>
