<svg width="419" height="552" viewBox="0 0 419 552" fill="none" xmlns="http://www.w3.org/2000/svg">
<rect x="34" y="28" width="350" height="467" fill="#4B3C99"/>
<rect x="34" y="28" width="350" height="467" fill="black" fill-opacity="0.2"/>
<g filter="url(#filter0_f)">
<rect x="48" y="48" width="323" height="456" fill="#10375C" fill-opacity="0.3"/>
</g>
<path d="M112.947 236.678H108.843V248H106.935V236.678H102.813V235.076H112.947V236.678ZM116.163 238.712C116.835 238.712 117.441 238.823 117.981 239.045C118.527 239.261 118.989 239.576 119.367 239.99C119.751 240.398 120.045 240.893 120.249 241.475C120.453 242.051 120.555 242.699 120.555 243.419C120.555 244.139 120.453 244.79 120.249 245.372C120.045 245.954 119.751 246.449 119.367 246.857C118.989 247.265 118.527 247.58 117.981 247.802C117.441 248.018 116.835 248.126 116.163 248.126C115.485 248.126 114.873 248.018 114.327 247.802C113.787 247.58 113.325 247.265 112.941 246.857C112.557 246.449 112.26 245.954 112.05 245.372C111.846 244.79 111.744 244.139 111.744 243.419C111.744 242.699 111.846 242.051 112.05 241.475C112.26 240.893 112.557 240.398 112.941 239.99C113.325 239.576 113.787 239.261 114.327 239.045C114.873 238.823 115.485 238.712 116.163 238.712ZM116.163 246.758C117.027 246.758 117.672 246.467 118.098 245.885C118.524 245.303 118.737 244.484 118.737 243.428C118.737 242.372 118.524 241.553 118.098 240.971C117.672 240.383 117.027 240.089 116.163 240.089C115.287 240.089 114.633 240.383 114.201 240.971C113.775 241.553 113.562 242.372 113.562 243.428C113.562 244.484 113.775 245.303 114.201 245.885C114.633 246.467 115.287 246.758 116.163 246.758ZM124.269 245.75C124.557 246.128 124.866 246.392 125.196 246.542C125.532 246.692 125.907 246.767 126.321 246.767C127.125 246.767 127.746 246.479 128.184 245.903C128.628 245.321 128.85 244.475 128.85 243.365C128.85 242.783 128.799 242.288 128.697 241.88C128.601 241.466 128.457 241.13 128.265 240.872C128.079 240.608 127.848 240.416 127.572 240.296C127.296 240.17 126.984 240.107 126.636 240.107C126.126 240.107 125.682 240.221 125.304 240.449C124.932 240.677 124.587 241.001 124.269 241.421V245.75ZM124.179 240.224C124.371 239.996 124.575 239.789 124.791 239.603C125.013 239.411 125.25 239.249 125.502 239.117C125.754 238.979 126.021 238.874 126.303 238.802C126.591 238.724 126.897 238.685 127.221 238.685C127.743 238.685 128.214 238.787 128.634 238.991C129.06 239.195 129.423 239.495 129.723 239.891C130.023 240.287 130.254 240.776 130.416 241.358C130.584 241.94 130.668 242.609 130.668 243.365C130.668 244.043 130.575 244.673 130.389 245.255C130.209 245.831 129.948 246.332 129.606 246.758C129.27 247.184 128.856 247.52 128.364 247.766C127.878 248.006 127.329 248.126 126.717 248.126C126.171 248.126 125.703 248.036 125.313 247.856C124.923 247.676 124.575 247.424 124.269 247.1V251.069H122.514V238.856H123.567C123.813 238.856 123.966 238.973 124.026 239.207L124.179 240.224ZM143.821 243.185L141.904 238.172C141.766 237.83 141.628 237.398 141.49 236.876C141.424 237.134 141.355 237.374 141.283 237.596C141.217 237.818 141.151 238.016 141.085 238.19L139.177 243.185H143.821ZM147.61 248H146.134C145.966 248 145.828 247.958 145.72 247.874C145.612 247.79 145.534 247.682 145.486 247.55L144.343 244.553H138.646L137.503 247.55C137.461 247.664 137.383 247.769 137.269 247.865C137.155 247.955 137.017 248 136.855 248H135.379L140.527 235.076H142.462L147.61 248ZM150.485 240.611C150.779 240.011 151.133 239.54 151.547 239.198C151.961 238.856 152.459 238.685 153.041 238.685C153.239 238.685 153.425 238.709 153.599 238.757C153.779 238.799 153.935 238.865 154.067 238.955L153.95 240.278C153.908 240.44 153.809 240.521 153.653 240.521C153.569 240.521 153.443 240.506 153.275 240.476C153.107 240.44 152.927 240.422 152.735 240.422C152.453 240.422 152.204 240.464 151.988 240.548C151.772 240.626 151.577 240.746 151.403 240.908C151.235 241.064 151.085 241.259 150.953 241.493C150.821 241.721 150.698 241.982 150.584 242.276V248H148.829V238.856H149.837C150.029 238.856 150.158 238.892 150.224 238.964C150.296 239.03 150.347 239.15 150.377 239.324L150.485 240.611ZM164.088 248H162.324V240.278H157.734V245.633C157.734 245.993 157.821 246.263 157.995 246.443C158.175 246.617 158.403 246.704 158.679 246.704C158.841 246.704 158.979 246.683 159.093 246.641C159.213 246.599 159.315 246.554 159.399 246.506C159.483 246.452 159.555 246.404 159.615 246.362C159.675 246.32 159.729 246.299 159.777 246.299C159.837 246.299 159.882 246.314 159.912 246.344C159.948 246.368 159.984 246.41 160.02 246.47L160.542 247.316C160.254 247.58 159.912 247.784 159.516 247.928C159.12 248.072 158.709 248.144 158.283 248.144C157.545 248.144 156.975 247.937 156.573 247.523C156.177 247.109 155.979 246.518 155.979 245.75V240.278H154.917C154.815 240.278 154.728 240.248 154.656 240.188C154.59 240.122 154.557 240.026 154.557 239.9V239.189L156.051 238.982L156.438 236.255C156.462 236.153 156.507 236.075 156.573 236.021C156.645 235.961 156.735 235.931 156.843 235.931H157.734V239H164.088V248ZM164.484 235.976C164.484 236.138 164.451 236.294 164.385 236.444C164.319 236.588 164.229 236.717 164.115 236.831C164.007 236.939 163.878 237.026 163.728 237.092C163.578 237.152 163.422 237.182 163.26 237.182C163.098 237.182 162.945 237.152 162.801 237.092C162.657 237.026 162.528 236.939 162.414 236.831C162.306 236.717 162.219 236.588 162.153 236.444C162.093 236.294 162.063 236.138 162.063 235.976C162.063 235.808 162.093 235.649 162.153 235.499C162.219 235.349 162.306 235.22 162.414 235.112C162.528 234.998 162.657 234.911 162.801 234.851C162.945 234.785 163.098 234.752 163.26 234.752C163.422 234.752 163.578 234.785 163.728 234.851C163.878 234.911 164.007 234.998 164.115 235.112C164.229 235.22 164.319 235.349 164.385 235.499C164.451 235.649 164.484 235.808 164.484 235.976ZM173.043 240.566C172.989 240.632 172.935 240.686 172.881 240.728C172.833 240.764 172.761 240.782 172.665 240.782C172.569 240.782 172.467 240.746 172.359 240.674C172.257 240.596 172.125 240.515 171.963 240.431C171.807 240.341 171.615 240.26 171.387 240.188C171.165 240.11 170.889 240.071 170.559 240.071C170.127 240.071 169.746 240.149 169.416 240.305C169.086 240.461 168.81 240.683 168.588 240.971C168.372 241.259 168.207 241.61 168.093 242.024C167.979 242.438 167.922 242.903 167.922 243.419C167.922 243.953 167.982 244.43 168.102 244.85C168.222 245.264 168.393 245.615 168.615 245.903C168.837 246.185 169.107 246.401 169.425 246.551C169.743 246.695 170.097 246.767 170.487 246.767C170.865 246.767 171.177 246.722 171.423 246.632C171.669 246.536 171.873 246.434 172.035 246.326C172.197 246.218 172.332 246.119 172.44 246.029C172.548 245.933 172.659 245.885 172.773 245.885C172.917 245.885 173.028 245.939 173.106 246.047L173.61 246.695C173.4 246.953 173.163 247.172 172.899 247.352C172.641 247.532 172.365 247.679 172.071 247.793C171.777 247.907 171.468 247.991 171.144 248.045C170.826 248.099 170.502 248.126 170.172 248.126C169.602 248.126 169.068 248.021 168.57 247.811C168.078 247.601 167.649 247.295 167.283 246.893C166.923 246.491 166.638 245.999 166.428 245.417C166.218 244.829 166.113 244.163 166.113 243.419C166.113 242.741 166.206 242.114 166.392 241.538C166.584 240.962 166.863 240.467 167.229 240.053C167.601 239.633 168.057 239.306 168.597 239.072C169.137 238.832 169.755 238.712 170.451 238.712C171.105 238.712 171.681 238.817 172.179 239.027C172.677 239.237 173.121 239.534 173.511 239.918L173.043 240.566ZM177.049 234.716V248H175.285V234.716H177.049ZM185.612 242.411C185.612 242.063 185.561 241.742 185.459 241.448C185.363 241.154 185.219 240.899 185.027 240.683C184.835 240.467 184.601 240.299 184.325 240.179C184.049 240.059 183.731 239.999 183.371 239.999C182.633 239.999 182.051 240.212 181.625 240.638C181.205 241.064 180.938 241.655 180.824 242.411H185.612ZM187.061 246.695C186.845 246.947 186.596 247.166 186.314 247.352C186.032 247.532 185.732 247.679 185.414 247.793C185.096 247.907 184.766 247.991 184.424 248.045C184.088 248.099 183.755 248.126 183.425 248.126C182.795 248.126 182.21 248.021 181.67 247.811C181.136 247.595 180.671 247.283 180.275 246.875C179.885 246.461 179.579 245.951 179.357 245.345C179.141 244.733 179.033 244.031 179.033 243.239C179.033 242.603 179.132 242.012 179.33 241.466C179.528 240.914 179.81 240.434 180.176 240.026C180.548 239.618 181.001 239.297 181.535 239.063C182.069 238.829 182.669 238.712 183.335 238.712C183.893 238.712 184.406 238.805 184.874 238.991C185.348 239.171 185.756 239.435 186.098 239.783C186.44 240.131 186.707 240.56 186.899 241.07C187.097 241.58 187.196 242.162 187.196 242.816C187.196 243.086 187.166 243.269 187.106 243.365C187.046 243.455 186.935 243.5 186.773 243.5H180.779C180.797 244.046 180.875 244.523 181.013 244.931C181.151 245.333 181.34 245.669 181.58 245.939C181.826 246.209 182.117 246.41 182.453 246.542C182.789 246.674 183.164 246.74 183.578 246.74C183.968 246.74 184.304 246.695 184.586 246.605C184.874 246.515 185.12 246.419 185.324 246.317C185.534 246.209 185.708 246.11 185.846 246.02C185.99 245.93 186.116 245.885 186.224 245.885C186.368 245.885 186.479 245.939 186.557 246.047L187.061 246.695ZM194.474 240.431C194.426 240.509 194.375 240.566 194.321 240.602C194.267 240.632 194.198 240.647 194.114 240.647C194.018 240.647 193.91 240.614 193.79 240.548C193.676 240.482 193.535 240.41 193.367 240.332C193.205 240.254 193.013 240.182 192.791 240.116C192.569 240.05 192.305 240.017 191.999 240.017C191.747 240.017 191.516 240.05 191.306 240.116C191.102 240.176 190.928 240.263 190.784 240.377C190.64 240.485 190.529 240.617 190.451 240.773C190.373 240.923 190.334 241.085 190.334 241.259C190.334 241.487 190.4 241.676 190.532 241.826C190.67 241.976 190.847 242.105 191.063 242.213C191.285 242.321 191.534 242.42 191.81 242.51C192.092 242.594 192.377 242.684 192.665 242.78C192.959 242.876 193.244 242.987 193.52 243.113C193.802 243.233 194.051 243.386 194.267 243.572C194.489 243.752 194.666 243.971 194.798 244.229C194.936 244.487 195.005 244.802 195.005 245.174C195.005 245.6 194.927 245.996 194.771 246.362C194.621 246.722 194.396 247.034 194.096 247.298C193.802 247.562 193.436 247.769 192.998 247.919C192.56 248.069 192.059 248.144 191.495 248.144C190.865 248.144 190.283 248.039 189.749 247.829C189.215 247.619 188.768 247.352 188.408 247.028L188.822 246.353C188.87 246.269 188.93 246.206 189.002 246.164C189.074 246.116 189.17 246.092 189.29 246.092C189.404 246.092 189.521 246.134 189.641 246.218C189.761 246.302 189.905 246.395 190.073 246.497C190.241 246.593 190.445 246.683 190.685 246.767C190.925 246.845 191.225 246.884 191.585 246.884C191.885 246.884 192.146 246.848 192.368 246.776C192.59 246.698 192.773 246.596 192.917 246.47C193.067 246.338 193.178 246.188 193.25 246.02C193.322 245.852 193.358 245.675 193.358 245.489C193.358 245.249 193.289 245.051 193.151 244.895C193.019 244.733 192.842 244.595 192.62 244.481C192.404 244.367 192.155 244.268 191.873 244.184C191.591 244.1 191.303 244.01 191.009 243.914C190.715 243.818 190.427 243.707 190.145 243.581C189.863 243.455 189.611 243.296 189.389 243.104C189.173 242.912 188.996 242.678 188.858 242.402C188.726 242.126 188.66 241.79 188.66 241.394C188.66 241.04 188.732 240.701 188.876 240.377C189.026 240.053 189.239 239.768 189.515 239.522C189.797 239.276 190.142 239.081 190.55 238.937C190.964 238.787 191.435 238.712 191.963 238.712C192.569 238.712 193.115 238.808 193.601 239C194.093 239.192 194.513 239.456 194.861 239.792L194.474 240.431ZM202.25 248C202.088 248 201.938 247.97 201.8 247.91C201.668 247.85 201.551 247.769 201.449 247.667C201.353 247.559 201.278 247.433 201.224 247.289C201.17 247.145 201.143 246.989 201.143 246.821C201.143 246.677 201.17 246.542 201.224 246.416C201.278 246.284 201.353 246.17 201.449 246.074C201.551 245.978 201.671 245.903 201.809 245.849C201.947 245.789 202.1 245.759 202.268 245.759C202.46 245.759 202.628 245.795 202.772 245.867C202.922 245.933 203.045 246.029 203.141 246.155C203.243 246.275 203.318 246.416 203.366 246.578C203.414 246.74 203.438 246.914 203.438 247.1C203.438 247.37 203.399 247.655 203.321 247.955C203.243 248.255 203.129 248.552 202.979 248.846C202.829 249.14 202.643 249.425 202.421 249.701C202.199 249.977 201.947 250.232 201.665 250.466L201.368 250.187C201.278 250.103 201.233 250.01 201.233 249.908C201.233 249.866 201.245 249.821 201.269 249.773C201.299 249.731 201.335 249.689 201.377 249.647C201.437 249.581 201.515 249.494 201.611 249.386C201.707 249.278 201.8 249.152 201.89 249.008C201.986 248.87 202.073 248.714 202.151 248.54C202.235 248.372 202.295 248.192 202.331 248H202.25ZM215.101 246.479C215.587 246.479 216.001 246.422 216.343 246.308C216.691 246.194 216.973 246.038 217.189 245.84C217.411 245.642 217.573 245.408 217.675 245.138C217.777 244.862 217.828 244.562 217.828 244.238C217.828 243.596 217.606 243.092 217.162 242.726C216.718 242.354 216.031 242.168 215.101 242.168H212.401V246.479H215.101ZM212.401 236.579V240.809H214.606C215.548 240.809 216.247 240.62 216.703 240.242C217.165 239.858 217.396 239.342 217.396 238.694C217.396 237.956 217.177 237.419 216.739 237.083C216.301 236.747 215.62 236.579 214.696 236.579H212.401ZM214.696 235.076C215.506 235.076 216.199 235.154 216.775 235.31C217.357 235.466 217.834 235.691 218.206 235.985C218.578 236.279 218.851 236.636 219.025 237.056C219.205 237.47 219.295 237.941 219.295 238.469C219.295 238.781 219.247 239.081 219.151 239.369C219.055 239.657 218.908 239.927 218.71 240.179C218.512 240.425 218.263 240.647 217.963 240.845C217.663 241.043 217.309 241.208 216.901 241.34C218.779 241.712 219.718 242.693 219.718 244.283C219.718 244.835 219.616 245.339 219.412 245.795C219.208 246.245 218.911 246.635 218.521 246.965C218.131 247.295 217.651 247.55 217.081 247.73C216.511 247.91 215.863 248 215.137 248H210.484V235.076H214.696ZM223.437 234.716V248H221.673V234.716H223.437ZM229.841 238.712C230.513 238.712 231.119 238.823 231.659 239.045C232.205 239.261 232.667 239.576 233.045 239.99C233.429 240.398 233.723 240.893 233.927 241.475C234.131 242.051 234.233 242.699 234.233 243.419C234.233 244.139 234.131 244.79 233.927 245.372C233.723 245.954 233.429 246.449 233.045 246.857C232.667 247.265 232.205 247.58 231.659 247.802C231.119 248.018 230.513 248.126 229.841 248.126C229.163 248.126 228.551 248.018 228.005 247.802C227.465 247.58 227.003 247.265 226.619 246.857C226.235 246.449 225.938 245.954 225.728 245.372C225.524 244.79 225.422 244.139 225.422 243.419C225.422 242.699 225.524 242.051 225.728 241.475C225.938 240.893 226.235 240.398 226.619 239.99C227.003 239.576 227.465 239.261 228.005 239.045C228.551 238.823 229.163 238.712 229.841 238.712ZM229.841 246.758C230.705 246.758 231.35 246.467 231.776 245.885C232.202 245.303 232.415 244.484 232.415 243.428C232.415 242.372 232.202 241.553 231.776 240.971C231.35 240.383 230.705 240.089 229.841 240.089C228.965 240.089 228.311 240.383 227.879 240.971C227.453 241.553 227.24 242.372 227.24 243.428C227.24 244.484 227.453 245.303 227.879 245.885C228.311 246.467 228.965 246.758 229.841 246.758ZM239.352 243.437C239.664 243.437 239.937 243.395 240.171 243.311C240.411 243.227 240.609 243.11 240.765 242.96C240.927 242.804 241.047 242.618 241.125 242.402C241.209 242.186 241.251 241.949 241.251 241.691C241.251 241.163 241.089 240.743 240.765 240.431C240.447 240.113 239.976 239.954 239.352 239.954C238.734 239.954 238.263 240.113 237.939 240.431C237.621 240.743 237.462 241.163 237.462 241.691C237.462 241.949 237.501 242.186 237.579 242.402C237.663 242.612 237.783 242.795 237.939 242.951C238.101 243.101 238.299 243.221 238.533 243.311C238.773 243.395 239.046 243.437 239.352 243.437ZM242.151 248.477C242.151 248.261 242.091 248.09 241.971 247.964C241.851 247.832 241.686 247.73 241.476 247.658C241.272 247.58 241.032 247.526 240.756 247.496C240.48 247.46 240.189 247.433 239.883 247.415C239.583 247.397 239.274 247.382 238.956 247.37C238.638 247.352 238.332 247.322 238.038 247.28C237.726 247.436 237.468 247.625 237.264 247.847C237.066 248.069 236.967 248.33 236.967 248.63C236.967 248.822 237.015 249.002 237.111 249.17C237.213 249.338 237.366 249.482 237.57 249.602C237.78 249.728 238.041 249.824 238.353 249.89C238.671 249.962 239.049 249.998 239.487 249.998C239.919 249.998 240.3 249.959 240.63 249.881C240.96 249.809 241.236 249.704 241.458 249.566C241.686 249.434 241.857 249.275 241.971 249.089C242.091 248.903 242.151 248.699 242.151 248.477ZM243.933 239.198V239.855C243.933 240.071 243.798 240.206 243.528 240.26L242.547 240.404C242.631 240.59 242.697 240.788 242.745 240.998C242.793 241.202 242.817 241.418 242.817 241.646C242.817 242.096 242.73 242.504 242.556 242.87C242.382 243.23 242.142 243.539 241.836 243.797C241.53 244.055 241.164 244.253 240.738 244.391C240.318 244.529 239.856 244.598 239.352 244.598C238.938 244.598 238.551 244.553 238.191 244.463C238.011 244.571 237.873 244.691 237.777 244.823C237.687 244.949 237.642 245.075 237.642 245.201C237.642 245.411 237.729 245.567 237.903 245.669C238.083 245.771 238.314 245.846 238.596 245.894C238.884 245.936 239.211 245.963 239.577 245.975C239.949 245.987 240.324 246.008 240.702 246.038C241.086 246.062 241.461 246.11 241.827 246.182C242.199 246.248 242.526 246.359 242.808 246.515C243.096 246.665 243.327 246.875 243.501 247.145C243.681 247.409 243.771 247.754 243.771 248.18C243.771 248.576 243.672 248.96 243.474 249.332C243.282 249.704 243 250.034 242.628 250.322C242.256 250.61 241.803 250.841 241.269 251.015C240.735 251.189 240.129 251.276 239.451 251.276C238.773 251.276 238.182 251.21 237.678 251.078C237.18 250.946 236.763 250.769 236.427 250.547C236.097 250.325 235.848 250.067 235.68 249.773C235.518 249.479 235.437 249.173 235.437 248.855C235.437 248.411 235.575 248.036 235.851 247.73C236.127 247.418 236.508 247.175 236.994 247.001C236.73 246.881 236.52 246.719 236.364 246.515C236.208 246.305 236.13 246.029 236.13 245.687C236.13 245.555 236.154 245.42 236.202 245.282C236.25 245.138 236.322 244.997 236.418 244.859C236.52 244.715 236.643 244.58 236.787 244.454C236.937 244.328 237.108 244.214 237.3 244.112C236.85 243.86 236.496 243.527 236.238 243.113C235.98 242.693 235.851 242.204 235.851 241.646C235.851 241.196 235.938 240.791 236.112 240.431C236.286 240.071 236.526 239.762 236.832 239.504C237.144 239.246 237.513 239.048 237.939 238.91C238.371 238.772 238.842 238.703 239.352 238.703C240.144 238.703 240.825 238.868 241.395 239.198H243.933ZM250.935 240.431C250.887 240.509 250.836 240.566 250.782 240.602C250.728 240.632 250.659 240.647 250.575 240.647C250.479 240.647 250.371 240.614 250.251 240.548C250.137 240.482 249.996 240.41 249.828 240.332C249.666 240.254 249.474 240.182 249.252 240.116C249.03 240.05 248.766 240.017 248.46 240.017C248.208 240.017 247.977 240.05 247.767 240.116C247.563 240.176 247.389 240.263 247.245 240.377C247.101 240.485 246.99 240.617 246.912 240.773C246.834 240.923 246.795 241.085 246.795 241.259C246.795 241.487 246.861 241.676 246.993 241.826C247.131 241.976 247.308 242.105 247.524 242.213C247.746 242.321 247.995 242.42 248.271 242.51C248.553 242.594 248.838 242.684 249.126 242.78C249.42 242.876 249.705 242.987 249.981 243.113C250.263 243.233 250.512 243.386 250.728 243.572C250.95 243.752 251.127 243.971 251.259 244.229C251.397 244.487 251.466 244.802 251.466 245.174C251.466 245.6 251.388 245.996 251.232 246.362C251.082 246.722 250.857 247.034 250.557 247.298C250.263 247.562 249.897 247.769 249.459 247.919C249.021 248.069 248.52 248.144 247.956 248.144C247.326 248.144 246.744 248.039 246.21 247.829C245.676 247.619 245.229 247.352 244.869 247.028L245.283 246.353C245.331 246.269 245.391 246.206 245.463 246.164C245.535 246.116 245.631 246.092 245.751 246.092C245.865 246.092 245.982 246.134 246.102 246.218C246.222 246.302 246.366 246.395 246.534 246.497C246.702 246.593 246.906 246.683 247.146 246.767C247.386 246.845 247.686 246.884 248.046 246.884C248.346 246.884 248.607 246.848 248.829 246.776C249.051 246.698 249.234 246.596 249.378 246.47C249.528 246.338 249.639 246.188 249.711 246.02C249.783 245.852 249.819 245.675 249.819 245.489C249.819 245.249 249.75 245.051 249.612 244.895C249.48 244.733 249.303 244.595 249.081 244.481C248.865 244.367 248.616 244.268 248.334 244.184C248.052 244.1 247.764 244.01 247.47 243.914C247.176 243.818 246.888 243.707 246.606 243.581C246.324 243.455 246.072 243.296 245.85 243.104C245.634 242.912 245.457 242.678 245.319 242.402C245.187 242.126 245.121 241.79 245.121 241.394C245.121 241.04 245.193 240.701 245.337 240.377C245.487 240.053 245.7 239.768 245.976 239.522C246.258 239.276 246.603 239.081 247.011 238.937C247.425 238.787 247.896 238.712 248.424 238.712C249.03 238.712 249.576 238.808 250.062 239C250.554 239.192 250.974 239.456 251.322 239.792L250.935 240.431ZM254.158 248C253.996 248 253.846 247.97 253.708 247.91C253.576 247.85 253.459 247.769 253.357 247.667C253.261 247.559 253.186 247.433 253.132 247.289C253.078 247.145 253.051 246.989 253.051 246.821C253.051 246.677 253.078 246.542 253.132 246.416C253.186 246.284 253.261 246.17 253.357 246.074C253.459 245.978 253.579 245.903 253.717 245.849C253.855 245.789 254.008 245.759 254.176 245.759C254.368 245.759 254.536 245.795 254.68 245.867C254.83 245.933 254.953 246.029 255.049 246.155C255.151 246.275 255.226 246.416 255.274 246.578C255.322 246.74 255.346 246.914 255.346 247.1C255.346 247.37 255.307 247.655 255.229 247.955C255.151 248.255 255.037 248.552 254.887 248.846C254.737 249.14 254.551 249.425 254.329 249.701C254.107 249.977 253.855 250.232 253.573 250.466L253.276 250.187C253.186 250.103 253.141 250.01 253.141 249.908C253.141 249.866 253.153 249.821 253.177 249.773C253.207 249.731 253.243 249.689 253.285 249.647C253.345 249.581 253.423 249.494 253.519 249.386C253.615 249.278 253.708 249.152 253.798 249.008C253.894 248.87 253.981 248.714 254.059 248.54C254.143 248.372 254.203 248.192 254.239 248H254.158ZM266.307 241.727C266.793 241.727 267.219 241.664 267.585 241.538C267.957 241.412 268.266 241.235 268.512 241.007C268.764 240.773 268.953 240.497 269.079 240.179C269.205 239.855 269.268 239.498 269.268 239.108C269.268 238.322 269.022 237.704 268.53 237.254C268.044 236.804 267.303 236.579 266.307 236.579H264.309V241.727H266.307ZM266.307 235.076C267.135 235.076 267.855 235.172 268.467 235.364C269.079 235.556 269.586 235.829 269.988 236.183C270.39 236.531 270.687 236.954 270.879 237.452C271.077 237.95 271.176 238.502 271.176 239.108C271.176 239.714 271.071 240.272 270.861 240.782C270.651 241.286 270.342 241.721 269.934 242.087C269.526 242.453 269.016 242.738 268.404 242.942C267.798 243.14 267.099 243.239 266.307 243.239H264.309V248H262.392V235.076H266.307ZM286.88 235.076V248H285.206V238.802C285.206 238.664 285.209 238.517 285.215 238.361C285.227 238.205 285.239 238.046 285.251 237.884L280.949 245.777C280.799 246.071 280.568 246.218 280.256 246.218H279.986C279.674 246.218 279.446 246.071 279.302 245.777L274.919 237.857C274.955 238.193 274.973 238.508 274.973 238.802V248H273.29V235.076H274.712C274.88 235.076 275.009 235.094 275.099 235.13C275.195 235.16 275.285 235.25 275.369 235.4L279.689 243.14C279.773 243.296 279.851 243.461 279.923 243.635C279.995 243.809 280.064 243.983 280.13 244.157C280.256 243.803 280.403 243.461 280.571 243.131L284.81 235.4C284.888 235.25 284.972 235.16 285.062 235.13C285.158 235.094 285.29 235.076 285.458 235.076H286.88ZM299.247 246.479C299.733 246.479 300.147 246.422 300.489 246.308C300.837 246.194 301.119 246.038 301.335 245.84C301.557 245.642 301.719 245.408 301.821 245.138C301.923 244.862 301.974 244.562 301.974 244.238C301.974 243.596 301.752 243.092 301.308 242.726C300.864 242.354 300.177 242.168 299.247 242.168H296.547V246.479H299.247ZM296.547 236.579V240.809H298.752C299.694 240.809 300.393 240.62 300.849 240.242C301.311 239.858 301.542 239.342 301.542 238.694C301.542 237.956 301.323 237.419 300.885 237.083C300.447 236.747 299.766 236.579 298.842 236.579H296.547ZM298.842 235.076C299.652 235.076 300.345 235.154 300.921 235.31C301.503 235.466 301.98 235.691 302.352 235.985C302.724 236.279 302.997 236.636 303.171 237.056C303.351 237.47 303.441 237.941 303.441 238.469C303.441 238.781 303.393 239.081 303.297 239.369C303.201 239.657 303.054 239.927 302.856 240.179C302.658 240.425 302.409 240.647 302.109 240.845C301.809 241.043 301.455 241.208 301.047 241.34C302.925 241.712 303.864 242.693 303.864 244.283C303.864 244.835 303.762 245.339 303.558 245.795C303.354 246.245 303.057 246.635 302.667 246.965C302.277 247.295 301.797 247.55 301.227 247.73C300.657 247.91 300.009 248 299.283 248H294.63V235.076H298.842ZM311.876 242.411C311.876 242.063 311.825 241.742 311.723 241.448C311.627 241.154 311.483 240.899 311.291 240.683C311.099 240.467 310.865 240.299 310.589 240.179C310.313 240.059 309.995 239.999 309.635 239.999C308.897 239.999 308.315 240.212 307.889 240.638C307.469 241.064 307.202 241.655 307.088 242.411H311.876ZM313.325 246.695C313.109 246.947 312.86 247.166 312.578 247.352C312.296 247.532 311.996 247.679 311.678 247.793C311.36 247.907 311.03 247.991 310.688 248.045C310.352 248.099 310.019 248.126 309.689 248.126C309.059 248.126 308.474 248.021 307.934 247.811C307.4 247.595 306.935 247.283 306.539 246.875C306.149 246.461 305.843 245.951 305.621 245.345C305.405 244.733 305.297 244.031 305.297 243.239C305.297 242.603 305.396 242.012 305.594 241.466C305.792 240.914 306.074 240.434 306.44 240.026C306.812 239.618 307.265 239.297 307.799 239.063C308.333 238.829 308.933 238.712 309.599 238.712C310.157 238.712 310.67 238.805 311.138 238.991C311.612 239.171 312.02 239.435 312.362 239.783C312.704 240.131 312.971 240.56 313.163 241.07C313.361 241.58 313.46 242.162 313.46 242.816C313.46 243.086 313.43 243.269 313.37 243.365C313.31 243.455 313.199 243.5 313.037 243.5H307.043C307.061 244.046 307.139 244.523 307.277 244.931C307.415 245.333 307.604 245.669 307.844 245.939C308.09 246.209 308.381 246.41 308.717 246.542C309.053 246.674 309.428 246.74 309.842 246.74C310.232 246.74 310.568 246.695 310.85 246.605C311.138 246.515 311.384 246.419 311.588 246.317C311.798 246.209 311.972 246.11 312.11 246.02C312.254 245.93 312.38 245.885 312.488 245.885C312.632 245.885 312.743 245.939 312.821 246.047L313.325 246.695ZM320.737 240.431C320.689 240.509 320.638 240.566 320.584 240.602C320.53 240.632 320.461 240.647 320.377 240.647C320.281 240.647 320.173 240.614 320.053 240.548C319.939 240.482 319.798 240.41 319.63 240.332C319.468 240.254 319.276 240.182 319.054 240.116C318.832 240.05 318.568 240.017 318.262 240.017C318.01 240.017 317.779 240.05 317.569 240.116C317.365 240.176 317.191 240.263 317.047 240.377C316.903 240.485 316.792 240.617 316.714 240.773C316.636 240.923 316.597 241.085 316.597 241.259C316.597 241.487 316.663 241.676 316.795 241.826C316.933 241.976 317.11 242.105 317.326 242.213C317.548 242.321 317.797 242.42 318.073 242.51C318.355 242.594 318.64 242.684 318.928 242.78C319.222 242.876 319.507 242.987 319.783 243.113C320.065 243.233 320.314 243.386 320.53 243.572C320.752 243.752 320.929 243.971 321.061 244.229C321.199 244.487 321.268 244.802 321.268 245.174C321.268 245.6 321.19 245.996 321.034 246.362C320.884 246.722 320.659 247.034 320.359 247.298C320.065 247.562 319.699 247.769 319.261 247.919C318.823 248.069 318.322 248.144 317.758 248.144C317.128 248.144 316.546 248.039 316.012 247.829C315.478 247.619 315.031 247.352 314.671 247.028L315.085 246.353C315.133 246.269 315.193 246.206 315.265 246.164C315.337 246.116 315.433 246.092 315.553 246.092C315.667 246.092 315.784 246.134 315.904 246.218C316.024 246.302 316.168 246.395 316.336 246.497C316.504 246.593 316.708 246.683 316.948 246.767C317.188 246.845 317.488 246.884 317.848 246.884C318.148 246.884 318.409 246.848 318.631 246.776C318.853 246.698 319.036 246.596 319.18 246.47C319.33 246.338 319.441 246.188 319.513 246.02C319.585 245.852 319.621 245.675 319.621 245.489C319.621 245.249 319.552 245.051 319.414 244.895C319.282 244.733 319.105 244.595 318.883 244.481C318.667 244.367 318.418 244.268 318.136 244.184C317.854 244.1 317.566 244.01 317.272 243.914C316.978 243.818 316.69 243.707 316.408 243.581C316.126 243.455 315.874 243.296 315.652 243.104C315.436 242.912 315.259 242.678 315.121 242.402C314.989 242.126 314.923 241.79 314.923 241.394C314.923 241.04 314.995 240.701 315.139 240.377C315.289 240.053 315.502 239.768 315.778 239.522C316.06 239.276 316.405 239.081 316.813 238.937C317.227 238.787 317.698 238.712 318.226 238.712C318.832 238.712 319.378 238.808 319.864 239C320.356 239.192 320.776 239.456 321.124 239.792L320.737 240.431ZM326.031 248.144C325.293 248.144 324.723 247.937 324.321 247.523C323.925 247.109 323.727 246.518 323.727 245.75V240.278H322.665C322.563 240.278 322.476 240.248 322.404 240.188C322.338 240.122 322.305 240.026 322.305 239.9V239.189L323.79 238.982L324.186 236.255C324.21 236.153 324.255 236.075 324.321 236.021C324.393 235.961 324.483 235.931 324.591 235.931H325.482V239H328.074V240.278H325.482V245.633C325.482 245.993 325.569 246.263 325.743 246.443C325.923 246.617 326.151 246.704 326.427 246.704C326.589 246.704 326.727 246.683 326.841 246.641C326.961 246.599 327.063 246.554 327.147 246.506C327.231 246.452 327.303 246.404 327.363 246.362C327.423 246.32 327.477 246.299 327.525 246.299C327.585 246.299 327.63 246.314 327.66 246.344C327.696 246.368 327.732 246.41 327.768 246.47L328.29 247.316C328.002 247.58 327.66 247.784 327.264 247.928C326.868 248.072 326.457 248.144 326.031 248.144ZM177.01 263.076L171.754 276H170.035L164.779 263.076H166.309C166.477 263.076 166.612 263.118 166.714 263.202C166.822 263.286 166.903 263.394 166.957 263.526L170.449 272.31C170.533 272.526 170.614 272.763 170.692 273.021C170.776 273.279 170.851 273.549 170.917 273.831C170.977 273.549 171.043 273.279 171.115 273.021C171.187 272.763 171.265 272.526 171.349 272.31L174.832 263.526C174.874 263.406 174.949 263.301 175.057 263.211C175.171 263.121 175.309 263.076 175.471 263.076H177.01ZM180.099 266.856V276H178.344V266.856H180.099ZM180.432 264.03C180.432 264.192 180.399 264.348 180.333 264.498C180.267 264.642 180.177 264.771 180.063 264.885C179.955 264.993 179.826 265.08 179.676 265.146C179.526 265.206 179.37 265.236 179.208 265.236C179.046 265.236 178.893 265.206 178.749 265.146C178.605 265.08 178.476 264.993 178.362 264.885C178.254 264.771 178.167 264.642 178.101 264.498C178.041 264.348 178.011 264.192 178.011 264.03C178.011 263.862 178.041 263.706 178.101 263.562C178.167 263.412 178.254 263.283 178.362 263.175C178.476 263.061 178.605 262.974 178.749 262.914C178.893 262.848 179.046 262.815 179.208 262.815C179.37 262.815 179.526 262.848 179.676 262.914C179.826 262.974 179.955 263.061 180.063 263.175C180.177 263.283 180.267 263.412 180.333 263.562C180.399 263.706 180.432 263.862 180.432 264.03ZM188.535 269.07C188.247 268.692 187.935 268.428 187.599 268.278C187.269 268.128 186.897 268.053 186.483 268.053C185.679 268.053 185.055 268.344 184.611 268.926C184.173 269.502 183.954 270.345 183.954 271.455C183.954 272.037 184.002 272.535 184.098 272.949C184.2 273.357 184.344 273.693 184.53 273.957C184.722 274.215 184.956 274.407 185.232 274.533C185.508 274.653 185.82 274.713 186.168 274.713C186.678 274.713 187.119 274.599 187.491 274.371C187.863 274.143 188.211 273.822 188.535 273.408V269.07ZM190.299 262.716V276H189.237C188.991 276 188.838 275.883 188.778 275.649L188.625 274.596C188.235 275.058 187.791 275.43 187.293 275.712C186.801 275.988 186.231 276.126 185.583 276.126C185.061 276.126 184.587 276.024 184.161 275.82C183.741 275.616 183.381 275.319 183.081 274.929C182.781 274.533 182.55 274.044 182.388 273.462C182.226 272.88 182.145 272.211 182.145 271.455C182.145 270.777 182.235 270.147 182.415 269.565C182.595 268.983 182.856 268.479 183.198 268.053C183.54 267.627 183.954 267.294 184.44 267.054C184.926 266.808 185.475 266.685 186.087 266.685C186.639 266.685 187.107 266.775 187.491 266.955C187.881 267.135 188.229 267.39 188.535 267.72V262.716H190.299ZM198.805 270.411C198.805 270.063 198.754 269.742 198.652 269.448C198.556 269.154 198.412 268.899 198.22 268.683C198.028 268.467 197.794 268.299 197.518 268.179C197.242 268.059 196.924 267.999 196.564 267.999C195.826 267.999 195.244 268.212 194.818 268.638C194.398 269.064 194.131 269.655 194.017 270.411H198.805ZM200.254 274.695C200.038 274.947 199.789 275.166 199.507 275.352C199.225 275.532 198.925 275.679 198.607 275.793C198.289 275.907 197.959 275.991 197.617 276.045C197.281 276.099 196.948 276.126 196.618 276.126C195.988 276.126 195.403 276.021 194.863 275.811C194.329 275.595 193.864 275.283 193.468 274.875C193.078 274.461 192.772 273.951 192.55 273.345C192.334 272.733 192.226 272.031 192.226 271.239C192.226 270.603 192.325 270.012 192.523 269.466C192.721 268.914 193.003 268.434 193.369 268.026C193.741 267.618 194.194 267.297 194.728 267.063C195.262 266.829 195.862 266.712 196.528 266.712C197.086 266.712 197.599 266.805 198.067 266.991C198.541 267.171 198.949 267.435 199.291 267.783C199.633 268.131 199.9 268.56 200.092 269.07C200.29 269.58 200.389 270.162 200.389 270.816C200.389 271.086 200.359 271.269 200.299 271.365C200.239 271.455 200.128 271.5 199.966 271.5H193.972C193.99 272.046 194.068 272.523 194.206 272.931C194.344 273.333 194.533 273.669 194.773 273.939C195.019 274.209 195.31 274.41 195.646 274.542C195.982 274.674 196.357 274.74 196.771 274.74C197.161 274.74 197.497 274.695 197.779 274.605C198.067 274.515 198.313 274.419 198.517 274.317C198.727 274.209 198.901 274.11 199.039 274.02C199.183 273.93 199.309 273.885 199.417 273.885C199.561 273.885 199.672 273.939 199.75 274.047L200.254 274.695ZM206.172 266.712C206.844 266.712 207.45 266.823 207.99 267.045C208.536 267.261 208.998 267.576 209.376 267.99C209.76 268.398 210.054 268.893 210.258 269.475C210.462 270.051 210.564 270.699 210.564 271.419C210.564 272.139 210.462 272.79 210.258 273.372C210.054 273.954 209.76 274.449 209.376 274.857C208.998 275.265 208.536 275.58 207.99 275.802C207.45 276.018 206.844 276.126 206.172 276.126C205.494 276.126 204.882 276.018 204.336 275.802C203.796 275.58 203.334 275.265 202.95 274.857C202.566 274.449 202.269 273.954 202.059 273.372C201.855 272.79 201.753 272.139 201.753 271.419C201.753 270.699 201.855 270.051 202.059 269.475C202.269 268.893 202.566 268.398 202.95 267.99C203.334 267.576 203.796 267.261 204.336 267.045C204.882 266.823 205.494 266.712 206.172 266.712ZM206.172 274.758C207.036 274.758 207.681 274.467 208.107 273.885C208.533 273.303 208.746 272.484 208.746 271.428C208.746 270.372 208.533 269.553 208.107 268.971C207.681 268.383 207.036 268.089 206.172 268.089C205.296 268.089 204.642 268.383 204.21 268.971C203.784 269.553 203.571 270.372 203.571 271.428C203.571 272.484 203.784 273.303 204.21 273.885C204.642 274.467 205.296 274.758 206.172 274.758ZM220.163 269.718C219.569 270.048 219.125 270.444 218.831 270.906C218.543 271.362 218.399 271.854 218.399 272.382C218.399 272.754 218.465 273.087 218.597 273.381C218.735 273.669 218.915 273.912 219.137 274.11C219.365 274.308 219.623 274.458 219.911 274.56C220.205 274.662 220.505 274.713 220.811 274.713C221.447 274.713 222.02 274.602 222.53 274.38C223.04 274.152 223.493 273.849 223.889 273.471L220.163 269.718ZM228.578 276H226.868C226.676 276 226.523 275.979 226.409 275.937C226.301 275.889 226.178 275.793 226.04 275.649L224.843 274.443C224.279 274.971 223.631 275.388 222.899 275.694C222.173 275.994 221.375 276.144 220.505 276.144C220.019 276.144 219.542 276.063 219.074 275.901C218.612 275.733 218.198 275.493 217.832 275.181C217.466 274.869 217.169 274.491 216.941 274.047C216.719 273.597 216.608 273.09 216.608 272.526C216.608 272.112 216.677 271.719 216.815 271.347C216.953 270.969 217.145 270.624 217.391 270.312C217.637 269.994 217.928 269.709 218.264 269.457C218.606 269.205 218.975 268.989 219.371 268.809C219.017 268.347 218.756 267.9 218.588 267.468C218.426 267.03 218.345 266.583 218.345 266.127C218.345 265.689 218.426 265.275 218.588 264.885C218.75 264.495 218.981 264.156 219.281 263.868C219.581 263.58 219.947 263.352 220.379 263.184C220.817 263.016 221.309 262.932 221.855 262.932C222.341 262.932 222.782 263.01 223.178 263.166C223.58 263.316 223.925 263.52 224.213 263.778C224.501 264.036 224.726 264.333 224.888 264.669C225.056 265.005 225.152 265.356 225.176 265.722L224.078 265.947C223.856 265.995 223.694 265.896 223.592 265.65C223.544 265.494 223.475 265.335 223.385 265.173C223.301 265.011 223.187 264.867 223.043 264.741C222.905 264.609 222.737 264.501 222.539 264.417C222.341 264.333 222.113 264.291 221.855 264.291C221.567 264.291 221.306 264.339 221.072 264.435C220.844 264.531 220.649 264.663 220.487 264.831C220.325 264.993 220.199 265.185 220.109 265.407C220.025 265.629 219.983 265.866 219.983 266.118C219.983 266.316 220.007 266.511 220.055 266.703C220.103 266.889 220.175 267.078 220.271 267.27C220.373 267.456 220.502 267.648 220.658 267.846C220.814 268.038 221 268.245 221.216 268.467L224.861 272.202C225.083 271.806 225.26 271.389 225.392 270.951C225.524 270.513 225.611 270.075 225.653 269.637C225.665 269.517 225.701 269.421 225.761 269.349C225.827 269.277 225.92 269.241 226.04 269.241H227.129C227.123 269.961 227.012 270.663 226.796 271.347C226.58 272.025 226.274 272.655 225.878 273.237L228.578 276ZM242.254 274.389V276H234.856V263.076H236.773V274.389H242.254ZM245.595 266.856V276H243.84V266.856H245.595ZM245.928 264.03C245.928 264.192 245.895 264.348 245.829 264.498C245.763 264.642 245.673 264.771 245.559 264.885C245.451 264.993 245.322 265.08 245.172 265.146C245.022 265.206 244.866 265.236 244.704 265.236C244.542 265.236 244.389 265.206 244.245 265.146C244.101 265.08 243.972 264.993 243.858 264.885C243.75 264.771 243.663 264.642 243.597 264.498C243.537 264.348 243.507 264.192 243.507 264.03C243.507 263.862 243.537 263.706 243.597 263.562C243.663 263.412 243.75 263.283 243.858 263.175C243.972 263.061 244.101 262.974 244.245 262.914C244.389 262.848 244.542 262.815 244.704 262.815C244.866 262.815 245.022 262.848 245.172 262.914C245.322 262.974 245.451 263.061 245.559 263.175C245.673 263.283 245.763 263.412 245.829 263.562C245.895 263.706 245.928 263.862 245.928 264.03ZM249.783 268.125C249.981 267.915 250.188 267.723 250.404 267.549C250.62 267.375 250.848 267.228 251.088 267.108C251.334 266.982 251.595 266.886 251.871 266.82C252.153 266.748 252.453 266.712 252.771 266.712C253.275 266.712 253.716 266.796 254.094 266.964C254.478 267.132 254.799 267.369 255.057 267.675C255.315 267.975 255.51 268.338 255.642 268.764C255.774 269.19 255.84 269.661 255.84 270.177V276H254.076V270.177C254.076 269.523 253.926 269.016 253.626 268.656C253.326 268.29 252.867 268.107 252.249 268.107C251.799 268.107 251.376 268.215 250.98 268.431C250.59 268.641 250.227 268.929 249.891 269.295V276H248.136V266.856H249.189C249.435 266.856 249.588 266.973 249.648 267.207L249.783 268.125ZM259.964 262.716V270.483H260.378C260.504 270.483 260.609 270.465 260.693 270.429C260.777 270.393 260.864 270.321 260.954 270.213L263.69 267.198C263.774 267.084 263.867 267 263.969 266.946C264.071 266.886 264.2 266.856 264.356 266.856H265.958L262.727 270.393C262.553 270.615 262.367 270.786 262.169 270.906C262.283 270.984 262.382 271.074 262.466 271.176C262.556 271.278 262.643 271.389 262.727 271.509L266.165 276H264.59C264.446 276 264.32 275.976 264.212 275.928C264.11 275.88 264.017 275.793 263.933 275.667L261.107 271.995C261.017 271.857 260.927 271.77 260.837 271.734C260.747 271.692 260.612 271.671 260.432 271.671H259.964V276H258.209V262.716H259.964ZM160.765 299.941C160.051 299.965 159.445 300.022 158.947 300.112C158.449 300.196 158.044 300.31 157.732 300.454C157.42 300.598 157.195 300.769 157.057 300.967C156.919 301.159 156.85 301.375 156.85 301.615C156.85 301.843 156.886 302.041 156.958 302.209C157.036 302.371 157.138 302.506 157.264 302.614C157.396 302.716 157.549 302.791 157.723 302.839C157.897 302.887 158.086 302.911 158.29 302.911C158.56 302.911 158.806 302.884 159.028 302.83C159.256 302.776 159.469 302.701 159.667 302.605C159.865 302.503 160.054 302.38 160.234 302.236C160.414 302.092 160.591 301.927 160.765 301.741V299.941ZM155.617 296.134C156.127 295.648 156.679 295.285 157.273 295.045C157.873 294.805 158.53 294.685 159.244 294.685C159.766 294.685 160.228 294.772 160.63 294.946C161.032 295.114 161.371 295.351 161.647 295.657C161.923 295.963 162.13 296.329 162.268 296.755C162.412 297.181 162.484 297.652 162.484 298.168V304H161.701C161.527 304 161.395 303.973 161.305 303.919C161.215 303.859 161.143 303.751 161.089 303.595L160.9 302.794C160.666 303.01 160.435 303.202 160.207 303.37C159.979 303.532 159.739 303.673 159.487 303.793C159.241 303.907 158.977 303.994 158.695 304.054C158.413 304.114 158.101 304.144 157.759 304.144C157.399 304.144 157.06 304.096 156.742 304C156.43 303.898 156.157 303.745 155.923 303.541C155.689 303.337 155.503 303.082 155.365 302.776C155.233 302.47 155.167 302.113 155.167 301.705C155.167 301.345 155.263 301 155.455 300.67C155.653 300.334 155.971 300.034 156.409 299.77C156.853 299.506 157.429 299.29 158.137 299.122C158.851 298.954 159.727 298.858 160.765 298.834V298.168C160.765 297.478 160.618 296.962 160.324 296.62C160.03 296.278 159.598 296.107 159.028 296.107C158.644 296.107 158.32 296.155 158.056 296.251C157.798 296.347 157.573 296.455 157.381 296.575C157.195 296.689 157.03 296.794 156.886 296.89C156.748 296.986 156.604 297.034 156.454 297.034C156.334 297.034 156.229 297.001 156.139 296.935C156.055 296.869 155.986 296.791 155.932 296.701L155.617 296.134ZM166.481 296.125C166.679 295.915 166.886 295.723 167.102 295.549C167.318 295.375 167.546 295.228 167.786 295.108C168.032 294.982 168.293 294.886 168.569 294.82C168.851 294.748 169.151 294.712 169.469 294.712C169.973 294.712 170.414 294.796 170.792 294.964C171.176 295.132 171.497 295.369 171.755 295.675C172.013 295.975 172.208 296.338 172.34 296.764C172.472 297.19 172.538 297.661 172.538 298.177V304H170.774V298.177C170.774 297.523 170.624 297.016 170.324 296.656C170.024 296.29 169.565 296.107 168.947 296.107C168.497 296.107 168.074 296.215 167.678 296.431C167.288 296.641 166.925 296.929 166.589 297.295V304H164.834V294.856H165.887C166.133 294.856 166.286 294.973 166.346 295.207L166.481 296.125ZM180.801 297.07C180.513 296.692 180.201 296.428 179.865 296.278C179.535 296.128 179.163 296.053 178.749 296.053C177.945 296.053 177.321 296.344 176.877 296.926C176.439 297.502 176.22 298.345 176.22 299.455C176.22 300.037 176.268 300.535 176.364 300.949C176.466 301.357 176.61 301.693 176.796 301.957C176.988 302.215 177.222 302.407 177.498 302.533C177.774 302.653 178.086 302.713 178.434 302.713C178.944 302.713 179.385 302.599 179.757 302.371C180.129 302.143 180.477 301.822 180.801 301.408V297.07ZM182.565 290.716V304H181.503C181.257 304 181.104 303.883 181.044 303.649L180.891 302.596C180.501 303.058 180.057 303.43 179.559 303.712C179.067 303.988 178.497 304.126 177.849 304.126C177.327 304.126 176.853 304.024 176.427 303.82C176.007 303.616 175.647 303.319 175.347 302.929C175.047 302.533 174.816 302.044 174.654 301.462C174.492 300.88 174.411 300.211 174.411 299.455C174.411 298.777 174.501 298.147 174.681 297.565C174.861 296.983 175.122 296.479 175.464 296.053C175.806 295.627 176.22 295.294 176.706 295.054C177.192 294.808 177.741 294.685 178.353 294.685C178.905 294.685 179.373 294.775 179.757 294.955C180.147 295.135 180.495 295.39 180.801 295.72V290.716H182.565ZM189.566 304V294.856H190.619C190.865 294.856 191.018 294.973 191.078 295.207L191.204 296.08C191.54 295.678 191.912 295.351 192.32 295.099C192.734 294.841 193.217 294.712 193.769 294.712C194.375 294.712 194.867 294.88 195.245 295.216C195.623 295.546 195.899 295.996 196.073 296.566C196.205 296.242 196.376 295.963 196.586 295.729C196.796 295.495 197.03 295.303 197.288 295.153C197.546 295.003 197.819 294.892 198.107 294.82C198.401 294.748 198.698 294.712 198.998 294.712C199.484 294.712 199.916 294.79 200.294 294.946C200.678 295.096 201.002 295.318 201.266 295.612C201.53 295.906 201.731 296.269 201.869 296.701C202.007 297.133 202.076 297.625 202.076 298.177V304H200.312V298.177C200.312 297.493 200.162 296.977 199.862 296.629C199.568 296.281 199.136 296.107 198.566 296.107C198.314 296.107 198.074 296.152 197.846 296.242C197.618 296.326 197.417 296.455 197.243 296.629C197.075 296.803 196.94 297.019 196.838 297.277C196.742 297.535 196.694 297.835 196.694 298.177V304H194.93V298.177C194.93 297.469 194.789 296.947 194.507 296.611C194.225 296.275 193.811 296.107 193.265 296.107C192.887 296.107 192.536 296.206 192.212 296.404C191.888 296.602 191.591 296.872 191.321 297.214V304H189.566ZM209.351 299.941C208.637 299.965 208.031 300.022 207.533 300.112C207.035 300.196 206.63 300.31 206.318 300.454C206.006 300.598 205.781 300.769 205.643 300.967C205.505 301.159 205.436 301.375 205.436 301.615C205.436 301.843 205.472 302.041 205.544 302.209C205.622 302.371 205.724 302.506 205.85 302.614C205.982 302.716 206.135 302.791 206.309 302.839C206.483 302.887 206.672 302.911 206.876 302.911C207.146 302.911 207.392 302.884 207.614 302.83C207.842 302.776 208.055 302.701 208.253 302.605C208.451 302.503 208.64 302.38 208.82 302.236C209 302.092 209.177 301.927 209.351 301.741V299.941ZM204.203 296.134C204.713 295.648 205.265 295.285 205.859 295.045C206.459 294.805 207.116 294.685 207.83 294.685C208.352 294.685 208.814 294.772 209.216 294.946C209.618 295.114 209.957 295.351 210.233 295.657C210.509 295.963 210.716 296.329 210.854 296.755C210.998 297.181 211.07 297.652 211.07 298.168V304H210.287C210.113 304 209.981 303.973 209.891 303.919C209.801 303.859 209.729 303.751 209.675 303.595L209.486 302.794C209.252 303.01 209.021 303.202 208.793 303.37C208.565 303.532 208.325 303.673 208.073 303.793C207.827 303.907 207.563 303.994 207.281 304.054C206.999 304.114 206.687 304.144 206.345 304.144C205.985 304.144 205.646 304.096 205.328 304C205.016 303.898 204.743 303.745 204.509 303.541C204.275 303.337 204.089 303.082 203.951 302.776C203.819 302.47 203.753 302.113 203.753 301.705C203.753 301.345 203.849 301 204.041 300.67C204.239 300.334 204.557 300.034 204.995 299.77C205.439 299.506 206.015 299.29 206.723 299.122C207.437 298.954 208.313 298.858 209.351 298.834V298.168C209.351 297.478 209.204 296.962 208.91 296.62C208.616 296.278 208.184 296.107 207.614 296.107C207.23 296.107 206.906 296.155 206.642 296.251C206.384 296.347 206.159 296.455 205.967 296.575C205.781 296.689 205.616 296.794 205.472 296.89C205.334 296.986 205.19 297.034 205.04 297.034C204.92 297.034 204.815 297.001 204.725 296.935C204.641 296.869 204.572 296.791 204.518 296.701L204.203 296.134ZM215.067 296.125C215.265 295.915 215.472 295.723 215.688 295.549C215.904 295.375 216.132 295.228 216.372 295.108C216.618 294.982 216.879 294.886 217.155 294.82C217.437 294.748 217.737 294.712 218.055 294.712C218.559 294.712 219 294.796 219.378 294.964C219.762 295.132 220.083 295.369 220.341 295.675C220.599 295.975 220.794 296.338 220.926 296.764C221.058 297.19 221.124 297.661 221.124 298.177V304H219.36V298.177C219.36 297.523 219.21 297.016 218.91 296.656C218.61 296.29 218.151 296.107 217.533 296.107C217.083 296.107 216.66 296.215 216.264 296.431C215.874 296.641 215.511 296.929 215.175 297.295V304H213.42V294.856H214.473C214.719 294.856 214.872 294.973 214.932 295.207L215.067 296.125ZM231.255 294.856L226.179 306.655C226.125 306.787 226.053 306.889 225.963 306.961C225.873 307.033 225.741 307.069 225.567 307.069H224.262L225.936 303.424L222.183 294.856H223.713C223.863 294.856 223.98 294.892 224.064 294.964C224.148 295.036 224.208 295.117 224.244 295.207L226.566 300.697C226.614 300.835 226.659 300.976 226.701 301.12C226.749 301.258 226.788 301.396 226.818 301.534C226.86 301.39 226.905 301.249 226.953 301.111C227.001 300.967 227.052 300.826 227.106 300.688L229.347 295.207C229.389 295.105 229.455 295.021 229.545 294.955C229.635 294.889 229.737 294.856 229.851 294.856H231.255ZM236.711 304V294.856H237.764C238.01 294.856 238.163 294.973 238.223 295.207L238.349 296.08C238.685 295.678 239.057 295.351 239.465 295.099C239.879 294.841 240.362 294.712 240.914 294.712C241.52 294.712 242.012 294.88 242.39 295.216C242.768 295.546 243.044 295.996 243.218 296.566C243.35 296.242 243.521 295.963 243.731 295.729C243.941 295.495 244.175 295.303 244.433 295.153C244.691 295.003 244.964 294.892 245.252 294.82C245.546 294.748 245.843 294.712 246.143 294.712C246.629 294.712 247.061 294.79 247.439 294.946C247.823 295.096 248.147 295.318 248.411 295.612C248.675 295.906 248.876 296.269 249.014 296.701C249.152 297.133 249.221 297.625 249.221 298.177V304H247.457V298.177C247.457 297.493 247.307 296.977 247.007 296.629C246.713 296.281 246.281 296.107 245.711 296.107C245.459 296.107 245.219 296.152 244.991 296.242C244.763 296.326 244.562 296.455 244.388 296.629C244.22 296.803 244.085 297.019 243.983 297.277C243.887 297.535 243.839 297.835 243.839 298.177V304H242.075V298.177C242.075 297.469 241.934 296.947 241.652 296.611C241.37 296.275 240.956 296.107 240.41 296.107C240.032 296.107 239.681 296.206 239.357 296.404C239.033 296.602 238.736 296.872 238.466 297.214V304H236.711ZM255.479 294.712C256.151 294.712 256.757 294.823 257.297 295.045C257.843 295.261 258.305 295.576 258.683 295.99C259.067 296.398 259.361 296.893 259.565 297.475C259.769 298.051 259.871 298.699 259.871 299.419C259.871 300.139 259.769 300.79 259.565 301.372C259.361 301.954 259.067 302.449 258.683 302.857C258.305 303.265 257.843 303.58 257.297 303.802C256.757 304.018 256.151 304.126 255.479 304.126C254.801 304.126 254.189 304.018 253.643 303.802C253.103 303.58 252.641 303.265 252.257 302.857C251.873 302.449 251.576 301.954 251.366 301.372C251.162 300.79 251.06 300.139 251.06 299.419C251.06 298.699 251.162 298.051 251.366 297.475C251.576 296.893 251.873 296.398 252.257 295.99C252.641 295.576 253.103 295.261 253.643 295.045C254.189 294.823 254.801 294.712 255.479 294.712ZM255.479 302.758C256.343 302.758 256.988 302.467 257.414 301.885C257.84 301.303 258.053 300.484 258.053 299.428C258.053 298.372 257.84 297.553 257.414 296.971C256.988 296.383 256.343 296.089 255.479 296.089C254.603 296.089 253.949 296.383 253.517 296.971C253.091 297.553 252.878 298.372 252.878 299.428C252.878 300.484 253.091 301.303 253.517 301.885C253.949 302.467 254.603 302.758 255.479 302.758ZM263.486 296.611C263.78 296.011 264.134 295.54 264.548 295.198C264.962 294.856 265.46 294.685 266.042 294.685C266.24 294.685 266.426 294.709 266.6 294.757C266.78 294.799 266.936 294.865 267.068 294.955L266.951 296.278C266.909 296.44 266.81 296.521 266.654 296.521C266.57 296.521 266.444 296.506 266.276 296.476C266.108 296.44 265.928 296.422 265.736 296.422C265.454 296.422 265.205 296.464 264.989 296.548C264.773 296.626 264.578 296.746 264.404 296.908C264.236 297.064 264.086 297.259 263.954 297.493C263.822 297.721 263.699 297.982 263.585 298.276V304H261.83V294.856H262.838C263.03 294.856 263.159 294.892 263.225 294.964C263.297 295.03 263.348 295.15 263.378 295.324L263.486 296.611ZM274.144 298.411C274.144 298.063 274.093 297.742 273.991 297.448C273.895 297.154 273.751 296.899 273.559 296.683C273.367 296.467 273.133 296.299 272.857 296.179C272.581 296.059 272.263 295.999 271.903 295.999C271.165 295.999 270.583 296.212 270.157 296.638C269.737 297.064 269.47 297.655 269.356 298.411H274.144ZM275.593 302.695C275.377 302.947 275.128 303.166 274.846 303.352C274.564 303.532 274.264 303.679 273.946 303.793C273.628 303.907 273.298 303.991 272.956 304.045C272.62 304.099 272.287 304.126 271.957 304.126C271.327 304.126 270.742 304.021 270.202 303.811C269.668 303.595 269.203 303.283 268.807 302.875C268.417 302.461 268.111 301.951 267.889 301.345C267.673 300.733 267.565 300.031 267.565 299.239C267.565 298.603 267.664 298.012 267.862 297.466C268.06 296.914 268.342 296.434 268.708 296.026C269.08 295.618 269.533 295.297 270.067 295.063C270.601 294.829 271.201 294.712 271.867 294.712C272.425 294.712 272.938 294.805 273.406 294.991C273.88 295.171 274.288 295.435 274.63 295.783C274.972 296.131 275.239 296.56 275.431 297.07C275.629 297.58 275.728 298.162 275.728 298.816C275.728 299.086 275.698 299.269 275.638 299.365C275.578 299.455 275.467 299.5 275.305 299.5H269.311C269.329 300.046 269.407 300.523 269.545 300.931C269.683 301.333 269.872 301.669 270.112 301.939C270.358 302.209 270.649 302.41 270.985 302.542C271.321 302.674 271.696 302.74 272.11 302.74C272.5 302.74 272.836 302.695 273.118 302.605C273.406 302.515 273.652 302.419 273.856 302.317C274.066 302.209 274.24 302.11 274.378 302.02C274.522 301.93 274.648 301.885 274.756 301.885C274.9 301.885 275.011 301.939 275.089 302.047L275.593 302.695Z" fill="white"/>
<path d="M110.76 202.944C111.571 202.901 112.125 202.72 112.424 202.4C112.723 202.059 112.883 201.6 112.904 201.024C112.947 200.427 112.968 199.755 112.968 199.008V185.184C112.968 184.288 113 183.52 113.064 182.88C112.68 182.901 112.296 182.923 111.912 182.944C111.528 182.965 111.144 182.987 110.76 183.008V181.6L118.312 181.568C120.893 181.547 123.155 181.941 125.096 182.752C127.059 183.563 128.595 184.8 129.704 186.464C130.813 188.128 131.368 190.251 131.368 192.832C131.368 194.304 131.112 195.712 130.6 197.056C130.088 198.4 129.32 199.595 128.296 200.64C127.272 201.664 125.992 202.485 124.456 203.104C122.941 203.701 121.181 204 119.176 204H110.76V202.944ZM115.752 200.224C115.752 201.333 115.72 202.165 115.656 202.72C116.509 202.763 117.256 202.784 117.896 202.784C118.557 202.784 118.952 202.784 119.08 202.784C120.915 202.784 122.515 202.347 123.88 201.472C125.267 200.576 126.333 199.371 127.08 197.856C127.848 196.32 128.232 194.603 128.232 192.704C128.232 190.677 127.859 188.928 127.112 187.456C126.387 185.963 125.267 184.811 123.752 184C122.237 183.168 120.307 182.752 117.96 182.752C117.171 182.752 116.616 182.912 116.296 183.232C115.997 183.552 115.827 184 115.784 184.576C115.763 185.152 115.752 185.824 115.752 186.592V200.224ZM134.252 203.04C134.913 203.04 135.372 202.88 135.628 202.56C135.884 202.219 136.033 201.76 136.076 201.184C136.118 200.587 136.14 199.904 136.14 199.136V191.84C136.14 191.499 136.15 191.179 136.172 190.88C136.193 190.56 136.225 190.187 136.268 189.76C135.884 189.781 135.5 189.803 135.116 189.824C134.753 189.845 134.38 189.867 133.996 189.888V188.544C134.934 188.544 135.66 188.501 136.172 188.416C136.684 188.331 137.068 188.224 137.324 188.096C137.601 187.968 137.814 187.829 137.964 187.68H138.892V200.608C138.892 201.035 138.881 201.419 138.86 201.76C138.86 202.08 138.828 202.421 138.764 202.784C139.105 202.763 139.436 202.752 139.756 202.752C140.097 202.731 140.438 202.709 140.78 202.688V204H134.252V203.04ZM137.356 184.512C136.908 184.512 136.513 184.331 136.172 183.968C135.83 183.605 135.66 183.157 135.66 182.624C135.66 182.091 135.83 181.643 136.172 181.28C136.534 180.896 136.94 180.704 137.388 180.704C137.878 180.704 138.284 180.896 138.604 181.28C138.945 181.643 139.116 182.091 139.116 182.624C139.116 183.157 138.934 183.605 138.572 183.968C138.23 184.331 137.825 184.512 137.356 184.512ZM149.812 204.512C148.745 204.512 147.796 204.363 146.964 204.064C146.132 203.787 145.449 203.467 144.916 203.104L145.044 204.224H143.7L143.508 198.72H144.5C144.542 199.595 144.788 200.384 145.236 201.088C145.684 201.771 146.26 202.304 146.964 202.688C147.668 203.072 148.425 203.264 149.236 203.264C149.79 203.264 150.334 203.179 150.868 203.008C151.401 202.816 151.849 202.539 152.212 202.176C152.574 201.792 152.756 201.312 152.756 200.736C152.756 200.139 152.574 199.648 152.212 199.264C151.87 198.859 151.412 198.507 150.836 198.208C150.26 197.909 149.641 197.632 148.98 197.376C148.126 197.035 147.273 196.672 146.42 196.288C145.588 195.883 144.894 195.36 144.34 194.72C143.785 194.059 143.508 193.195 143.508 192.128C143.508 191.68 143.593 191.189 143.764 190.656C143.934 190.123 144.222 189.621 144.628 189.152C145.033 188.661 145.588 188.267 146.292 187.968C146.996 187.648 147.892 187.488 148.98 187.488C149.556 187.488 150.196 187.584 150.9 187.776C151.604 187.968 152.286 188.331 152.948 188.864L152.884 187.648H154.228V193.248H153.204C153.161 192.501 152.99 191.787 152.692 191.104C152.393 190.4 151.956 189.824 151.38 189.376C150.804 188.907 150.057 188.672 149.14 188.672C148.158 188.672 147.39 188.917 146.836 189.408C146.281 189.899 146.004 190.464 146.004 191.104C146.004 191.765 146.206 192.32 146.612 192.768C147.038 193.195 147.582 193.568 148.244 193.888C148.905 194.208 149.609 194.517 150.356 194.816C151.166 195.157 151.956 195.531 152.724 195.936C153.492 196.341 154.121 196.853 154.612 197.472C155.102 198.069 155.348 198.848 155.348 199.808C155.348 200.875 155.07 201.76 154.516 202.464C153.982 203.168 153.289 203.68 152.436 204C151.604 204.341 150.729 204.512 149.812 204.512ZM165.872 204.512C164.443 204.512 163.12 204.192 161.904 203.552C160.71 202.891 159.75 201.952 159.024 200.736C158.32 199.499 157.968 198.016 157.968 196.288C157.968 195.179 158.171 194.101 158.576 193.056C158.982 192.011 159.547 191.072 160.272 190.24C161.019 189.387 161.904 188.715 162.928 188.224C163.952 187.733 165.083 187.488 166.32 187.488C167.515 187.488 168.55 187.669 169.424 188.032C170.32 188.395 171.014 188.875 171.504 189.472C171.995 190.069 172.24 190.72 172.24 191.424C172.24 191.893 172.112 192.299 171.856 192.64C171.6 192.96 171.227 193.12 170.736 193.12C170.203 193.141 169.819 192.981 169.584 192.64C169.371 192.277 169.264 191.957 169.264 191.68C169.264 191.467 169.296 191.253 169.36 191.04C169.424 190.805 169.552 190.592 169.744 190.4C169.574 189.888 169.275 189.515 168.848 189.28C168.422 189.024 167.974 188.864 167.504 188.8C167.056 188.715 166.683 188.672 166.384 188.672C164.934 188.672 163.707 189.259 162.704 190.432C161.723 191.584 161.232 193.269 161.232 195.488C161.232 196.917 161.456 198.187 161.904 199.296C162.374 200.405 163.024 201.28 163.856 201.92C164.688 202.539 165.648 202.848 166.736 202.848C167.739 202.848 168.699 202.581 169.616 202.048C170.534 201.515 171.248 200.864 171.76 200.096L172.592 200.736C172.038 201.632 171.366 202.357 170.576 202.912C169.808 203.467 169.008 203.872 168.176 204.128C167.366 204.384 166.598 204.512 165.872 204.512ZM182.875 204.512C181.382 204.512 180.027 204.171 178.811 203.488C177.595 202.784 176.625 201.824 175.899 200.608C175.195 199.371 174.843 197.963 174.843 196.384C174.843 194.699 175.195 193.184 175.899 191.84C176.603 190.496 177.563 189.44 178.779 188.672C179.995 187.883 181.361 187.488 182.875 187.488C184.369 187.488 185.723 187.851 186.939 188.576C188.155 189.28 189.126 190.24 189.851 191.456C190.577 192.672 190.939 194.059 190.939 195.616C190.939 197.259 190.577 198.763 189.851 200.128C189.147 201.472 188.187 202.539 186.971 203.328C185.755 204.117 184.39 204.512 182.875 204.512ZM183.131 203.232C184.262 203.232 185.158 202.912 185.819 202.272C186.481 201.632 186.95 200.8 187.227 199.776C187.526 198.752 187.675 197.675 187.675 196.544C187.675 195.584 187.579 194.645 187.387 193.728C187.217 192.789 186.939 191.947 186.555 191.2C186.171 190.432 185.67 189.824 185.051 189.376C184.454 188.928 183.729 188.704 182.875 188.704C181.766 188.704 180.859 189.024 180.155 189.664C179.451 190.304 178.929 191.136 178.587 192.16C178.267 193.184 178.107 194.283 178.107 195.456C178.107 196.779 178.289 198.037 178.651 199.232C179.014 200.405 179.569 201.365 180.315 202.112C181.062 202.859 182.001 203.232 183.131 203.232ZM199.582 204.096L195.006 193.664C194.472 192.448 194.12 191.499 193.95 190.816C193.779 190.112 193.683 189.579 193.662 189.216L192.286 189.312V188H198.174V188.96C197.534 188.96 197.118 189.131 196.926 189.472C196.755 189.792 196.734 190.229 196.862 190.784C196.99 191.317 197.182 191.893 197.438 192.512L199.902 198.144C200.072 198.507 200.232 198.891 200.382 199.296C200.552 199.68 200.712 200.085 200.862 200.512H200.894C201 200.192 201.118 199.851 201.246 199.488C201.395 199.125 201.523 198.773 201.63 198.432L204.19 191.424C204.36 190.912 204.542 190.464 204.734 190.08C204.926 189.696 205.064 189.408 205.15 189.216L203.102 189.312V188H208.158V188.96C207.454 188.96 206.899 189.323 206.494 190.048C206.088 190.752 205.608 191.829 205.054 193.28L200.862 204.096H199.582ZM217.246 204.512C215.774 204.512 214.44 204.171 213.246 203.488C212.072 202.784 211.144 201.803 210.462 200.544C209.779 199.264 209.438 197.76 209.438 196.032C209.438 194.539 209.768 193.141 210.43 191.84C211.112 190.539 212.062 189.493 213.278 188.704C214.494 187.893 215.902 187.488 217.502 187.488C218.696 187.488 219.784 187.744 220.766 188.256C221.747 188.768 222.526 189.547 223.102 190.592C223.699 191.637 223.998 192.96 223.998 194.56L212.734 194.752C212.712 197.205 213.118 199.179 213.95 200.672C214.782 202.144 216.136 202.88 218.014 202.88C218.675 202.88 219.347 202.763 220.03 202.528C220.734 202.293 221.384 201.973 221.982 201.568C222.579 201.163 223.059 200.715 223.422 200.224L224.19 200.864C223.614 201.76 222.92 202.475 222.11 203.008C221.299 203.541 220.467 203.925 219.614 204.16C218.76 204.395 217.971 204.512 217.246 204.512ZM212.83 193.408H220.99C220.99 192.64 220.872 191.904 220.638 191.2C220.424 190.475 220.062 189.888 219.55 189.44C219.038 188.971 218.366 188.736 217.534 188.736C216.296 188.736 215.262 189.109 214.43 189.856C213.619 190.581 213.086 191.765 212.83 193.408ZM226.846 203.04C227.507 203.04 227.966 202.88 228.222 202.56C228.478 202.219 228.627 201.76 228.67 201.184C228.712 200.587 228.734 199.904 228.734 199.136V191.84C228.734 191.499 228.734 191.157 228.734 190.816C228.755 190.475 228.798 190.123 228.862 189.76C228.478 189.781 228.094 189.803 227.71 189.824C227.347 189.824 226.974 189.835 226.59 189.856V188.544H227.582C228.499 188.544 229.128 188.459 229.47 188.288C229.832 188.096 230.131 187.893 230.366 187.68H231.294C231.336 188.021 231.368 188.448 231.39 188.96C231.411 189.451 231.432 190.08 231.454 190.848C231.774 190.315 232.211 189.792 232.766 189.28C233.32 188.768 233.939 188.341 234.622 188C235.326 187.659 236.062 187.488 236.83 187.488C237.427 187.488 237.95 187.648 238.398 187.968C238.846 188.288 239.07 188.8 239.07 189.504C239.07 189.781 238.942 190.112 238.686 190.496C238.451 190.88 238.046 191.061 237.47 191.04C237 191.019 236.627 190.837 236.35 190.496C236.072 190.133 235.966 189.717 236.03 189.248C235.219 189.205 234.398 189.515 233.566 190.176C232.734 190.837 232.04 191.691 231.486 192.736L231.518 200.608C231.518 201.035 231.507 201.419 231.486 201.76C231.486 202.08 231.454 202.421 231.39 202.784C231.731 202.763 232.062 202.752 232.382 202.752C232.723 202.731 233.064 202.709 233.406 202.688V204H226.846V203.04ZM249.448 204V202.944C250.258 202.901 250.813 202.72 251.112 202.4C251.41 202.059 251.57 201.6 251.592 201.024C251.634 200.427 251.656 199.755 251.656 199.008V185.184C251.656 184.288 251.688 183.52 251.752 182.88C251.368 182.901 250.984 182.923 250.6 182.944C250.216 182.965 249.832 182.987 249.448 183.008V181.6H256.648V182.656C255.858 182.677 255.304 182.859 254.984 183.2C254.685 183.541 254.514 184 254.472 184.576C254.45 185.152 254.44 185.824 254.44 186.592V200.32C254.44 201.429 254.408 202.261 254.344 202.816L260.328 202.72C261.672 202.699 262.685 202.272 263.368 201.44C264.072 200.608 264.424 199.253 264.424 197.376H265.512L265.319 204H249.448ZM275.34 204.512C273.868 204.512 272.534 204.171 271.34 203.488C270.166 202.784 269.238 201.803 268.556 200.544C267.873 199.264 267.532 197.76 267.532 196.032C267.532 194.539 267.862 193.141 268.524 191.84C269.206 190.539 270.156 189.493 271.372 188.704C272.588 187.893 273.996 187.488 275.595 187.488C276.79 187.488 277.878 187.744 278.86 188.256C279.841 188.768 280.62 189.547 281.196 190.592C281.793 191.637 282.092 192.96 282.092 194.56L270.828 194.752C270.806 197.205 271.212 199.179 272.044 200.672C272.876 202.144 274.23 202.88 276.108 202.88C276.769 202.88 277.441 202.763 278.124 202.528C278.828 202.293 279.478 201.973 280.076 201.568C280.673 201.163 281.153 200.715 281.516 200.224L282.284 200.864C281.708 201.76 281.014 202.475 280.204 203.008C279.393 203.541 278.561 203.925 277.708 204.16C276.854 204.395 276.065 204.512 275.34 204.512ZM270.924 193.408H279.084C279.084 192.64 278.966 191.904 278.732 191.2C278.518 190.475 278.156 189.888 277.644 189.44C277.132 188.971 276.46 188.736 275.628 188.736C274.39 188.736 273.356 189.109 272.524 189.856C271.713 190.581 271.18 191.765 270.924 193.408ZM294.605 204C294.541 203.637 294.498 203.317 294.477 203.04C294.455 202.763 294.423 202.475 294.381 202.176C293.655 202.901 292.866 203.477 292.013 203.904C291.181 204.309 290.295 204.512 289.357 204.512C287.735 204.512 286.53 204.149 285.741 203.424C284.951 202.677 284.557 201.771 284.557 200.704C284.557 199.723 284.855 198.88 285.453 198.176C286.071 197.451 286.861 196.864 287.821 196.416C288.802 195.947 289.858 195.605 290.989 195.392C292.141 195.157 293.25 195.051 294.317 195.072V193.088C294.317 192.341 294.253 191.637 294.125 190.976C293.997 190.315 293.719 189.771 293.293 189.344C292.866 188.917 292.183 188.693 291.245 188.672C290.626 188.651 289.986 188.768 289.325 189.024C288.685 189.28 288.215 189.717 287.917 190.336C288.087 190.507 288.194 190.709 288.237 190.944C288.301 191.157 288.333 191.36 288.333 191.552C288.333 191.808 288.226 192.107 288.013 192.448C287.799 192.768 287.426 192.917 286.893 192.896C286.445 192.896 286.103 192.747 285.869 192.448C285.634 192.128 285.517 191.755 285.517 191.328C285.517 190.603 285.783 189.952 286.317 189.376C286.871 188.8 287.629 188.341 288.589 188C289.549 187.659 290.637 187.488 291.853 187.488C293.645 187.488 294.967 187.968 295.821 188.928C296.674 189.867 297.09 191.36 297.069 193.408C297.069 194.603 297.058 195.808 297.037 197.024C297.037 198.219 297.037 199.413 297.037 200.608C297.037 200.949 297.026 201.291 297.005 201.632C296.983 201.973 296.951 202.357 296.909 202.784C297.293 202.763 297.666 202.741 298.029 202.72C298.413 202.699 298.797 202.677 299.181 202.656V204H294.605ZM294.317 196.16C293.591 196.181 292.823 196.277 292.013 196.448C291.223 196.597 290.487 196.832 289.805 197.152C289.143 197.472 288.599 197.899 288.173 198.432C287.767 198.944 287.575 199.573 287.597 200.32C287.639 201.109 287.895 201.707 288.365 202.112C288.855 202.496 289.431 202.688 290.093 202.688C290.967 202.688 291.725 202.528 292.365 202.208C293.026 201.867 293.677 201.397 294.317 200.8C294.295 200.565 294.285 200.309 294.285 200.032C294.285 199.755 294.285 199.467 294.285 199.168C294.285 199.061 294.285 198.72 294.285 198.144C294.306 197.568 294.317 196.907 294.317 196.16ZM301.377 203.04C302.038 203.04 302.497 202.88 302.753 202.56C303.009 202.219 303.158 201.76 303.201 201.184C303.243 200.587 303.265 199.904 303.265 199.136V191.84C303.265 191.499 303.265 191.157 303.265 190.816C303.286 190.475 303.329 190.123 303.393 189.76C303.009 189.781 302.625 189.803 302.241 189.824C301.878 189.824 301.505 189.835 301.121 189.856V188.544H302.113C303.03 188.544 303.659 188.459 304.001 188.288C304.363 188.096 304.662 187.893 304.897 187.68H305.825C305.867 188.021 305.899 188.448 305.921 188.96C305.942 189.451 305.963 190.08 305.985 190.848C306.305 190.315 306.742 189.792 307.297 189.28C307.851 188.768 308.47 188.341 309.153 188C309.857 187.659 310.593 187.488 311.361 187.488C311.958 187.488 312.481 187.648 312.929 187.968C313.377 188.288 313.601 188.8 313.601 189.504C313.601 189.781 313.473 190.112 313.217 190.496C312.982 190.88 312.577 191.061 312.001 191.04C311.531 191.019 311.158 190.837 310.881 190.496C310.603 190.133 310.497 189.717 310.561 189.248C309.75 189.205 308.929 189.515 308.097 190.176C307.265 190.837 306.571 191.691 306.017 192.736L306.049 200.608C306.049 201.035 306.038 201.419 306.017 201.76C306.017 202.08 305.985 202.421 305.921 202.784C306.262 202.763 306.593 202.752 306.913 202.752C307.254 202.731 307.595 202.709 307.937 202.688V204H301.377V203.04ZM315.221 204V203.04C315.882 203.04 316.341 202.88 316.597 202.56C316.853 202.219 317.002 201.76 317.045 201.184C317.087 200.587 317.109 199.904 317.109 199.136L317.141 191.84C317.141 191.499 317.141 191.157 317.141 190.816C317.162 190.475 317.205 190.123 317.269 189.76C316.885 189.781 316.501 189.803 316.117 189.824C315.754 189.845 315.381 189.867 314.997 189.888V188.544C315.935 188.544 316.639 188.501 317.109 188.416C317.599 188.331 317.962 188.224 318.197 188.096C318.431 187.968 318.623 187.829 318.773 187.68H319.701C319.743 187.915 319.765 188.192 319.765 188.512C319.786 188.811 319.807 189.184 319.829 189.632C320.511 189.013 321.322 188.501 322.26 188.096C323.199 187.691 324.127 187.488 325.045 187.488C326.901 187.488 328.255 188.075 329.109 189.248C329.962 190.4 330.389 192.203 330.389 194.656V200.608C330.389 201.035 330.378 201.419 330.357 201.76C330.357 202.08 330.325 202.421 330.26 202.784C330.602 202.763 330.933 202.752 331.253 202.752C331.594 202.731 331.935 202.709 332.277 202.688V204H325.749V203.04C326.41 203.04 326.869 202.88 327.125 202.56C327.381 202.219 327.53 201.76 327.573 201.184C327.615 200.587 327.637 199.904 327.637 199.136V194.656C327.615 192.821 327.306 191.435 326.709 190.496C326.133 189.557 325.215 189.099 323.957 189.12C323.189 189.141 322.431 189.344 321.685 189.728C320.959 190.112 320.351 190.603 319.861 191.2C319.882 191.371 319.893 191.563 319.893 191.776C319.893 191.989 319.893 192.213 319.893 192.448L319.861 200.608C319.861 201.035 319.85 201.419 319.829 201.76C319.829 202.08 319.797 202.421 319.733 202.784C320.074 202.763 320.405 202.752 320.725 202.752C321.066 202.731 321.407 202.709 321.749 202.688V204H315.221Z" fill="white"/>
<g opacity="0.2">
<mask id="mask0" mask-type="alpha" maskUnits="userSpaceOnUse" x="278" y="44" width="90" height="90">
<rect x="278.5" y="44.5" width="89" height="89" fill="#C4C4C4" stroke="white"/>
</mask>
<g mask="url(#mask0)">
<path d="M230.499 81.6896L314.383 181.658" stroke="white" stroke-width="2"/>
<path d="M239.692 73.9762L323.575 173.945" stroke="white" stroke-width="2"/>
<path d="M248.884 66.2628L332.768 166.232" stroke="white" stroke-width="2"/>
<path d="M258.077 58.5493L341.961 158.518" stroke="white" stroke-width="2"/>
<path d="M267.269 50.8358L351.153 150.805" stroke="white" stroke-width="2"/>
<path d="M276.462 43.1224L360.346 143.091" stroke="white" stroke-width="2"/>
<path d="M285.654 35.4089L369.538 135.378" stroke="white" stroke-width="2"/>
<path d="M294.847 27.6955L378.731 127.664" stroke="white" stroke-width="2"/>
<path d="M304.039 19.9821L387.923 119.951" stroke="white" stroke-width="2"/>
<path d="M313.232 12.2686L397.116 112.237" stroke="white" stroke-width="2"/>
<path d="M322.424 4.55511L406.308 104.524" stroke="white" stroke-width="2"/>
<path d="M331.617 -3.15833L415.501 96.8105" stroke="white" stroke-width="2"/>
</g>
</g>
<defs>
<filter id="filter0_f" x="0" y="0" width="419" height="552" filterUnits="userSpaceOnUse" color-interpolation-filters="sRGB">
<feFlood flood-opacity="0" result="BackgroundImageFix"/>
<feBlend mode="normal" in="SourceGraphic" in2="BackgroundImageFix" result="shape"/>
<feGaussianBlur stdDeviation="24" result="effect1_foregroundBlur"/>
</filter>
</defs>
</svg>
