<svg width="92" height="19" viewBox="0 0 92 19" fill="none" xmlns="http://www.w3.org/2000/svg">
<path d="M91.2371 10.3087L82.033 18.3623C81.7373 18.6201 81.3677 18.7489 80.998 18.7489C80.6284 18.7489 80.2587 18.6201 79.963 18.3623C79.3716 17.8469 79.3716 17.0415 79.963 16.5261L86.6536 10.663H65.0665C64.2532 10.663 63.5879 10.0832 63.5879 9.37446C63.5879 8.66574 64.2532 8.08588 65.0665 8.08588H86.6536L79.963 2.22282C79.3716 1.70738 79.3716 0.90201 79.963 0.386576C80.5545 -0.128859 81.4786 -0.128859 82.07 0.386576L91.2741 8.44024C91.8286 8.98789 91.8285 9.82547 91.2371 10.3087Z" fill="#87C405"/>
<rect x="-0.00012207" y="7.91675" width="88.7142" height="3.22092" rx="1.61046" fill="#87C405"/>
</svg>
