<svg width="154" height="72" viewBox="0 0 154 72" fill="none" xmlns="http://www.w3.org/2000/svg">
<path d="M20.769 54.9938C35.3709 62.8347 69.0527 56.4931 69.0527 56.4931C69.0527 56.4931 65.0075 19.0725 51.6308 8.43346C38.2541 -2.20556 18.0503 12.861 10.6445 25.1275C3.23875 37.394 6.16682 47.1519 20.769 54.9938Z" fill="#F1EFFC"/>
<path d="M82.704 30.4296C80.742 30.4296 79.32 30.9786 78.438 32.0766C77.574 33.1566 77.142 34.6416 77.142 36.5316C77.142 37.4496 77.25 38.2866 77.466 39.0426C77.682 39.7806 78.006 40.4196 78.438 40.9596C78.87 41.4996 79.41 41.9226 80.058 42.2286C80.706 42.5166 81.462 42.6606 82.326 42.6606C82.794 42.6606 83.19 42.6516 83.514 42.6336C83.856 42.6156 84.153 42.5796 84.405 42.5256V36.0186H88.617V45.2796C88.113 45.4776 87.303 45.6846 86.187 45.9006C85.071 46.1346 83.694 46.2516 82.056 46.2516C80.652 46.2516 79.374 46.0356 78.222 45.6036C77.088 45.1716 76.116 44.5416 75.306 43.7136C74.496 42.8856 73.866 41.8686 73.416 40.6626C72.984 39.4566 72.768 38.0796 72.768 36.5316C72.768 34.9656 73.011 33.5796 73.497 32.3736C73.983 31.1676 74.649 30.1506 75.495 29.3226C76.341 28.4766 77.331 27.8376 78.465 27.4056C79.617 26.9736 80.841 26.7576 82.137 26.7576C83.019 26.7576 83.811 26.8206 84.513 26.9466C85.233 27.0546 85.845 27.1896 86.349 27.3516C86.871 27.4956 87.294 27.6486 87.618 27.8106C87.96 27.9726 88.203 28.0986 88.347 28.1886L87.132 31.5636C86.556 31.2576 85.89 30.9966 85.134 30.7806C84.396 30.5466 83.586 30.4296 82.704 30.4296ZM104.389 45.4146C103.705 45.6126 102.823 45.7926 101.743 45.9546C100.663 46.1346 99.529 46.2246 98.341 46.2246C97.135 46.2246 96.127 46.0626 95.317 45.7386C94.525 45.4146 93.895 44.9646 93.427 44.3886C92.959 43.7946 92.626 43.0926 92.428 42.2826C92.23 41.4726 92.131 40.5816 92.131 39.6096V31.6986H96.154V39.1236C96.154 40.4196 96.325 41.3556 96.667 41.9316C97.009 42.5076 97.648 42.7956 98.584 42.7956C98.872 42.7956 99.178 42.7866 99.502 42.7686C99.826 42.7326 100.114 42.6966 100.366 42.6606V31.6986H104.389V45.4146ZM112.188 45.9006H108.165V31.6986H112.188V45.9006ZM112.566 27.5946C112.566 28.3326 112.323 28.9176 111.837 29.3496C111.369 29.7636 110.811 29.9706 110.163 29.9706C109.515 29.9706 108.948 29.7636 108.462 29.3496C107.994 28.9176 107.76 28.3326 107.76 27.5946C107.76 26.8566 107.994 26.2806 108.462 25.8666C108.948 25.4346 109.515 25.2186 110.163 25.2186C110.811 25.2186 111.369 25.4346 111.837 25.8666C112.323 26.2806 112.566 26.8566 112.566 27.5946ZM119.399 38.6916C119.399 39.9336 119.678 40.9326 120.236 41.6886C120.794 42.4446 121.622 42.8226 122.72 42.8226C123.08 42.8226 123.413 42.8136 123.719 42.7956C124.025 42.7596 124.277 42.7236 124.475 42.6876V35.3706C124.223 35.2086 123.89 35.0736 123.476 34.9656C123.08 34.8576 122.675 34.8036 122.261 34.8036C120.353 34.8036 119.399 36.0996 119.399 38.6916ZM128.498 45.4416C128.138 45.5496 127.724 45.6576 127.256 45.7656C126.788 45.8556 126.293 45.9366 125.771 46.0086C125.267 46.0806 124.745 46.1346 124.205 46.1706C123.683 46.2246 123.179 46.2516 122.693 46.2516C121.523 46.2516 120.479 46.0806 119.561 45.7386C118.643 45.3966 117.869 44.9106 117.239 44.2806C116.609 43.6326 116.123 42.8586 115.781 41.9586C115.457 41.0406 115.295 40.0146 115.295 38.8806C115.295 37.7286 115.439 36.6936 115.727 35.7756C116.015 34.8396 116.429 34.0476 116.969 33.3996C117.509 32.7516 118.166 32.2566 118.94 31.9146C119.732 31.5726 120.632 31.4016 121.64 31.4016C122.198 31.4016 122.693 31.4556 123.125 31.5636C123.575 31.6716 124.025 31.8246 124.475 32.0226V25.5966L128.498 24.9486V45.4416ZM131.59 38.9076C131.59 37.6476 131.779 36.5496 132.157 35.6136C132.553 34.6596 133.066 33.8676 133.696 33.2376C134.326 32.6076 135.046 32.1306 135.856 31.8066C136.684 31.4826 137.53 31.3206 138.394 31.3206C140.41 31.3206 142.003 31.9416 143.173 33.1836C144.343 34.4076 144.928 36.2166 144.928 38.6106C144.928 38.8446 144.919 39.1056 144.901 39.3936C144.883 39.6636 144.865 39.9066 144.847 40.1226H135.721C135.811 40.9506 136.198 41.6076 136.882 42.0936C137.566 42.5796 138.484 42.8226 139.636 42.8226C140.374 42.8226 141.094 42.7596 141.796 42.6336C142.516 42.4896 143.101 42.3186 143.551 42.1206L144.091 45.3876C143.875 45.4956 143.587 45.6036 143.227 45.7116C142.867 45.8196 142.462 45.9096 142.012 45.9816C141.58 46.0716 141.112 46.1436 140.608 46.1976C140.104 46.2516 139.6 46.2786 139.096 46.2786C137.818 46.2786 136.702 46.0896 135.748 45.7116C134.812 45.3336 134.029 44.8206 133.399 44.1726C132.787 43.5066 132.328 42.7236 132.022 41.8236C131.734 40.9236 131.59 39.9516 131.59 38.9076ZM141.04 37.3686C141.022 37.0266 140.959 36.6936 140.851 36.3696C140.761 36.0456 140.608 35.7576 140.392 35.5056C140.194 35.2536 139.933 35.0466 139.609 34.8846C139.303 34.7226 138.916 34.6416 138.448 34.6416C137.998 34.6416 137.611 34.7226 137.287 34.8846C136.963 35.0286 136.693 35.2266 136.477 35.4786C136.261 35.7306 136.09 36.0276 135.964 36.3696C135.856 36.6936 135.775 37.0266 135.721 37.3686H141.04ZM151.975 43.7676C151.975 44.5776 151.714 45.1986 151.192 45.6306C150.688 46.0446 150.112 46.2516 149.464 46.2516C148.816 46.2516 148.231 46.0446 147.709 45.6306C147.205 45.1986 146.953 44.5776 146.953 43.7676C146.953 42.9576 147.205 42.3456 147.709 41.9316C148.231 41.4996 148.816 41.2836 149.464 41.2836C150.112 41.2836 150.688 41.4996 151.192 41.9316C151.714 42.3456 151.975 42.9576 151.975 43.7676Z" fill="#87C405"/>
<path d="M21.168 16.4005C9.60597 28.2755 6.41797 62.4005 6.41797 62.4005C6.41797 62.4005 43.504 68.8265 57.418 58.9005C71.332 48.9745 62.418 25.4005 52.668 14.9005C42.918 4.40054 32.731 4.52554 21.168 16.4005Z" fill="#4B3C99"/>
<path d="M25.618 28.3756C28.2013 28.3756 30.1846 28.8339 31.568 29.7506C32.9513 30.6506 33.643 32.1339 33.643 34.2006C33.643 36.2839 32.943 37.7922 31.543 38.7256C30.143 39.6422 28.143 40.1006 25.543 40.1006H24.318V45.9006H20.418V28.8256C21.268 28.6589 22.168 28.5422 23.118 28.4756C24.068 28.4089 24.9013 28.3756 25.618 28.3756ZM25.868 31.7006C25.5846 31.7006 25.3013 31.7089 25.018 31.7256C24.7513 31.7422 24.518 31.7589 24.318 31.7756V36.7756H25.543C26.893 36.7756 27.9096 36.5922 28.593 36.2256C29.2763 35.8589 29.618 35.1756 29.618 34.1756C29.618 33.6922 29.5263 33.2922 29.343 32.9756C29.1763 32.6589 28.9263 32.4089 28.593 32.2256C28.2763 32.0256 27.8846 31.8922 27.418 31.8256C26.9513 31.7422 26.4346 31.7006 25.868 31.7006ZM41.1068 28.5756C41.4068 29.1256 41.7485 29.8089 42.1318 30.6256C42.5318 31.4256 42.9402 32.3006 43.3568 33.2506C43.7902 34.1839 44.2152 35.1422 44.6318 36.1256C45.0485 37.1089 45.4402 38.0339 45.8068 38.9006C46.1735 38.0339 46.5652 37.1089 46.9818 36.1256C47.3985 35.1422 47.8152 34.1839 48.2318 33.2506C48.6652 32.3006 49.0735 31.4256 49.4568 30.6256C49.8568 29.8089 50.2068 29.1256 50.5068 28.5756H54.0568C54.2235 29.7256 54.3735 31.0172 54.5068 32.4506C54.6568 33.8672 54.7818 35.3506 54.8818 36.9006C54.9985 38.4339 55.0985 39.9756 55.1818 41.5256C55.2818 43.0756 55.3652 44.5339 55.4318 45.9006H51.6318C51.5818 44.2172 51.5152 42.3839 51.4318 40.4006C51.3485 38.4172 51.2235 36.4172 51.0568 34.4006C50.7568 35.1006 50.4235 35.8756 50.0568 36.7256C49.6902 37.5756 49.3235 38.4256 48.9568 39.2756C48.6068 40.1256 48.2652 40.9422 47.9318 41.7256C47.5985 42.4922 47.3152 43.1506 47.0818 43.7006H44.3568C44.1235 43.1506 43.8402 42.4922 43.5068 41.7256C43.1735 40.9422 42.8235 40.1256 42.4568 39.2756C42.1068 38.4256 41.7485 37.5756 41.3818 36.7256C41.0152 35.8756 40.6818 35.1006 40.3818 34.4006C40.2152 36.4172 40.0902 38.4172 40.0068 40.4006C39.9235 42.3839 39.8568 44.2172 39.8068 45.9006H36.0068C36.0735 44.5339 36.1485 43.0756 36.2318 41.5256C36.3318 39.9756 36.4318 38.4339 36.5318 36.9006C36.6485 35.3506 36.7735 33.8672 36.9068 32.4506C37.0568 31.0172 37.2152 29.7256 37.3818 28.5756H41.1068Z" fill="white"/>
</svg>
