<svg width="32" height="50" viewBox="0 0 32 50" fill="none" xmlns="http://www.w3.org/2000/svg">
<mask id="mask0" mask-type="alpha" maskUnits="userSpaceOnUse" x="1" y="0" width="30" height="30">
<path fill-rule="evenodd" clip-rule="evenodd" d="M16 0C7.71573 0 1 6.71573 1 15C1 23.2843 7.71573 30 16 30C24.2843 30 31 23.2843 31 15C31 6.71573 24.2843 0 16 0ZM16 2C8.8203 2 3 7.8203 3 15C3 22.1797 8.8203 28 16 28C23.1797 28 29 22.1797 29 15C29 7.8203 23.1797 2 16 2Z" fill="white"/>
</mask>
<g mask="url(#mask0)">
<rect x="1" width="30" height="30" fill="#F0F0F0"/>
</g>
<mask id="mask1" mask-type="alpha" maskUnits="userSpaceOnUse" x="11" y="10" width="10" height="10">
<path fill-rule="evenodd" clip-rule="evenodd" d="M20.6673 15.6668H16.6673V19.6668H15.334V15.6668H11.334V14.3335H15.334V10.3335H16.6673V14.3335H20.6673V15.6668Z" fill="white"/>
</mask>
<g mask="url(#mask1)">
<rect x="7.33398" y="6.3335" width="17.3333" height="17.3333" fill="#D8D8D8"/>
</g>
<path d="M10.89 39.45H7.85L7.29 41H6.33L8.85 34.07H9.9L12.41 41H11.45L10.89 39.45ZM10.63 38.71L9.37 35.19L8.11 38.71H10.63ZM13.1683 38.24C13.1683 37.68 13.2816 37.19 13.5083 36.77C13.7349 36.3433 14.0449 36.0133 14.4383 35.78C14.8383 35.5467 15.2849 35.43 15.7783 35.43C16.2049 35.43 16.6016 35.53 16.9683 35.73C17.3349 35.9233 17.6149 36.18 17.8083 36.5V33.6H18.7283V41H17.8083V39.97C17.6283 40.2967 17.3616 40.5667 17.0083 40.78C16.6549 40.9867 16.2416 41.09 15.7683 41.09C15.2816 41.09 14.8383 40.97 14.4383 40.73C14.0449 40.49 13.7349 40.1533 13.5083 39.72C13.2816 39.2867 13.1683 38.7933 13.1683 38.24ZM17.8083 38.25C17.8083 37.8367 17.7249 37.4767 17.5583 37.17C17.3916 36.8633 17.1649 36.63 16.8783 36.47C16.5983 36.3033 16.2883 36.22 15.9483 36.22C15.6083 36.22 15.2983 36.3 15.0183 36.46C14.7383 36.62 14.5149 36.8533 14.3483 37.16C14.1816 37.4667 14.0983 37.8267 14.0983 38.24C14.0983 38.66 14.1816 39.0267 14.3483 39.34C14.5149 39.6467 14.7383 39.8833 15.0183 40.05C15.2983 40.21 15.6083 40.29 15.9483 40.29C16.2883 40.29 16.5983 40.21 16.8783 40.05C17.1649 39.8833 17.3916 39.6467 17.5583 39.34C17.7249 39.0267 17.8083 38.6633 17.8083 38.25ZM19.9261 38.24C19.9261 37.68 20.0394 37.19 20.2661 36.77C20.4928 36.3433 20.8028 36.0133 21.1961 35.78C21.5961 35.5467 22.0428 35.43 22.5361 35.43C22.9628 35.43 23.3594 35.53 23.7261 35.73C24.0928 35.9233 24.3728 36.18 24.5661 36.5V33.6H25.4861V41H24.5661V39.97C24.3861 40.2967 24.1194 40.5667 23.7661 40.78C23.4128 40.9867 22.9994 41.09 22.5261 41.09C22.0394 41.09 21.5961 40.97 21.1961 40.73C20.8028 40.49 20.4928 40.1533 20.2661 39.72C20.0394 39.2867 19.9261 38.7933 19.9261 38.24ZM24.5661 38.25C24.5661 37.8367 24.4828 37.4767 24.3161 37.17C24.1494 36.8633 23.9228 36.63 23.6361 36.47C23.3561 36.3033 23.0461 36.22 22.7061 36.22C22.3661 36.22 22.0561 36.3 21.7761 36.46C21.4961 36.62 21.2728 36.8533 21.1061 37.16C20.9394 37.4667 20.8561 37.8267 20.8561 38.24C20.8561 38.66 20.9394 39.0267 21.1061 39.34C21.2728 39.6467 21.4961 39.8833 21.7761 40.05C22.0561 40.21 22.3661 40.29 22.7061 40.29C23.0461 40.29 23.3561 40.21 23.6361 40.05C23.9228 39.8833 24.1494 39.6467 24.3161 39.34C24.4828 39.0267 24.5661 38.6633 24.5661 38.25Z" fill="#4F4F4F"/>
</svg>
