<svg width="32" height="50" viewBox="0 0 32 50" fill="none" xmlns="http://www.w3.org/2000/svg">
<mask id="mask0" mask-type="alpha" maskUnits="userSpaceOnUse" x="1" y="0" width="30" height="30">
<path fill-rule="evenodd" clip-rule="evenodd" d="M16 0C7.71573 0 1 6.71573 1 15C1 23.2843 7.71573 30 16 30C24.2843 30 31 23.2843 31 15C31 6.71573 24.2843 0 16 0ZM16 2C8.8203 2 3 7.8203 3 15C3 22.1797 8.8203 28 16 28C23.1797 28 29 22.1797 29 15C29 7.8203 23.1797 2 16 2Z" fill="white"/>
</mask>
<g mask="url(#mask0)">
<rect x="1" width="30" height="30" fill="#F0F0F0"/>
</g>
<path d="M11.84 34.08V41H10.93V35.84L8.63 41H7.99L5.68 35.83V41H4.77V34.08H5.75L8.31 39.8L10.87 34.08H11.84ZM15.7733 41.09C15.2599 41.09 14.7933 40.9733 14.3733 40.74C13.9599 40.5067 13.6333 40.1767 13.3933 39.75C13.1599 39.3167 13.0433 38.8167 13.0433 38.25C13.0433 37.69 13.1633 37.1967 13.4033 36.77C13.6499 36.3367 13.9833 36.0067 14.4033 35.78C14.8233 35.5467 15.2933 35.43 15.8133 35.43C16.3333 35.43 16.8033 35.5467 17.2233 35.78C17.6433 36.0067 17.9733 36.3333 18.2133 36.76C18.4599 37.1867 18.5833 37.6833 18.5833 38.25C18.5833 38.8167 18.4566 39.3167 18.2033 39.75C17.9566 40.1767 17.6199 40.5067 17.1933 40.74C16.7666 40.9733 16.2933 41.09 15.7733 41.09ZM15.7733 40.29C16.0999 40.29 16.4066 40.2133 16.6933 40.06C16.9799 39.9067 17.2099 39.6767 17.3833 39.37C17.5633 39.0633 17.6533 38.69 17.6533 38.25C17.6533 37.81 17.5666 37.4367 17.3933 37.13C17.2199 36.8233 16.9933 36.5967 16.7133 36.45C16.4333 36.2967 16.1299 36.22 15.8033 36.22C15.4699 36.22 15.1633 36.2967 14.8833 36.45C14.6099 36.5967 14.3899 36.8233 14.2233 37.13C14.0566 37.4367 13.9733 37.81 13.9733 38.25C13.9733 38.6967 14.0533 39.0733 14.2133 39.38C14.3799 39.6867 14.5999 39.9167 14.8733 40.07C15.1466 40.2167 15.4466 40.29 15.7733 40.29ZM20.6898 36.41C20.8498 36.0967 21.0764 35.8533 21.3698 35.68C21.6698 35.5067 22.0331 35.42 22.4598 35.42V36.36H22.2198C21.1998 36.36 20.6898 36.9133 20.6898 38.02V41H19.7798V35.52H20.6898V36.41ZM28.5102 38.05C28.5102 38.2233 28.5002 38.4067 28.4802 38.6H24.1002C24.1336 39.14 24.3169 39.5633 24.6502 39.87C24.9902 40.17 25.4002 40.32 25.8802 40.32C26.2736 40.32 26.6002 40.23 26.8602 40.05C27.1269 39.8633 27.3136 39.6167 27.4202 39.31H28.4002C28.2536 39.8367 27.9602 40.2667 27.5202 40.6C27.0802 40.9267 26.5336 41.09 25.8802 41.09C25.3602 41.09 24.8936 40.9733 24.4802 40.74C24.0736 40.5067 23.7536 40.1767 23.5202 39.75C23.2869 39.3167 23.1702 38.8167 23.1702 38.25C23.1702 37.6833 23.2836 37.1867 23.5102 36.76C23.7369 36.3333 24.0536 36.0067 24.4602 35.78C24.8736 35.5467 25.3469 35.43 25.8802 35.43C26.4002 35.43 26.8602 35.5433 27.2602 35.77C27.6602 35.9967 27.9669 36.31 28.1802 36.71C28.4002 37.1033 28.5102 37.55 28.5102 38.05ZM27.5702 37.86C27.5702 37.5133 27.4936 37.2167 27.3402 36.97C27.1869 36.7167 26.9769 36.5267 26.7102 36.4C26.4502 36.2667 26.1602 36.2 25.8402 36.2C25.3802 36.2 24.9869 36.3467 24.6602 36.64C24.3402 36.9333 24.1569 37.34 24.1102 37.86H27.5702Z" fill="#4F4F4F"/>
<path fill-rule="evenodd" clip-rule="evenodd" d="M12 15C12 16.1046 11.1046 17 10 17C8.89543 17 8 16.1046 8 15C8 13.8954 8.89543 13 10 13C11.1046 13 12 13.8954 12 15ZM18 15C18 16.1046 17.1046 17 16 17C14.8954 17 14 16.1046 14 15C14 13.8954 14.8954 13 16 13C17.1046 13 18 13.8954 18 15ZM22 17C23.1046 17 24 16.1046 24 15C24 13.8954 23.1046 13 22 13C20.8954 13 20 13.8954 20 15C20 16.1046 20.8954 17 22 17Z" fill="#D8D8D8"/>
</svg>
