<svg width="34" height="51" viewBox="0 0 34 51" fill="none" xmlns="http://www.w3.org/2000/svg">
<mask id="mask0" mask-type="alpha" maskUnits="userSpaceOnUse" x="2" y="1" width="30" height="30">
<path fill-rule="evenodd" clip-rule="evenodd" d="M17 1C8.71573 1 2 7.71573 2 16C2 24.2843 8.71573 31 17 31C25.2843 31 32 24.2843 32 16C32 7.71573 25.2843 1 17 1ZM17 3C9.8203 3 4 8.8203 4 16C4 23.1797 9.8203 29 17 29C24.1797 29 30 23.1797 30 16C30 8.8203 24.1797 3 17 3Z" fill="white"/>
</mask>
<g mask="url(#mask0)">
<rect x="2" y="1" width="30" height="30" fill="#F0F0F0"/>
</g>
<path d="M3.98 42.07C3.52 42.07 3.10667 41.99 2.74 41.83C2.38 41.6633 2.09667 41.4367 1.89 41.15C1.68333 40.8567 1.57667 40.52 1.57 40.14H2.54C2.57333 40.4667 2.70667 40.7433 2.94 40.97C3.18 41.19 3.52667 41.3 3.98 41.3C4.41333 41.3 4.75333 41.1933 5 40.98C5.25333 40.76 5.38 40.48 5.38 40.14C5.38 39.8733 5.30667 39.6567 5.16 39.49C5.01333 39.3233 4.83 39.1967 4.61 39.11C4.39 39.0233 4.09333 38.93 3.72 38.83C3.26 38.71 2.89 38.59 2.61 38.47C2.33667 38.35 2.1 38.1633 1.9 37.91C1.70667 37.65 1.61 37.3033 1.61 36.87C1.61 36.49 1.70667 36.1533 1.9 35.86C2.09333 35.5667 2.36333 35.34 2.71 35.18C3.06333 35.02 3.46667 34.94 3.92 34.94C4.57333 34.94 5.10667 35.1033 5.52 35.43C5.94 35.7567 6.17667 36.19 6.23 36.73H5.23C5.19667 36.4633 5.05667 36.23 4.81 36.03C4.56333 35.8233 4.23667 35.72 3.83 35.72C3.45 35.72 3.14 35.82 2.9 36.02C2.66 36.2133 2.54 36.4867 2.54 36.84C2.54 37.0933 2.61 37.3 2.75 37.46C2.89667 37.62 3.07333 37.7433 3.28 37.83C3.49333 37.91 3.79 38.0033 4.17 38.11C4.63 38.2367 5 38.3633 5.28 38.49C5.56 38.61 5.8 38.8 6 39.06C6.2 39.3133 6.3 39.66 6.3 40.1C6.3 40.44 6.21 40.76 6.03 41.06C5.85 41.36 5.58333 41.6033 5.23 41.79C4.87667 41.9767 4.46 42.07 3.98 42.07ZM10.3591 36.42C10.7725 36.42 11.1458 36.51 11.4791 36.69C11.8125 36.8633 12.0725 37.1267 12.2591 37.48C12.4525 37.8333 12.5491 38.2633 12.5491 38.77V42H11.6491V38.9C11.6491 38.3533 11.5125 37.9367 11.2391 37.65C10.9658 37.3567 10.5925 37.21 10.1191 37.21C9.63914 37.21 9.25581 37.36 8.96914 37.66C8.68914 37.96 8.54914 38.3967 8.54914 38.97V42H7.63914V34.6H8.54914V37.3C8.72914 37.02 8.97581 36.8033 9.28914 36.65C9.60914 36.4967 9.96581 36.42 10.3591 36.42ZM13.6956 39.24C13.6956 38.68 13.809 38.19 14.0356 37.77C14.2623 37.3433 14.5723 37.0133 14.9656 36.78C15.3656 36.5467 15.809 36.43 16.2956 36.43C16.7756 36.43 17.1923 36.5333 17.5456 36.74C17.899 36.9467 18.1623 37.2067 18.3356 37.52V36.52H19.2556V42H18.3356V40.98C18.1556 41.3 17.8856 41.5667 17.5256 41.78C17.1723 41.9867 16.759 42.09 16.2856 42.09C15.799 42.09 15.359 41.97 14.9656 41.73C14.5723 41.49 14.2623 41.1533 14.0356 40.72C13.809 40.2867 13.6956 39.7933 13.6956 39.24ZM18.3356 39.25C18.3356 38.8367 18.2523 38.4767 18.0856 38.17C17.919 37.8633 17.6923 37.63 17.4056 37.47C17.1256 37.3033 16.8156 37.22 16.4756 37.22C16.1356 37.22 15.8256 37.3 15.5456 37.46C15.2656 37.62 15.0423 37.8533 14.8756 38.16C14.709 38.4667 14.6256 38.8267 14.6256 39.24C14.6256 39.66 14.709 40.0267 14.8756 40.34C15.0423 40.6467 15.2656 40.8833 15.5456 41.05C15.8256 41.21 16.1356 41.29 16.4756 41.29C16.8156 41.29 17.1256 41.21 17.4056 41.05C17.6923 40.8833 17.919 40.6467 18.0856 40.34C18.2523 40.0267 18.3356 39.6633 18.3356 39.25ZM21.7034 37.41C21.8634 37.0967 22.0901 36.8533 22.3834 36.68C22.6834 36.5067 23.0468 36.42 23.4734 36.42V37.36H23.2334C22.2134 37.36 21.7034 37.9133 21.7034 39.02V42H20.7934V36.52H21.7034V37.41ZM29.5239 39.05C29.5239 39.2233 29.5139 39.4067 29.4939 39.6H25.1139C25.1472 40.14 25.3306 40.5633 25.6639 40.87C26.0039 41.17 26.4139 41.32 26.8939 41.32C27.2872 41.32 27.6139 41.23 27.8739 41.05C28.1406 40.8633 28.3272 40.6167 28.4339 40.31H29.4139C29.2672 40.8367 28.9739 41.2667 28.5339 41.6C28.0939 41.9267 27.5472 42.09 26.8939 42.09C26.3739 42.09 25.9072 41.9733 25.4939 41.74C25.0872 41.5067 24.7672 41.1767 24.5339 40.75C24.3006 40.3167 24.1839 39.8167 24.1839 39.25C24.1839 38.6833 24.2972 38.1867 24.5239 37.76C24.7506 37.3333 25.0672 37.0067 25.4739 36.78C25.8872 36.5467 26.3606 36.43 26.8939 36.43C27.4139 36.43 27.8739 36.5433 28.2739 36.77C28.6739 36.9967 28.9806 37.31 29.1939 37.71C29.4139 38.1033 29.5239 38.55 29.5239 39.05ZM28.5839 38.86C28.5839 38.5133 28.5072 38.2167 28.3539 37.97C28.2006 37.7167 27.9906 37.5267 27.7239 37.4C27.4639 37.2667 27.1739 37.2 26.8539 37.2C26.3939 37.2 26.0006 37.3467 25.6739 37.64C25.3539 37.9333 25.1706 38.34 25.1239 38.86H28.5839Z" fill="#4F4F4F"/>
<mask id="mask1" mask-type="alpha" maskUnits="userSpaceOnUse" x="6" y="7" width="22" height="15">
<path fill-rule="evenodd" clip-rule="evenodd" d="M19.2039 11V7L27.1113 14L19.2039 21V16.9C13.5558 16.9 9.60207 18.5 6.778 22C7.90763 17 11.2965 12 19.2039 11Z" fill="white"/>
</mask>
<g mask="url(#mask1)">
<rect x="2.25977" y="2" width="29.3704" height="26" fill="#D8D8D8"/>
</g>
</svg>
