<svg width="26" height="13" viewBox="0 0 26 13" fill="none" xmlns="http://www.w3.org/2000/svg">
<path d="M7.40137 10H5.80176V5.89307H1.66943V10H0.0634766V0.757812H1.66943V4.60449H5.80176V0.757812H7.40137V10ZM12.1812 10.127C11.2036 10.127 10.4102 9.82015 9.80078 9.20654C9.19564 8.5887 8.89307 7.76774 8.89307 6.74365V6.55322C8.89307 5.86768 9.02425 5.25618 9.28662 4.71875C9.55322 4.17708 9.92562 3.75602 10.4038 3.45557C10.882 3.15511 11.4152 3.00488 12.0034 3.00488C12.9386 3.00488 13.6602 3.30322 14.168 3.8999C14.68 4.49658 14.936 5.34082 14.936 6.43262V7.05469H10.4482C10.4948 7.62174 10.6831 8.07031 11.0132 8.40039C11.3475 8.73047 11.7664 8.89551 12.27 8.89551C12.9767 8.89551 13.5522 8.60986 13.9966 8.03857L14.8281 8.83203C14.5531 9.24251 14.1849 9.56201 13.7236 9.79053C13.2666 10.0148 12.7524 10.127 12.1812 10.127ZM11.9971 4.24268C11.5739 4.24268 11.2311 4.39079 10.9688 4.68701C10.7106 4.98324 10.5456 5.39583 10.4736 5.9248H13.4126V5.81055C13.3787 5.29427 13.2412 4.90495 13 4.64258C12.7588 4.37598 12.4245 4.24268 11.9971 4.24268ZM17.7798 10H16.2373V0.25H17.7798V10ZM25.4795 6.63574C25.4795 7.69792 25.2383 8.54639 24.7559 9.18115C24.2734 9.81169 23.626 10.127 22.8135 10.127C22.0602 10.127 21.4572 9.87939 21.0044 9.38428V12.6406H19.4619V3.13184H20.8838L20.9473 3.83008C21.4001 3.27995 22.0158 3.00488 22.7944 3.00488C23.6323 3.00488 24.2882 3.31803 24.7622 3.94434C25.2404 4.56641 25.4795 5.4318 25.4795 6.54053V6.63574ZM23.9434 6.50244C23.9434 5.81689 23.8058 5.27311 23.5308 4.87109C23.2599 4.46908 22.8706 4.26807 22.3628 4.26807C21.7323 4.26807 21.2795 4.52832 21.0044 5.04883V8.0957C21.2837 8.62891 21.7407 8.89551 22.3755 8.89551C22.8664 8.89551 23.2493 8.69873 23.5244 8.30518C23.8037 7.90739 23.9434 7.30648 23.9434 6.50244Z" fill="#A3A3A3"/>
</svg>
