<svg width="45" height="11" viewBox="0 0 45 11" fill="none" xmlns="http://www.w3.org/2000/svg">
<path d="M7.36475 6.99121C7.27165 7.97721 6.90771 8.7474 6.27295 9.30176C5.63818 9.85189 4.79395 10.127 3.74023 10.127C3.00391 10.127 2.35433 9.95345 1.7915 9.60645C1.23291 9.25521 0.80127 8.75798 0.496582 8.11475C0.191895 7.47152 0.0332031 6.72461 0.0205078 5.87402V5.01074C0.0205078 4.139 0.174967 3.37093 0.483887 2.70654C0.792806 2.04215 1.23503 1.53011 1.81055 1.17041C2.3903 0.81071 3.05892 0.630859 3.81641 0.630859C4.83626 0.630859 5.65723 0.90804 6.2793 1.4624C6.90137 2.01676 7.26318 2.79964 7.36475 3.81104H5.76514C5.68896 3.14665 5.4943 2.66846 5.18115 2.37646C4.87223 2.08024 4.41732 1.93213 3.81641 1.93213C3.11816 1.93213 2.58073 2.18815 2.2041 2.7002C1.83171 3.20801 1.64128 3.95492 1.63281 4.94092V5.75977C1.63281 6.75846 1.81055 7.52018 2.16602 8.04492C2.52572 8.56966 3.05046 8.83203 3.74023 8.83203C4.37077 8.83203 4.84473 8.69027 5.16211 8.40674C5.47949 8.12321 5.6805 7.65137 5.76514 6.99121H7.36475ZM8.36768 6.50244C8.36768 5.82959 8.50098 5.22445 8.76758 4.68701C9.03418 4.14535 9.40869 3.73063 9.89111 3.44287C10.3735 3.15088 10.9279 3.00488 11.5542 3.00488C12.481 3.00488 13.2321 3.30322 13.8076 3.8999C14.3874 4.49658 14.7005 5.28792 14.7471 6.27393L14.7534 6.63574C14.7534 7.31283 14.6222 7.91797 14.3599 8.45117C14.1017 8.98438 13.7293 9.39697 13.2427 9.68896C12.7603 9.98096 12.2017 10.127 11.5669 10.127C10.5978 10.127 9.82129 9.80534 9.2373 9.16211C8.65755 8.51465 8.36768 7.65348 8.36768 6.57861V6.50244ZM9.91016 6.63574C9.91016 7.34245 10.0562 7.89681 10.3481 8.29883C10.6401 8.69661 11.0464 8.89551 11.5669 8.89551C12.0874 8.89551 12.4915 8.69238 12.7793 8.28613C13.0713 7.87988 13.2173 7.28532 13.2173 6.50244C13.2173 5.80843 13.0671 5.2583 12.7666 4.85205C12.4704 4.4458 12.0662 4.24268 11.5542 4.24268C11.0506 4.24268 10.6507 4.44368 10.3545 4.8457C10.0583 5.24349 9.91016 5.84017 9.91016 6.63574ZM17.4893 3.13184L17.5337 3.92529C18.0415 3.31169 18.708 3.00488 19.5332 3.00488C20.9635 3.00488 21.6914 3.82373 21.7168 5.46143V10H20.1743V5.55029C20.1743 5.11442 20.0791 4.79281 19.8887 4.58545C19.7025 4.37386 19.3957 4.26807 18.9683 4.26807C18.3462 4.26807 17.8828 4.54948 17.5781 5.1123V10H16.0356V3.13184H17.4893ZM25.2271 1.4624V3.13184H26.4395V4.27441H25.2271V8.1084C25.2271 8.37077 25.2778 8.5612 25.3794 8.67969C25.4852 8.79395 25.6714 8.85107 25.938 8.85107C26.1157 8.85107 26.2956 8.82992 26.4775 8.7876V9.98096C26.1263 10.0783 25.7878 10.127 25.4619 10.127C24.277 10.127 23.6846 9.47314 23.6846 8.16553V4.27441H22.5547V3.13184H23.6846V1.4624H25.2271ZM31.7271 10C31.6593 9.86882 31.6001 9.65511 31.5493 9.35889C31.0584 9.87093 30.4575 10.127 29.7466 10.127C29.0568 10.127 28.494 9.93018 28.0581 9.53662C27.6222 9.14307 27.4043 8.65641 27.4043 8.07666C27.4043 7.34456 27.6751 6.78385 28.2168 6.39453C28.7627 6.00098 29.5413 5.8042 30.5527 5.8042H31.4985V5.35352C31.4985 4.99805 31.3991 4.71452 31.2002 4.50293C31.0013 4.28711 30.6987 4.1792 30.2925 4.1792C29.9412 4.1792 29.6535 4.26807 29.4292 4.4458C29.2049 4.6193 29.0928 4.84147 29.0928 5.1123H27.5503C27.5503 4.73568 27.6751 4.38444 27.9248 4.05859C28.1745 3.72852 28.513 3.47038 28.9404 3.28418C29.3721 3.09798 29.8524 3.00488 30.3813 3.00488C31.1854 3.00488 31.8265 3.20801 32.3047 3.61426C32.7829 4.01628 33.0283 4.58333 33.041 5.31543V8.41309C33.041 9.03092 33.1278 9.52393 33.3013 9.89209V10H31.7271ZM30.0322 8.88916C30.3369 8.88916 30.6226 8.8151 30.8892 8.66699C31.16 8.51888 31.3631 8.31999 31.4985 8.07031V6.77539H30.667C30.0957 6.77539 29.6662 6.87484 29.3784 7.07373C29.0907 7.27262 28.9468 7.55404 28.9468 7.91797C28.9468 8.21419 29.0441 8.45117 29.2388 8.62891C29.4377 8.80241 29.7021 8.88916 30.0322 8.88916ZM37.478 8.89551C37.8631 8.89551 38.1826 8.78337 38.4365 8.55908C38.6904 8.3348 38.8258 8.05762 38.8428 7.72754H40.2964C40.2795 8.15495 40.1462 8.55485 39.8965 8.92725C39.6468 9.29541 39.3083 9.5874 38.8809 9.80322C38.4535 10.019 37.9922 10.127 37.4971 10.127C36.5365 10.127 35.7747 9.81592 35.2119 9.19385C34.6491 8.57178 34.3677 7.71273 34.3677 6.6167V6.45801C34.3677 5.41276 34.647 4.57699 35.2056 3.95068C35.7642 3.32015 36.5259 3.00488 37.4907 3.00488C38.3075 3.00488 38.9718 3.24398 39.4839 3.72217C40.0002 4.19613 40.271 4.82031 40.2964 5.59473H38.8428C38.8258 5.20117 38.6904 4.87744 38.4365 4.62354C38.1868 4.36963 37.8674 4.24268 37.478 4.24268C36.9787 4.24268 36.5936 4.42464 36.3228 4.78857C36.0519 5.14827 35.9144 5.69629 35.9102 6.43262V6.68018C35.9102 7.42497 36.0435 7.98145 36.3101 8.34961C36.5809 8.71354 36.9702 8.89551 37.478 8.89551ZM43.394 1.4624V3.13184H44.6064V4.27441H43.394V8.1084C43.394 8.37077 43.4448 8.5612 43.5464 8.67969C43.6522 8.79395 43.8384 8.85107 44.105 8.85107C44.2827 8.85107 44.4626 8.82992 44.6445 8.7876V9.98096C44.2933 10.0783 43.9548 10.127 43.6289 10.127C42.444 10.127 41.8516 9.47314 41.8516 8.16553V4.27441H40.7217V3.13184H41.8516V1.4624H43.394Z" fill="#A3A3A3"/>
</svg>
