<svg width="81" height="13" viewBox="0 0 81 13" fill="none" xmlns="http://www.w3.org/2000/svg">
<path d="M2.16846 6.56592V10H0.5625V0.757812H4.09814C5.1307 0.757812 5.94954 1.02653 6.55469 1.56396C7.16406 2.1014 7.46875 2.81234 7.46875 3.69678C7.46875 4.60238 7.17041 5.30697 6.57373 5.81055C5.98128 6.31413 5.14974 6.56592 4.0791 6.56592H2.16846ZM2.16846 5.27734H4.09814C4.66943 5.27734 5.10531 5.14404 5.40576 4.87744C5.70622 4.60661 5.85645 4.21729 5.85645 3.70947C5.85645 3.21012 5.7041 2.81234 5.39941 2.51611C5.09473 2.21566 4.67578 2.0612 4.14258 2.05273H2.16846V5.27734ZM12.3247 4.54102C12.1216 4.50716 11.9121 4.49023 11.6963 4.49023C10.9896 4.49023 10.5135 4.76107 10.2681 5.30273V10H8.72559V3.13184H10.1982L10.2363 3.8999C10.6087 3.30322 11.125 3.00488 11.7852 3.00488C12.0052 3.00488 12.1872 3.03451 12.3311 3.09375L12.3247 4.54102ZM14.9399 10H13.3975V3.13184H14.9399V10ZM13.3022 1.34814C13.3022 1.11117 13.3763 0.914388 13.5244 0.757812C13.6768 0.601237 13.8926 0.522949 14.1719 0.522949C14.4512 0.522949 14.667 0.601237 14.8193 0.757812C14.9717 0.914388 15.0479 1.11117 15.0479 1.34814C15.0479 1.58089 14.9717 1.77555 14.8193 1.93213C14.667 2.08447 14.4512 2.16064 14.1719 2.16064C13.8926 2.16064 13.6768 2.08447 13.5244 1.93213C13.3763 1.77555 13.3022 1.58089 13.3022 1.34814ZM19.0469 8.04492L20.5005 3.13184H22.0938L19.7134 10H18.374L15.9746 3.13184H17.5742L19.0469 8.04492ZM27.064 10C26.9963 9.86882 26.937 9.65511 26.8862 9.35889C26.3953 9.87093 25.7944 10.127 25.0835 10.127C24.3937 10.127 23.8309 9.93018 23.395 9.53662C22.9591 9.14307 22.7412 8.65641 22.7412 8.07666C22.7412 7.34456 23.012 6.78385 23.5537 6.39453C24.0996 6.00098 24.8783 5.8042 25.8896 5.8042H26.8354V5.35352C26.8354 4.99805 26.736 4.71452 26.5371 4.50293C26.3382 4.28711 26.0356 4.1792 25.6294 4.1792C25.2782 4.1792 24.9904 4.26807 24.7661 4.4458C24.5418 4.6193 24.4297 4.84147 24.4297 5.1123H22.8872C22.8872 4.73568 23.012 4.38444 23.2617 4.05859C23.5114 3.72852 23.8499 3.47038 24.2773 3.28418C24.709 3.09798 25.1893 3.00488 25.7183 3.00488C26.5223 3.00488 27.1634 3.20801 27.6416 3.61426C28.1198 4.01628 28.3652 4.58333 28.3779 5.31543V8.41309C28.3779 9.03092 28.4647 9.52393 28.6382 9.89209V10H27.064ZM25.3691 8.88916C25.6738 8.88916 25.9595 8.8151 26.2261 8.66699C26.4969 8.51888 26.7 8.31999 26.8354 8.07031V6.77539H26.0039C25.4326 6.77539 25.0031 6.87484 24.7153 7.07373C24.4276 7.27262 24.2837 7.55404 24.2837 7.91797C24.2837 8.21419 24.381 8.45117 24.5757 8.62891C24.7746 8.80241 25.0391 8.88916 25.3691 8.88916ZM32.8149 8.89551C33.2 8.89551 33.5195 8.78337 33.7734 8.55908C34.0273 8.3348 34.1628 8.05762 34.1797 7.72754H35.6333C35.6164 8.15495 35.4831 8.55485 35.2334 8.92725C34.9837 9.29541 34.6452 9.5874 34.2178 9.80322C33.7904 10.019 33.3291 10.127 32.834 10.127C31.8734 10.127 31.1117 9.81592 30.5488 9.19385C29.986 8.57178 29.7046 7.71273 29.7046 6.6167V6.45801C29.7046 5.41276 29.9839 4.57699 30.5425 3.95068C31.1011 3.32015 31.8628 3.00488 32.8276 3.00488C33.6444 3.00488 34.3088 3.24398 34.8208 3.72217C35.3371 4.19613 35.6079 4.82031 35.6333 5.59473H34.1797C34.1628 5.20117 34.0273 4.87744 33.7734 4.62354C33.5238 4.36963 33.2043 4.24268 32.8149 4.24268C32.3156 4.24268 31.9305 4.42464 31.6597 4.78857C31.3888 5.14827 31.2513 5.69629 31.2471 6.43262V6.68018C31.2471 7.42497 31.3804 7.98145 31.647 8.34961C31.9178 8.71354 32.3071 8.89551 32.8149 8.89551ZM39.2007 7.79102L40.5972 3.13184H42.2412L39.5117 11.041C39.0928 12.1963 38.3818 12.7739 37.3789 12.7739C37.1546 12.7739 36.9071 12.7358 36.6362 12.6597V11.4663L36.9282 11.4854C37.3175 11.4854 37.6095 11.4134 37.8042 11.2695C38.0031 11.1299 38.1597 10.8929 38.2739 10.5586L38.4961 9.96826L36.084 3.13184H37.7471L39.2007 7.79102ZM48.1255 6.56592V10H46.5195V0.757812H50.0552C51.0877 0.757812 51.9066 1.02653 52.5117 1.56396C53.1211 2.1014 53.4258 2.81234 53.4258 3.69678C53.4258 4.60238 53.1274 5.30697 52.5308 5.81055C51.9383 6.31413 51.1068 6.56592 50.0361 6.56592H48.1255ZM48.1255 5.27734H50.0552C50.6265 5.27734 51.0623 5.14404 51.3628 4.87744C51.6632 4.60661 51.8135 4.21729 51.8135 3.70947C51.8135 3.21012 51.6611 2.81234 51.3564 2.51611C51.0518 2.21566 50.6328 2.0612 50.0996 2.05273H48.1255V5.27734ZM54.3081 6.50244C54.3081 5.82959 54.4414 5.22445 54.708 4.68701C54.9746 4.14535 55.3491 3.73063 55.8315 3.44287C56.314 3.15088 56.8683 3.00488 57.4946 3.00488C58.4214 3.00488 59.1725 3.30322 59.748 3.8999C60.3278 4.49658 60.641 5.28792 60.6875 6.27393L60.6938 6.63574C60.6938 7.31283 60.5627 7.91797 60.3003 8.45117C60.0422 8.98438 59.6698 9.39697 59.1831 9.68896C58.7007 9.98096 58.1421 10.127 57.5073 10.127C56.5382 10.127 55.7617 9.80534 55.1777 9.16211C54.598 8.51465 54.3081 7.65348 54.3081 6.57861V6.50244ZM55.8506 6.63574C55.8506 7.34245 55.9966 7.89681 56.2886 8.29883C56.5806 8.69661 56.9868 8.89551 57.5073 8.89551C58.0278 8.89551 58.432 8.69238 58.7197 8.28613C59.0117 7.87988 59.1577 7.28532 59.1577 6.50244C59.1577 5.80843 59.0075 5.2583 58.707 4.85205C58.4108 4.4458 58.0067 4.24268 57.4946 4.24268C56.991 4.24268 56.5911 4.44368 56.2949 4.8457C55.9987 5.24349 55.8506 5.84017 55.8506 6.63574ZM63.6392 10H62.0967V0.25H63.6392V10ZM66.9653 10H65.4229V3.13184H66.9653V10ZM65.3276 1.34814C65.3276 1.11117 65.4017 0.914388 65.5498 0.757812C65.7021 0.601237 65.918 0.522949 66.1973 0.522949C66.4766 0.522949 66.6924 0.601237 66.8447 0.757812C66.9971 0.914388 67.0732 1.11117 67.0732 1.34814C67.0732 1.58089 66.9971 1.77555 66.8447 1.93213C66.6924 2.08447 66.4766 2.16064 66.1973 2.16064C65.918 2.16064 65.7021 2.08447 65.5498 1.93213C65.4017 1.77555 65.3276 1.58089 65.3276 1.34814ZM71.4722 8.89551C71.8573 8.89551 72.1768 8.78337 72.4307 8.55908C72.6846 8.3348 72.82 8.05762 72.8369 7.72754H74.2905C74.2736 8.15495 74.1403 8.55485 73.8906 8.92725C73.641 9.29541 73.3024 9.5874 72.875 9.80322C72.4476 10.019 71.9863 10.127 71.4912 10.127C70.5306 10.127 69.7689 9.81592 69.2061 9.19385C68.6432 8.57178 68.3618 7.71273 68.3618 6.6167V6.45801C68.3618 5.41276 68.6411 4.57699 69.1997 3.95068C69.7583 3.32015 70.52 3.00488 71.4849 3.00488C72.3016 3.00488 72.966 3.24398 73.478 3.72217C73.9943 4.19613 74.2651 4.82031 74.2905 5.59473H72.8369C72.82 5.20117 72.6846 4.87744 72.4307 4.62354C72.181 4.36963 71.8615 4.24268 71.4722 4.24268C70.9728 4.24268 70.5877 4.42464 70.3169 4.78857C70.0461 5.14827 69.9085 5.69629 69.9043 6.43262V6.68018C69.9043 7.42497 70.0376 7.98145 70.3042 8.34961C70.575 8.71354 70.9644 8.89551 71.4722 8.89551ZM77.8579 7.79102L79.2544 3.13184H80.8984L78.1689 11.041C77.75 12.1963 77.0391 12.7739 76.0361 12.7739C75.8118 12.7739 75.5643 12.7358 75.2935 12.6597V11.4663L75.5854 11.4854C75.9748 11.4854 76.2668 11.4134 76.4614 11.2695C76.6603 11.1299 76.8169 10.8929 76.9312 10.5586L77.1533 9.96826L74.7412 3.13184H76.4043L77.8579 7.79102Z" fill="#A3A3A3"/>
</svg>
