<svg width="78" height="11" viewBox="0 0 78 11" fill="none" xmlns="http://www.w3.org/2000/svg">
<path d="M8.04883 2.05273H5.16699V10H3.57373V2.05273H0.717285V0.757812H8.04883V2.05273ZM11.5718 10.127C10.5942 10.127 9.80078 9.82015 9.19141 9.20654C8.58626 8.5887 8.28369 7.76774 8.28369 6.74365V6.55322C8.28369 5.86768 8.41488 5.25618 8.67725 4.71875C8.94385 4.17708 9.31624 3.75602 9.79443 3.45557C10.2726 3.15511 10.8058 3.00488 11.394 3.00488C12.3293 3.00488 13.0508 3.30322 13.5586 3.8999C14.0706 4.49658 14.3267 5.34082 14.3267 6.43262V7.05469H9.83887C9.88542 7.62174 10.0737 8.07031 10.4038 8.40039C10.7381 8.73047 11.1571 8.89551 11.6606 8.89551C12.3674 8.89551 12.9429 8.60986 13.3872 8.03857L14.2188 8.83203C13.9437 9.24251 13.5755 9.56201 13.1143 9.79053C12.6572 10.0148 12.1431 10.127 11.5718 10.127ZM11.3877 4.24268C10.9645 4.24268 10.6217 4.39079 10.3594 4.68701C10.1012 4.98324 9.9362 5.39583 9.86426 5.9248H12.8032V5.81055C12.7694 5.29427 12.6318 4.90495 12.3906 4.64258C12.1494 4.37598 11.8151 4.24268 11.3877 4.24268ZM19.1255 4.54102C18.9224 4.50716 18.7129 4.49023 18.4971 4.49023C17.7904 4.49023 17.3143 4.76107 17.0688 5.30273V10H15.5264V3.13184H16.999L17.0371 3.8999C17.4095 3.30322 17.9258 3.00488 18.5859 3.00488C18.806 3.00488 18.988 3.03451 19.1318 3.09375L19.1255 4.54102ZM21.5503 3.13184L21.5947 3.84912C22.0771 3.2863 22.7373 3.00488 23.5752 3.00488C24.4935 3.00488 25.1219 3.35612 25.4604 4.05859C25.9598 3.35612 26.6623 3.00488 27.5679 3.00488C28.3254 3.00488 28.8882 3.21436 29.2563 3.6333C29.6287 4.05225 29.8192 4.67008 29.8276 5.48682V10H28.2852V5.53125C28.2852 5.09538 28.1899 4.77588 27.9995 4.57275C27.8091 4.36963 27.4938 4.26807 27.0537 4.26807C26.7025 4.26807 26.4147 4.36328 26.1904 4.55371C25.9704 4.73991 25.8159 4.98535 25.7271 5.29004L25.7334 10H24.1909V5.48047C24.1698 4.6722 23.7572 4.26807 22.9531 4.26807C22.3353 4.26807 21.8973 4.51986 21.6392 5.02344V10H20.0967V3.13184H21.5503ZM35.2612 8.13379C35.2612 7.85872 35.147 7.64925 34.9185 7.50537C34.6942 7.36149 34.3197 7.23454 33.7949 7.12451C33.2702 7.01449 32.8322 6.87484 32.481 6.70557C31.7108 6.33317 31.3257 5.79362 31.3257 5.08691C31.3257 4.49447 31.5754 3.99935 32.0747 3.60156C32.5741 3.20378 33.2088 3.00488 33.979 3.00488C34.8 3.00488 35.4622 3.20801 35.9658 3.61426C36.4736 4.02051 36.7275 4.54736 36.7275 5.19482H35.1851C35.1851 4.8986 35.075 4.65316 34.855 4.4585C34.6349 4.2596 34.3429 4.16016 33.979 4.16016C33.6405 4.16016 33.3633 4.23844 33.1475 4.39502C32.9359 4.5516 32.8301 4.76107 32.8301 5.02344C32.8301 5.26042 32.9295 5.4445 33.1284 5.57568C33.3273 5.70687 33.7293 5.84017 34.3345 5.97559C34.9396 6.10677 35.4136 6.26546 35.7563 6.45166C36.1034 6.63363 36.3594 6.85368 36.5244 7.11182C36.6937 7.36995 36.7783 7.68311 36.7783 8.05127C36.7783 8.66911 36.5223 9.17057 36.0103 9.55566C35.4982 9.93652 34.8275 10.127 33.998 10.127C33.4352 10.127 32.9338 10.0254 32.4937 9.82227C32.0535 9.61914 31.7108 9.33984 31.4653 8.98438C31.2199 8.62891 31.0972 8.24593 31.0972 7.83545H32.5952C32.6164 8.19938 32.7539 8.48079 33.0078 8.67969C33.2617 8.87435 33.5981 8.97168 34.0171 8.97168C34.4233 8.97168 34.7323 8.89551 34.9438 8.74316C35.1554 8.58659 35.2612 8.38346 35.2612 8.13379ZM41.0757 6.50244C41.0757 5.82959 41.209 5.22445 41.4756 4.68701C41.7422 4.14535 42.1167 3.73063 42.5991 3.44287C43.0815 3.15088 43.6359 3.00488 44.2622 3.00488C45.189 3.00488 45.9401 3.30322 46.5156 3.8999C47.0954 4.49658 47.4085 5.28792 47.4551 6.27393L47.4614 6.63574C47.4614 7.31283 47.3302 7.91797 47.0679 8.45117C46.8097 8.98438 46.4373 9.39697 45.9507 9.68896C45.4683 9.98096 44.9097 10.127 44.2749 10.127C43.3058 10.127 42.5293 9.80534 41.9453 9.16211C41.3656 8.51465 41.0757 7.65348 41.0757 6.57861V6.50244ZM42.6182 6.63574C42.6182 7.34245 42.7642 7.89681 43.0562 8.29883C43.3481 8.69661 43.7544 8.89551 44.2749 8.89551C44.7954 8.89551 45.1995 8.69238 45.4873 8.28613C45.7793 7.87988 45.9253 7.28532 45.9253 6.50244C45.9253 5.80843 45.7751 5.2583 45.4746 4.85205C45.1784 4.4458 44.7743 4.24268 44.2622 4.24268C43.7586 4.24268 43.3587 4.44368 43.0625 4.8457C42.7663 5.24349 42.6182 5.84017 42.6182 6.63574ZM49.3086 10V4.27441H48.2612V3.13184H49.3086V2.50342C49.3086 1.7417 49.5202 1.15348 49.9434 0.73877C50.3665 0.324056 50.959 0.116699 51.7207 0.116699C51.9915 0.116699 52.2793 0.154785 52.584 0.230957L52.5459 1.43701C52.3766 1.40316 52.1799 1.38623 51.9556 1.38623C51.2192 1.38623 50.8511 1.76497 50.8511 2.52246V3.13184H52.2476V4.27441H50.8511V10H49.3086ZM63.521 0.757812V6.93408C63.521 7.91585 63.2057 8.6945 62.5752 9.27002C61.9489 9.84131 61.1131 10.127 60.0679 10.127C59.0099 10.127 58.1699 9.84554 57.5479 9.28271C56.9258 8.71566 56.6147 7.93066 56.6147 6.92773V0.757812H58.2144V6.94043C58.2144 7.55827 58.3709 8.03011 58.6841 8.35596C58.9972 8.6818 59.4585 8.84473 60.0679 8.84473C61.3035 8.84473 61.9214 8.19303 61.9214 6.88965V0.757812H63.521ZM68.9419 8.13379C68.9419 7.85872 68.8276 7.64925 68.5991 7.50537C68.3748 7.36149 68.0003 7.23454 67.4756 7.12451C66.9508 7.01449 66.5129 6.87484 66.1616 6.70557C65.3914 6.33317 65.0063 5.79362 65.0063 5.08691C65.0063 4.49447 65.256 3.99935 65.7554 3.60156C66.2547 3.20378 66.8895 3.00488 67.6597 3.00488C68.4806 3.00488 69.1429 3.20801 69.6465 3.61426C70.1543 4.02051 70.4082 4.54736 70.4082 5.19482H68.8657C68.8657 4.8986 68.7557 4.65316 68.5356 4.4585C68.3156 4.2596 68.0236 4.16016 67.6597 4.16016C67.3211 4.16016 67.0439 4.23844 66.8281 4.39502C66.6165 4.5516 66.5107 4.76107 66.5107 5.02344C66.5107 5.26042 66.6102 5.4445 66.8091 5.57568C67.008 5.70687 67.41 5.84017 68.0151 5.97559C68.6203 6.10677 69.0942 6.26546 69.437 6.45166C69.784 6.63363 70.04 6.85368 70.2051 7.11182C70.3743 7.36995 70.459 7.68311 70.459 8.05127C70.459 8.66911 70.203 9.17057 69.6909 9.55566C69.1789 9.93652 68.5081 10.127 67.6787 10.127C67.1159 10.127 66.6144 10.0254 66.1743 9.82227C65.7342 9.61914 65.3914 9.33984 65.146 8.98438C64.9006 8.62891 64.7778 8.24593 64.7778 7.83545H66.2759C66.297 8.19938 66.4346 8.48079 66.6885 8.67969C66.9424 8.87435 67.2788 8.97168 67.6978 8.97168C68.104 8.97168 68.4129 8.89551 68.6245 8.74316C68.8361 8.58659 68.9419 8.38346 68.9419 8.13379ZM74.8325 10.127C73.855 10.127 73.0615 9.82015 72.4521 9.20654C71.847 8.5887 71.5444 7.76774 71.5444 6.74365V6.55322C71.5444 5.86768 71.6756 5.25618 71.938 4.71875C72.2046 4.17708 72.577 3.75602 73.0552 3.45557C73.5334 3.15511 74.0666 3.00488 74.6548 3.00488C75.59 3.00488 76.3115 3.30322 76.8193 3.8999C77.3314 4.49658 77.5874 5.34082 77.5874 6.43262V7.05469H73.0996C73.1462 7.62174 73.3345 8.07031 73.6646 8.40039C73.9989 8.73047 74.4178 8.89551 74.9214 8.89551C75.6281 8.89551 76.2036 8.60986 76.6479 8.03857L77.4795 8.83203C77.2044 9.24251 76.8363 9.56201 76.375 9.79053C75.918 10.0148 75.4038 10.127 74.8325 10.127ZM74.6484 4.24268C74.2253 4.24268 73.8825 4.39079 73.6201 4.68701C73.362 4.98324 73.1969 5.39583 73.125 5.9248H76.064V5.81055C76.0301 5.29427 75.8926 4.90495 75.6514 4.64258C75.4102 4.37598 75.0758 4.24268 74.6484 4.24268Z" fill="#A3A3A3"/>
</svg>
