<svg width="50" height="50" viewBox="0 0 50 50" fill="none" xmlns="http://www.w3.org/2000/svg">
<mask id="mask0" mask-type="alpha" maskUnits="userSpaceOnUse" x="0" y="0" width="50" height="50">
<path fill-rule="evenodd" clip-rule="evenodd" d="M25 0C11.1929 0 0 11.1929 0 25C0 38.8071 11.1929 50 25 50C38.8071 50 50 38.8071 50 25C50 11.1929 38.8071 0 25 0ZM25 2C12.2975 2 2 12.2975 2 25C2 37.7025 12.2975 48 25 48C37.7025 48 48 37.7025 48 25C48 12.2975 37.7025 2 25 2Z" fill="white"/>
</mask>
<g mask="url(#mask0)">
<rect width="50" height="50" fill="#EBEBEB"/>
</g>
<mask id="mask1" mask-type="alpha" maskUnits="userSpaceOnUse" x="15" y="15" width="20" height="20">
<path fill-rule="evenodd" clip-rule="evenodd" d="M33.8428 18.8836C33.6048 18.2706 33.2874 17.7512 32.7681 17.2319C32.2488 16.7126 31.7295 16.3952 31.1164 16.1572C30.5249 15.9264 29.8397 15.7677 28.8516 15.7245L28.8348 15.7237C27.8526 15.681 27.5245 15.6667 25 15.6667C22.4611 15.6667 22.1437 15.674 21.1483 15.7245C20.153 15.7677 19.475 15.9264 18.8835 16.1572C18.2704 16.3952 17.7511 16.7126 17.2318 17.2319C16.7125 17.7512 16.3951 18.2706 16.1571 18.8836C15.9263 19.4751 15.7676 20.1603 15.7243 21.1485L15.7236 21.1652C15.6809 22.1475 15.6666 22.4755 15.6666 25.0001C15.6666 27.539 15.6738 27.8563 15.7243 28.8517C15.7676 29.8471 15.9263 30.5251 16.1571 31.1165C16.3951 31.7296 16.7125 32.2489 17.2318 32.7682C17.7511 33.2876 18.2704 33.6049 18.8835 33.8429C19.475 34.0738 20.1602 34.2324 21.1483 34.2757L21.1651 34.2764C22.1473 34.3191 22.4754 34.3334 25 34.3334C27.5389 34.3334 27.8562 34.3262 28.8516 34.2757C29.8469 34.2324 30.5249 34.0738 31.1164 33.8429C31.7295 33.6049 32.2488 33.2876 32.7681 32.7682C33.2874 32.2489 33.6048 31.7296 33.8428 31.1165C34.0736 30.5251 34.2323 29.8399 34.2756 28.8517L34.2763 28.8349C34.319 27.8527 34.3333 27.5247 34.3333 25.0001C34.3333 22.4612 34.3261 22.1438 34.2756 21.1485C34.2323 20.1531 34.0736 19.4751 33.8428 18.8836ZM31.9472 28.4474C31.9077 29.2779 31.7693 29.7327 31.6506 30.0293C31.499 30.4248 31.3079 30.7148 31.0113 31.0114C30.7146 31.308 30.4312 31.4925 30.0291 31.6507C29.7259 31.7694 29.2777 31.9078 28.4472 31.9473L28.4043 31.9492C27.5352 31.9873 27.244 32.0001 25 32.0001C22.7194 32.0001 22.4491 31.9935 21.5527 31.9473C20.7222 31.9078 20.2674 31.7694 19.9708 31.6507C19.5753 31.4991 19.2853 31.308 18.9887 31.0114C18.692 30.7148 18.5075 30.4313 18.3493 30.0293C18.2307 29.7261 18.0922 29.2779 18.0527 28.4474L18.0511 28.4117C18.0128 27.5368 18 27.2439 18 25.0001C18 22.7261 18.0066 22.4492 18.0527 21.5528C18.0922 20.7223 18.2307 20.2675 18.3493 19.9709C18.5009 19.5754 18.692 19.2854 18.9887 18.9888C19.2853 18.6922 19.5687 18.5076 19.9708 18.3494C20.274 18.2308 20.7222 18.0924 21.5527 18.0528L21.5884 18.0512C22.4632 18.0129 22.7562 18.0001 25 18.0001C27.274 18.0001 27.5508 18.0067 28.4472 18.0528C29.2777 18.0924 29.7325 18.2308 30.0291 18.3494C30.4246 18.501 30.7146 18.6922 31.0113 18.9888C31.3079 19.2854 31.4924 19.5688 31.6506 19.9709C31.7693 20.2741 31.9077 20.7223 31.9472 21.5528L31.9488 21.5885C31.9871 22.4634 32 22.7563 32 25.0001C32 27.2524 31.987 27.5455 31.9484 28.4218V28.4218L31.9472 28.4474ZM30.8333 20.3334C30.8333 20.9777 30.311 21.5001 29.6666 21.5001C29.0223 21.5001 28.5 20.9777 28.5 20.3334C28.5 19.6891 29.0223 19.1667 29.6666 19.1667C30.311 19.1667 30.8333 19.6891 30.8333 20.3334ZM25 20.3334C22.4245 20.3334 20.3333 22.4246 20.3333 25.0001C20.3333 27.5755 22.4245 29.6667 25 29.6667C27.5754 29.6667 29.6666 27.5755 29.6666 25.0001C29.6666 22.4246 27.5754 20.3334 25 20.3334ZM22.6666 25.0001C22.6666 26.291 23.7145 27.3334 25 27.3334C26.2855 27.3334 27.3333 26.2856 27.3333 25.0001C27.3333 23.7092 26.2909 22.6667 25 22.6667C23.7091 22.6667 22.6666 23.7146 22.6666 25.0001Z" fill="white"/>
</mask>
<g mask="url(#mask1)">
<rect x="13.8" y="13.8" width="22.4" height="22.4" fill="#B3B3B3"/>
</g>
</svg>
