<svg width="154" height="51" viewBox="0 0 154 51" fill="none" xmlns="http://www.w3.org/2000/svg">
<path d="M20.769 39.0793C35.3709 44.6018 69.0527 40.1353 69.0527 40.1353C69.0527 40.1353 65.0075 13.7793 51.6308 6.28603C38.2541 -1.20723 18.0503 9.40443 10.6445 18.044C3.23875 26.6835 6.16682 33.5562 20.769 39.0793Z" fill="#F1EFFC"/>
<path d="M82.704 24.8918C80.742 24.8918 79.32 25.4408 78.438 26.5388C77.574 27.6188 77.142 29.1038 77.142 30.9938C77.142 31.9118 77.25 32.7488 77.466 33.5048C77.682 34.2428 78.006 34.8818 78.438 35.4218C78.87 35.9618 79.41 36.3848 80.058 36.6908C80.706 36.9788 81.462 37.1228 82.326 37.1228C82.794 37.1228 83.19 37.1138 83.514 37.0958C83.856 37.0778 84.153 37.0418 84.405 36.9878V30.4808H88.617V39.7418C88.113 39.9398 87.303 40.1468 86.187 40.3628C85.071 40.5968 83.694 40.7138 82.056 40.7138C80.652 40.7138 79.374 40.4978 78.222 40.0658C77.088 39.6338 76.116 39.0038 75.306 38.1758C74.496 37.3478 73.866 36.3308 73.416 35.1248C72.984 33.9188 72.768 32.5418 72.768 30.9938C72.768 29.4278 73.011 28.0418 73.497 26.8358C73.983 25.6298 74.649 24.6128 75.495 23.7848C76.341 22.9388 77.331 22.2998 78.465 21.8678C79.617 21.4358 80.841 21.2198 82.137 21.2198C83.019 21.2198 83.811 21.2828 84.513 21.4088C85.233 21.5168 85.845 21.6518 86.349 21.8138C86.871 21.9578 87.294 22.1108 87.618 22.2728C87.96 22.4348 88.203 22.5608 88.347 22.6508L87.132 26.0258C86.556 25.7198 85.89 25.4588 85.134 25.2428C84.396 25.0088 83.586 24.8918 82.704 24.8918ZM104.389 39.8768C103.705 40.0748 102.823 40.2548 101.743 40.4168C100.663 40.5968 99.529 40.6868 98.341 40.6868C97.135 40.6868 96.127 40.5248 95.317 40.2008C94.525 39.8768 93.895 39.4268 93.427 38.8508C92.959 38.2568 92.626 37.5548 92.428 36.7448C92.23 35.9348 92.131 35.0438 92.131 34.0718V26.1608H96.154V33.5858C96.154 34.8818 96.325 35.8178 96.667 36.3938C97.009 36.9698 97.648 37.2578 98.584 37.2578C98.872 37.2578 99.178 37.2488 99.502 37.2308C99.826 37.1948 100.114 37.1588 100.366 37.1228V26.1608H104.389V39.8768ZM112.188 40.3628H108.165V26.1608H112.188V40.3628ZM112.566 22.0568C112.566 22.7948 112.323 23.3798 111.837 23.8118C111.369 24.2258 110.811 24.4328 110.163 24.4328C109.515 24.4328 108.948 24.2258 108.462 23.8118C107.994 23.3798 107.76 22.7948 107.76 22.0568C107.76 21.3188 107.994 20.7428 108.462 20.3288C108.948 19.8968 109.515 19.6808 110.163 19.6808C110.811 19.6808 111.369 19.8968 111.837 20.3288C112.323 20.7428 112.566 21.3188 112.566 22.0568ZM119.399 33.1538C119.399 34.3958 119.678 35.3948 120.236 36.1508C120.794 36.9068 121.622 37.2848 122.72 37.2848C123.08 37.2848 123.413 37.2758 123.719 37.2578C124.025 37.2218 124.277 37.1858 124.475 37.1498V29.8328C124.223 29.6708 123.89 29.5358 123.476 29.4278C123.08 29.3198 122.675 29.2658 122.261 29.2658C120.353 29.2658 119.399 30.5618 119.399 33.1538ZM128.498 39.9038C128.138 40.0118 127.724 40.1198 127.256 40.2278C126.788 40.3178 126.293 40.3988 125.771 40.4708C125.267 40.5428 124.745 40.5968 124.205 40.6328C123.683 40.6868 123.179 40.7138 122.693 40.7138C121.523 40.7138 120.479 40.5428 119.561 40.2008C118.643 39.8588 117.869 39.3728 117.239 38.7428C116.609 38.0948 116.123 37.3208 115.781 36.4208C115.457 35.5028 115.295 34.4768 115.295 33.3428C115.295 32.1908 115.439 31.1558 115.727 30.2378C116.015 29.3018 116.429 28.5098 116.969 27.8618C117.509 27.2138 118.166 26.7188 118.94 26.3768C119.732 26.0348 120.632 25.8638 121.64 25.8638C122.198 25.8638 122.693 25.9178 123.125 26.0258C123.575 26.1338 124.025 26.2868 124.475 26.4848V20.0588L128.498 19.4108V39.9038ZM131.59 33.3698C131.59 32.1098 131.779 31.0118 132.157 30.0758C132.553 29.1218 133.066 28.3298 133.696 27.6998C134.326 27.0698 135.046 26.5928 135.856 26.2688C136.684 25.9448 137.53 25.7828 138.394 25.7828C140.41 25.7828 142.003 26.4038 143.173 27.6458C144.343 28.8698 144.928 30.6788 144.928 33.0728C144.928 33.3068 144.919 33.5678 144.901 33.8558C144.883 34.1258 144.865 34.3688 144.847 34.5848H135.721C135.811 35.4128 136.198 36.0698 136.882 36.5558C137.566 37.0418 138.484 37.2848 139.636 37.2848C140.374 37.2848 141.094 37.2218 141.796 37.0958C142.516 36.9518 143.101 36.7808 143.551 36.5828L144.091 39.8498C143.875 39.9578 143.587 40.0658 143.227 40.1738C142.867 40.2818 142.462 40.3718 142.012 40.4438C141.58 40.5338 141.112 40.6058 140.608 40.6598C140.104 40.7138 139.6 40.7408 139.096 40.7408C137.818 40.7408 136.702 40.5518 135.748 40.1738C134.812 39.7958 134.029 39.2828 133.399 38.6348C132.787 37.9688 132.328 37.1858 132.022 36.2858C131.734 35.3858 131.59 34.4138 131.59 33.3698ZM141.04 31.8308C141.022 31.4888 140.959 31.1558 140.851 30.8318C140.761 30.5078 140.608 30.2198 140.392 29.9678C140.194 29.7158 139.933 29.5088 139.609 29.3468C139.303 29.1848 138.916 29.1038 138.448 29.1038C137.998 29.1038 137.611 29.1848 137.287 29.3468C136.963 29.4908 136.693 29.6888 136.477 29.9408C136.261 30.1928 136.09 30.4898 135.964 30.8318C135.856 31.1558 135.775 31.4888 135.721 31.8308H141.04ZM151.975 38.2298C151.975 39.0398 151.714 39.6608 151.192 40.0928C150.688 40.5068 150.112 40.7138 149.464 40.7138C148.816 40.7138 148.231 40.5068 147.709 40.0928C147.205 39.6608 146.953 39.0398 146.953 38.2298C146.953 37.4198 147.205 36.8078 147.709 36.3938C148.231 35.9618 148.816 35.7458 149.464 35.7458C150.112 35.7458 150.688 35.9618 151.192 36.3938C151.714 36.8078 151.975 37.4198 151.975 38.2298Z" fill="white"/>
<path d="M21.168 11.8978C9.60597 20.2614 6.41797 44.296 6.41797 44.296C6.41797 44.296 43.504 48.8219 57.418 41.8309C71.332 34.8399 62.418 18.2366 52.668 10.8413C42.918 3.44606 32.731 3.5341 21.168 11.8978Z" fill="#4B3C99"/>
<path d="M25.618 22.2462C28.2013 22.2462 30.1846 22.7046 31.568 23.6212C32.9513 24.5212 33.643 26.0046 33.643 28.0712C33.643 30.1546 32.943 31.6629 31.543 32.5962C30.143 33.5129 28.143 33.9712 25.543 33.9712H24.318V39.7712H20.418V22.6962C21.268 22.5296 22.168 22.4129 23.118 22.3462C24.068 22.2796 24.9013 22.2462 25.618 22.2462ZM25.868 25.5712C25.5846 25.5712 25.3013 25.5796 25.018 25.5962C24.7513 25.6129 24.518 25.6296 24.318 25.6462V30.6462H25.543C26.893 30.6462 27.9096 30.4629 28.593 30.0962C29.2763 29.7296 29.618 29.0462 29.618 28.0462C29.618 27.5629 29.5263 27.1629 29.343 26.8462C29.1763 26.5296 28.9263 26.2796 28.593 26.0962C28.2763 25.8962 27.8846 25.7629 27.418 25.6962C26.9513 25.6129 26.4346 25.5712 25.868 25.5712ZM41.1068 22.4462C41.4068 22.9962 41.7485 23.6796 42.1318 24.4962C42.5318 25.2962 42.9402 26.1712 43.3568 27.1212C43.7902 28.0546 44.2152 29.0129 44.6318 29.9962C45.0485 30.9796 45.4402 31.9046 45.8068 32.7712C46.1735 31.9046 46.5652 30.9796 46.9818 29.9962C47.3985 29.0129 47.8152 28.0546 48.2318 27.1212C48.6652 26.1712 49.0735 25.2962 49.4568 24.4962C49.8568 23.6796 50.2068 22.9962 50.5068 22.4462H54.0568C54.2235 23.5962 54.3735 24.8879 54.5068 26.3212C54.6568 27.7379 54.7818 29.2212 54.8818 30.7712C54.9985 32.3046 55.0985 33.8462 55.1818 35.3962C55.2818 36.9462 55.3652 38.4046 55.4318 39.7712H51.6318C51.5818 38.0879 51.5152 36.2546 51.4318 34.2712C51.3485 32.2879 51.2235 30.2879 51.0568 28.2712C50.7568 28.9712 50.4235 29.7462 50.0568 30.5962C49.6902 31.4462 49.3235 32.2962 48.9568 33.1462C48.6068 33.9962 48.2652 34.8129 47.9318 35.5962C47.5985 36.3629 47.3152 37.0212 47.0818 37.5712H44.3568C44.1235 37.0212 43.8402 36.3629 43.5068 35.5962C43.1735 34.8129 42.8235 33.9962 42.4568 33.1462C42.1068 32.2962 41.7485 31.4462 41.3818 30.5962C41.0152 29.7462 40.6818 28.9712 40.3818 28.2712C40.2152 30.2879 40.0902 32.2879 40.0068 34.2712C39.9235 36.2546 39.8568 38.0879 39.8068 39.7712H36.0068C36.0735 38.4046 36.1485 36.9462 36.2318 35.3962C36.3318 33.8462 36.4318 32.3046 36.5318 30.7712C36.6485 29.2212 36.7735 27.7379 36.9068 26.3212C37.0568 24.8879 37.2152 23.5962 37.3818 22.4462H41.1068Z" fill="white"/>
</svg>
