<svg width="50" height="50" viewBox="0 0 50 50" fill="none" xmlns="http://www.w3.org/2000/svg">
<mask id="mask0" mask-type="alpha" maskUnits="userSpaceOnUse" x="0" y="0" width="50" height="50">
<path fill-rule="evenodd" clip-rule="evenodd" d="M25 0C11.1929 0 0 11.1929 0 25C0 38.8071 11.1929 50 25 50C38.8071 50 50 38.8071 50 25C50 11.1929 38.8071 0 25 0ZM25 2C12.2975 2 2 12.2975 2 25C2 37.7025 12.2975 48 25 48C37.7025 48 48 37.7025 48 25C48 12.2975 37.7025 2 25 2Z" fill="white"/>
</mask>
<g mask="url(#mask0)">
<rect width="50" height="50" fill="#EBEBEB"/>
</g>
<mask id="mask1" mask-type="alpha" maskUnits="userSpaceOnUse" x="16" y="18" width="18" height="15">
<path fill-rule="evenodd" clip-rule="evenodd" d="M33.4 20.1234C32.7819 20.405 32.1181 20.5951 31.4202 20.6796C32.1318 20.2424 32.6784 19.5499 32.9363 18.725C32.2699 19.1294 31.5326 19.4245 30.7475 19.5822C30.1184 18.8957 29.2226 18.4666 28.2306 18.4666C26.327 18.4666 24.7847 20.0486 24.7847 22.0005C24.7847 22.2772 24.8146 22.5476 24.8734 22.806C22.0088 22.6585 19.4693 21.2515 17.7689 19.1132C17.4727 19.6356 17.3026 20.2424 17.3026 20.8902C17.3026 22.1168 17.9112 23.198 18.8355 23.8323C18.2709 23.8135 17.7395 23.6552 17.2748 23.3902C17.2742 23.4048 17.2742 23.4204 17.2742 23.4344C17.2742 25.1472 18.4621 26.5758 20.0391 26.9005C19.7502 26.9807 19.4457 27.0243 19.1311 27.0243C18.9085 27.0243 18.6931 27.0022 18.4831 26.9613C18.9211 28.3646 20.1945 29.3866 21.7022 29.4156C20.5232 30.3633 19.0371 30.9292 17.4223 30.9292C17.144 30.9292 16.8694 30.9126 16.6 30.8797C18.125 31.8812 19.9367 32.4666 21.8833 32.4666C28.2227 32.4666 31.6901 27.0814 31.6901 22.4108C31.6901 22.2579 31.6859 22.1049 31.6796 21.9531C32.3534 21.455 32.9373 20.8331 33.4 20.1234Z" fill="white"/>
</mask>
<g mask="url(#mask1)">
<rect x="13.8" y="13.8" width="22.4" height="22.4" fill="#B3B3B3"/>
</g>
</svg>
